<?xml version="1.0" encoding="utf-8"?>
<!-- Generator: Adobe Illustrator 18.0.0, SVG Export Plug-In . SVG Version: 6.00 Build 0)  -->
<!DOCTYPE svg PUBLIC "-//W3C//DTD SVG 1.1//EN" "http://www.w3.org/Graphics/SVG/1.1/DTD/svg11.dtd">
<svg version="1.1" id="Layer_1" xmlns="http://www.w3.org/2000/svg" xmlns:xlink="http://www.w3.org/1999/xlink" x="0px" y="0px"
	 viewBox="0 0 612 792" enable-background="new 0 0 612 792" xml:space="preserve">
<rect x="436.6" y="319.2" fill="none" width="92.3" height="17.1"/>
<rect x="436.6" y="349.9" fill="none" width="92.3" height="17.1"/>
<rect x="436.6" y="365.2" fill="none" width="92.3" height="17.1"/>
<rect x="421.4" y="303.9" fill="none" width="107.5" height="17.1"/>
<polygon fill="#96A9D6" points="279.7,230.6 268,218.9 274.8,212 279.7,216.9 286.5,223.8 "/>
<rect x="281.4" y="212.9" transform="matrix(-0.7071 -0.7071 0.7071 -0.7071 334.9577 573.2538)" fill="#7F3C0A" width="9.7" height="8.8"/>
<g id="FluffyLogo">
	<path fill="#512548" d="M918.7,129.7c-16.4,0-54.9-2.5-55.7-23.8c0-4.9,2.5-10.7,4.9-18.8c2.5-6.6,5.7-13.9,7.4-21.3
		c0-1.6,0.8-3.3,0.8-4.9c0.8-4.1,1.6-8.2,2.5-12.3c-3.3-0.8-5.7-2.5-7.4-3.3c-12.3-8.2-19.7-24.6-17.2-40.1c0-2.5,0.8-4.1,1.6-4.9
		c0-0.8,0-0.8,0.8-1.6c0-0.8,0.8-2.5,1.6-3.3c1.6-3.3,4.9-6.6,9-8.2c-0.8-0.8-1.6-2.5-2.5-3.3c-3.3-4.1-5.7-8.2-8.2-13.1
		c-4.9-9.8-7.4-20.5-7.4-29.5c0-2.5,0-4.1,0.8-6.6c2.5-13.9,10.7-24.6,21.3-29.5l1.6-0.8c16.4-7.4,36-11.5,54.9-11.5
		c41,0,73.7,18,86.8,48.3c5.7,13.1,3.3,33.6-4.1,45.1c-3.3,4.9-8.2,8.2-13.9,10.7c0.8,0.8,2.5,1.6,3.3,3.3c9.8,11.5,4.9,36,4.9,36
		c-2.5,11.5-6.6,22.9-22.1,30.3c-3.3,1.6-7.4,2.5-10.7,3.3c0.8,3.3,0.8,6.6,0.8,9c0,3.3,0,5.7,0.8,7.4v0.8v0.8
		c2.5,7.4,3.3,14.7,3.3,21.3C975.2,128.1,927.7,129.7,918.7,129.7z"/>
	<path fill="#CE3CAF" d="M951.4-48.1c-4.1,0-5.7,8.2-4.9,10.7c0,4.9,2.5,12.3,5.7,16.4c5.7,6.6,9,3.3,19.7,4.9c9,1.6,27,4.1,32-3.3
		c6.6-9,8.2-27,3.3-37.7c-21.3-48.3-89.3-52.4-131.1-32.8c-0.8,0-0.8,0.8-1.6,0.8c-9.8,4.9-15.6,13.9-17.2,23.8
		c0,1.6-0.8,3.3-0.8,5.7c0,9,2.5,18,6.6,26.2c1.6,4.1,4.1,8.2,7.4,11.5c1.6,1.6,2.5,3.3,4.1,4.9c0.8,0.8,1.6,1.6,2.5,2.5
		c1.6,1.6,4.9,10.7,3.3,9c-4.1-4.1-13.1-1.6-15.6,3.3c0,0.8-0.8,1.6-0.8,1.6c-0.8,1.6-1.6,3.3-1.6,4.9c-1.6,12.3,4.1,25.4,13.9,32
		c1.6,0.8,4.1,2.5,5.7,2.5c1.6,0,4.1-0.8,4.9-1.6c1.6,9-1.6,19.7-3.3,28.7c-3.3,15.6-12.3,32-12.3,37.7c0.8,22.9,96.7,20.5,98.3,0.8
		c0-6.6-0.8-12.3-2.5-18.8c-3.3-5.7-0.8-7.4-3.3-13.9c-0.8-2.5-2.5-7.4-5.7-8.2c-4.9-0.8-5.7-0.8-11.5-1.6
		c-5.7-0.8-15.6-5.7-16.4-12.3c-0.8-4.9,2.5-7.4,6.6-5.7c4.1,1.6,3.3,4.9,6.6,7.4s5.7,4.1,9.8,4.9c7.4,1.6,18.8,1.6,26.2-1.6
		c11.5-5.7,15.6-13.1,17.2-24.6c0.8-6.6,1.6-13.1,0-18.8c-3.3-9-12.3-17.2-21.3-19.7c-7.4-2.5-18.8-4.1-27-1.6
		c-2.5,0.8-9.8,1.6-10.7,4.1c-0.8,0.8,4.1,4.1,3.3,4.9c-2.5,5.7-13.9,0.8-13.9-4.1c0-3.3,1.6-6.6,4.1-9c1.6-0.8,3.3-1.6,4.9-2.5
		c1.6-0.8,3.3,0,5.7-0.8c2.5-0.8,1.6-3.3,1.6-5.7c-0.8-2.5-1.6-4.9-2.5-7.4c0-1.6-0.8-4.1-0.8-5.7c-1.6-9,0.8-18,9-22.9
		c2.5-1.6,4.9-2.5,7.4-2.5c3.3,0,5.7,3.3,7.4,4.9c2.5,3.3,0.8,8.2-3.3,9c-2.5,0.8-3.3-0.8-4.9-2.5C953.1-48.1,952.3-48.1,951.4-48.1
		z"/>
</g>
<g id="SquishyLogo">
	<path fill="#77300C" d="M162.2,528.7c-3.3,0-7.4,0-10.7,0c-12.3-0.8-23.8-1.6-34.4-3.3c-1.6,0-2.5-0.8-4.1-0.8
		c-6.6-0.8-13.9-2.5-19.7-5.7c-3.3-2.5-9.8-6.6-9.8-14.7c0-6.6,4.1-10.7,5.7-12.3l0.8-0.8c0-2.5-0.8-4.9-0.8-7.4
		c-1.6-8.2-3.3-18,9.8-28.7c7.4-5.7,14.7-10.7,22.1-13.1c-14.7-6.6-27.9-18-36-32.8c-10.7-18-13.1-38.5-8.2-57.3
		c5.7-20.5,21.3-32.8,34.4-41c15.6-9.8,33.6-15.6,53.3-15.6c1.6,0,3.3,0,4.9,0c27.9,0,50.8,9,62.3,25.4
		c11.5,15.6,13.1,37.7,4.1,56.5c-4.1,7.4-9.8,14.7-16.4,18.8c-4.9,3.3-9.8,5.7-14.7,7.4c5.7,3.3,11.5,6.6,17.2,10.7
		c0.8,0.8,1.6,1.6,3.3,2.5c4.9,3.3,9.8,6.6,13.1,11.5c8.2,12.3,6.6,22.1,4.1,28.7c-0.8,1.6-1.6,3.3-1.6,4.9
		c-0.8,2.5-1.6,4.1-2.5,6.6c-0.8,3.3,0.8,7.4,2.5,11.5c0,0.8,0.8,1.6,0.8,2.5c1.6,4.1,3.3,8.2,4.9,12.3c1.6,9.8-6.6,16.4-9,18
		c-9.8,7.4-22.9,9.8-33.6,12.3C190.1,527.9,176.1,528.7,162.2,528.7z"/>
	
		<linearGradient id="SVGID_1_" gradientUnits="userSpaceOnUse" x1="19.5587" y1="777.3365" x2="19.4754" y2="753.4198" gradientTransform="matrix(8.1928 0 0 -8.1928 3.051758e-005 6681.4937)">
		<stop  offset="0.3065" style="stop-color:#F5CF2B"/>
		<stop  offset="0.5771" style="stop-color:#FCF23A"/>
		<stop  offset="0.672" style="stop-color:#FFFF40"/>
		<stop  offset="0.7576" style="stop-color:#FEFC3F"/>
		<stop  offset="0.8112" style="stop-color:#FDF43B"/>
		<stop  offset="0.8559" style="stop-color:#F9E535"/>
		<stop  offset="0.8959" style="stop-color:#F5D12C"/>
		<stop  offset="0.9326" style="stop-color:#EFB620"/>
		<stop  offset="0.9665" style="stop-color:#E89512"/>
		<stop  offset="0.9785" style="stop-color:#E5880C"/>
	</linearGradient>
	<path fill="url(#SVGID_1_)" d="M232.7,482.8c1.6,4.9,4.1,9,4.9,13.9c0.8,4.1-3.3,7.4-6.6,9.8c-8.2,6.6-20.5,9-30.3,10.7
		c-16.4,3.3-32.8,4.1-49.2,3.3c-11.5-0.8-22.1-1.6-32.8-3.3c-6.6-1.6-15.6-1.6-21.3-5.7c-3.3-1.6-5.7-4.1-5.7-7.4
		c0-5.7,6.6-6.6,6.6-12.3c0-13.1-6.6-20.5,5.7-30.3c8.2-6.6,17.2-12.3,27-13.9c10.7-2.5,27.9,0.8,32.8,12.3
		c1.6,3.3,2.5,10.7-1.6,12.3c-1.6,0.8-4.1-0.8-4.9,0c-4.1,3.3-0.8,9.8,4.1,9.8c9,0.8,11.5-15.6,9.8-22.1c-2.5-9-10.7-14.7-18.8-17.2
		c-5.7-1.6-11.5-2.5-17.2-4.1c-36-9-61.4-47.5-50.8-84.4c4.9-16.4,16.4-27,31.1-36s32-13.9,49.2-14.7c21.3-0.8,47.5,4.1,60.6,22.1
		c10.7,13.9,10.7,33.6,3.3,48.3c-3.3,6.6-8.2,12.3-13.9,16.4c-14.7,10.7-36.9,10.7-52.4,0.8c-12.3-7.4-19.7-22.1-17.2-35.2
		c2.5-13.9,18-24.6,31.1-20.5c-2.5,3.3,0,9,4.1,9c4.1,0,8.2-3.3,8.2-8.2c0-4.1-2.5-8.2-6.6-9.8c-4.1-1.6-8.2-2.5-12.3-1.6
		c-15.6,1.6-28.7,13.9-32.8,28.7c-4.1,14.7,2.5,32,15.6,40.1c9.8,6.6,22.9,8.2,34.4,12.3c10.7,3.3,21.3,9,30.3,15.6
		c4.9,3.3,10.7,6.6,13.9,11.5c4.1,6.6,6.6,13.9,3.3,22.1c-1.6,4.1-4.1,8.2-4.9,12.3C228.6,472.2,230.2,477.1,232.7,482.8z"/>
	
		<linearGradient id="SVGID_2_" gradientUnits="userSpaceOnUse" x1="25.3419" y1="772.7578" x2="13.7169" y2="754.1328" gradientTransform="matrix(8.1928 0 0 -8.1928 3.051758e-005 6681.4937)">
		<stop  offset="0" style="stop-color:#FFFF40"/>
		<stop  offset="7.137145e-002" style="stop-color:#FEF93D"/>
		<stop  offset="0.1672" style="stop-color:#FAE836"/>
		<stop  offset="0.2768" style="stop-color:#F4CC2A"/>
		<stop  offset="0.3959" style="stop-color:#EBA519"/>
		<stop  offset="0.4731" style="stop-color:#E5880C"/>
		<stop  offset="0.5565" style="stop-color:#E79110"/>
		<stop  offset="0.6921" style="stop-color:#ECA91B"/>
		<stop  offset="0.8618" style="stop-color:#F5D02C"/>
		<stop  offset="1" style="stop-color:#FDF53C"/>
	</linearGradient>
	<path opacity="0.5" fill="url(#SVGID_2_)" enable-background="new    " d="M232.7,482.8c1.6,4.9,4.1,9,4.9,13.9
		c0.8,4.1-3.3,7.4-6.6,9.8c-8.2,6.6-20.5,9-30.3,10.7c-16.4,3.3-32.8,4.1-49.2,3.3c-11.5-0.8-22.1-1.6-32.8-3.3
		c-6.6-1.6-15.6-1.6-21.3-5.7c-3.3-1.6-5.7-4.1-5.7-7.4c0-5.7,6.6-6.6,6.6-12.3c0-13.1-6.6-20.5,5.7-30.3c8.2-6.6,17.2-12.3,27-13.9
		c10.7-2.5,27.9,0.8,32.8,12.3c1.6,3.3,2.5,10.7-1.6,12.3c-1.6,0.8-4.1-0.8-4.9,0c-4.1,3.3-0.8,9.8,4.1,9.8
		c9,0.8,11.5-15.6,9.8-22.1c-2.5-9-10.7-14.7-18.8-17.2c-5.7-1.6-11.5-2.5-17.2-4.1c-36-9-61.4-47.5-50.8-84.4
		c4.9-16.4,16.4-27,31.1-36s32-13.9,49.2-14.7c21.3-0.8,47.5,4.1,60.6,22.1c10.7,13.9,10.7,33.6,3.3,48.3
		c-3.3,6.6-8.2,12.3-13.9,16.4c-14.7,10.7-36.9,10.7-52.4,0.8c-12.3-7.4-19.7-22.1-17.2-35.2c2.5-13.9,18-24.6,31.1-20.5
		c-2.5,3.3,0,9,4.1,9c4.1,0,8.2-3.3,8.2-8.2c0-4.1-2.5-8.2-6.6-9.8c-4.1-1.6-8.2-2.5-12.3-1.6c-15.6,1.6-28.7,13.9-32.8,28.7
		c-4.1,14.7,2.5,32,15.6,40.1c9.8,6.6,22.9,8.2,34.4,12.3c10.7,3.3,21.3,9,30.3,15.6c4.9,3.3,10.7,6.6,13.9,11.5
		c4.1,6.6,6.6,13.9,3.3,22.1c-1.6,4.1-4.1,8.2-4.9,12.3C228.6,472.2,230.2,477.1,232.7,482.8z"/>
</g>
<linearGradient id="SVGID_3_" gradientUnits="userSpaceOnUse" x1="98.4506" y1="778.5551" x2="106.739" y2="755.6909" gradientTransform="matrix(8.1928 0 0 -8.1928 3.051758e-005 6681.4937)">
	<stop  offset="0" style="stop-color:#FFFF40"/>
	<stop  offset="1" style="stop-color:#E5880C"/>
</linearGradient>
<rect x="724.2" y="273.9" fill="url(#SVGID_3_)" width="225.3" height="225.3"/>
<g>
	<g>
		<path fill="#691D4B" d="M391.9,628.2c-8.6-19.8-27.5-35.9-47.9-40.7c-3-0.7-5.9-1.8-8.9-3c-2.5-0.9-4.8-1.8-7.5-2.5
			c-9.1-2.7-19.8-4.1-30.9-4.1c-17.5,0-34.3,3.4-47.3,9.8c-10.9,5.2-18.6,15.9-21.1,29.3c-3.9,21.1,7.5,43.4,20.9,56.6
			c-1.1,0.2-2,0.5-3,0.7c-7.7,2.3-12,5.2-13.2,15c-2,14.8,4.8,30.7,17,39.1c2,1.4,5,3.2,8.6,3.6c-0.5,4.8-1.6,9.8-2.5,14.5
			c-0.5,1.8-0.7,3.4-1.1,5c-1.4,7.3-4.5,15.2-7.3,22.3c-3.2,8-5.5,13.9-5.2,18.4c0.9,21.1,42.7,22.7,55.4,22.7
			c9.5,0,56.6-1.1,57.9-21.6c0.5-7.3-0.7-14.5-3.2-21.6c-0.9-2.5-1.1-5.5-1.4-8.9c-0.2-3.6-0.7-7.7-2-11.8h0.2
			c16.1,0,28.6-7.5,34.3-20.5c0.9-2,1.6-4.3,2-6.6c3.4-15.9-4.1-33.9-16.4-44.1c3-0.7,5.7-1.6,8.4-2.5c7-2.7,12.3-8,15.2-15.2
			C397.1,652.5,396.7,639.1,391.9,628.2z M375.5,671.6c-10.5,4.1-23.4,5.5-34.1,1.4c-12-4.5-19.1-18.2-15.9-30.7
			c0.9-3.4,2.5-6.6,5.2-8.9c2.7-2,7-2.5,9.8-0.5c-1.1-5-6.6-8.4-11.6-7.3c-3.6,0.9-6.6,3.6-8.2,7c-1.6,3.4-2,7.3-2,10.9
			c0,10,2.5,19.5,4.8,29.3c-2.5,0.7-4.8-1.1-7.3-0.5c-1.8,0.5-4.5,3-5.9,4.1c-1.4,1.1-2.3,2.7-2,4.5c0.2,1.8,2.3,3,3.9,2.5
			c0.7-0.2,1.1-0.7,1.6-1.1c4.3-3.6,10-5.5,15.7-5.7c6.1-0.5,12.3-0.9,18.2,0.5c3.4,0.7,6.6,1.8,10,3c1.1,0.5,2.3,0.7,3.4,1.1
			c5.2,2.3,9.5,7.7,12.5,12.5c3.4,5.5,5.9,11.6,6.6,18c0.5,3.6,0.5,7.3-0.5,10.9c-0.5,1.8-0.9,3.6-1.6,5.2
			c-8.2,18.2-30.7,19.8-47.3,12.7c-3.2-1.4-4.3-2.3-6.4-5c-1.4-2-3.2-3.9-4.8-0.7c-0.5,1.1-0.5,2.5-0.5,3.9
			c0.7,11.8,16.8,2.3,21.8,10.2c4.5,7.3,2.5,16.6,5.2,24.5c2,6.1,3.2,12.5,2.7,19.1c-1.1,19.5-99.3,22-100.4-1.1
			c-0.2-6.6,9.3-23.4,12.5-39.1c1.8-8.9,5-20,3.4-29.1c-1.4,1.1-3.4,1.8-5.2,1.8c-2.3-0.2-4.1-1.4-5.9-2.5
			c-10.5-7.3-15.9-20.7-14.3-33.2c0.9-6.4,2.7-8,8.6-9.5c3-0.9,10.5-0.9,10.2-5.7c-0.2-1.8-1.6-3.2-3-4.3
			c-13.6-12.5-24.3-33.6-20.7-52.3c2-10.5,8-20,17.5-24.8c20.9-10,51.6-11.8,73.6-5.2c5.7,1.6,11.1,4.1,16.8,5.5
			c18.9,4.5,35.9,19.3,43.6,37C391.9,644.3,391.2,665.4,375.5,671.6z"/>
	</g>
	<path fill="#C65FA4" d="M330.8,634.1c-1.4,0.9-2.5,2-3.4,3.2c-2.7,4.1-3.4,9.3-2.3,14.3c1.8,9.5,7.5,18,16.8,21.6
		c8.2,3.2,17.3,2.7,25.7,0.9c2.7-0.7,5.5-1.4,8.2-2.5c15.7-6.1,16.4-27.3,10.5-40.9c-7.7-17.5-24.8-32.5-43.6-37
		c-5.7-1.4-11.1-3.9-16.8-5.5c-22-6.4-52.7-4.8-73.6,5.2c-9.8,4.8-15.7,14.1-17.5,24.8c-0.5,1.8-0.5,3.6-0.7,5.7
		c-0.5,9.3,2.3,18.4,6.4,26.6c2,4.1,4.5,8.2,7.5,11.8c1.4,1.8,3,3.4,4.5,5.2c0.7,0.9,1.6,1.8,2.5,2.5c1.6,1.4,2.7,2.3,0.9,4.1
		c-3.9,3.9-11.1,3.6-13.6,8.6c-0.2,0.7-0.5,1.4-0.7,2c-0.5,1.8-1.4,3.4-1.8,5.2c-1.6,12.5,4.1,25.9,14.3,33.2
		c1.8,1.1,3.9,2.3,5.9,2.5c1.8,0.2,3.9-0.7,5.2-1.8c1.6,9.1-1.6,20-3.4,29.1c-3.2,15.7-12.7,32.5-12.5,39.1
		c1.1,23.2,99.3,20.7,100.4,1.1c0.5-6.4-0.7-13-2.7-19.1c-2.7-7.7-0.7-17.3-5.2-24.5c-5-8-21.1,1.6-21.8-10.2c0-1.4-0.2-2.7,0.5-3.9
		c1.4-3.2,3.2-1.4,4.8,0.7c1.8,2.7,3,3.6,6.4,5c16.4,7,39.1,5.5,47.3-12.7c0.7-1.6,1.4-3.4,1.6-5.2c0.2-1.4,0.5-2.7,0.5-4.1
		c0.5-6.1-0.9-12.5-3.2-18.2c-1.1-3-2.7-5.7-4.5-8.2c-0.9-1.1-1.8-2.3-2.7-3.6c-0.9-1.1-1.6-2.7-2.7-3.6c-0.5-0.5-1.1-0.9-1.8-1.4
		c-3.9-2.5-7.5-4.8-11.8-5.7c-4.5-1.1-8.9-2-13.4-2c-9.1-0.2-18.2,1.8-26.1,6.1c-1.1,0.7-2.5,1.4-3.6,0.9c-2-0.5-2.5-3.2-1.4-5
		c1.1-1.8,3-2.5,5-3.2c8-2.5,16.6-2.5,25-1.4c-9.3-1.4-15.5-11.4-17-20.5c-1.4-8,0.2-18.6,7.3-23.9c0.9-0.7,1.8-1.1,2.7-1.4
		c3.6-1.1,8.2,0.9,8.6,4.5C337.1,631.4,333.7,632.3,330.8,634.1z"/>
</g>
<g>
	<g>
		<path fill="#BAE854" d="M360.9,37.9l-13.7,9.8v-2.8l11.6-8v-0.1l-11.6-8v-2.8l13.7,9.8V37.9z"/>
		<path fill="#216F8E" d="M360.9,87.1l-13.7,9.8v-2.8l11.6-8V86l-11.6-8v-2.8l13.7,9.8V87.1z"/>
		<path fill="#CB66D3" d="M360.9,136.4l-13.7,9.8v-2.8l11.6-8v-0.1l-11.6-8v-2.8l13.7,9.8V136.4z"/>
	</g>
	<text transform="matrix(1 0 0 1 369.7706 46.9379)" font-family="'LucidaConsole'" font-size="26.3854">.js</text>
	<rect x="330.7" y="11.3" fill="none" stroke="#000000" stroke-miterlimit="10" width="151" height="151"/>
	<g>
		<g>
			<line fill="none" stroke="#000000" stroke-width="5" stroke-miterlimit="10" x1="375.5" y1="86" x2="381.5" y2="86"/>
			
				<line fill="none" stroke="#000000" stroke-width="5" stroke-miterlimit="10" stroke-dasharray="11.4286,11.4286" x1="392.9" y1="86" x2="455.8" y2="86"/>
			<line fill="none" stroke="#000000" stroke-width="5" stroke-miterlimit="10" x1="461.5" y1="86" x2="467.5" y2="86"/>
		</g>
	</g>
	<g>
		<g>
			<line fill="none" stroke="#000000" stroke-width="5" stroke-miterlimit="10" x1="375.5" y1="135.3" x2="381.5" y2="135.3"/>
			
				<line fill="none" stroke="#000000" stroke-width="5" stroke-miterlimit="10" stroke-dasharray="11.4286,11.4286" x1="392.9" y1="135.3" x2="455.8" y2="135.3"/>
			<line fill="none" stroke="#000000" stroke-width="5" stroke-miterlimit="10" x1="461.5" y1="135.3" x2="467.5" y2="135.3"/>
		</g>
	</g>
</g>
<g>
	<text transform="matrix(1 0 0 1 528.6188 46.9379)" font-family="'LucidaConsole'" font-size="26.3854">.css</text>
	<rect x="489.5" y="11.3" fill="none" stroke="#000000" stroke-miterlimit="10" width="151" height="151"/>
	<text transform="matrix(1 0 0 1 525.6185 120.6591)" font-family="'LucidaConsole'" font-size="50">{ }</text>
</g>
<g>
	<text transform="matrix(1 0 0 1 188.6358 70.076)" font-family="'LucidaConsole'" font-size="50">html</text>
	<rect x="171.3" y="11.3" fill="none" stroke="#000000" stroke-miterlimit="10" width="151" height="151"/>
	<text transform="matrix(1 0 0 1 207.5 122.0334)" font-family="'LucidaConsole'" font-size="50">&lt;/&gt;</text>
</g>
<g>
	<text transform="matrix(1 0 0 1 38.922 70.0759)" font-family="'MyriadPro-Regular'" font-size="66.3557">svg</text>
	<rect x="11.2" y="11.3" fill="none" stroke="#000000" stroke-miterlimit="10" width="151" height="151"/>
	<rect x="99" y="93.2" fill="#5B8DEF" width="43.7" height="43.7"/>
	<circle fill="#EF6F6F" cx="53.1" cy="120.7" r="30.7"/>
	<polygon fill="#BEF25A" points="118.3,131.9 88.3,86.8 65.5,157.2 	"/>
</g>
<g>
	<g>
		<path fill="#BAE854" d="M147.5,213.6l-2.9,2v-0.6l2.4-1.7v0l-2.4-1.7v-0.6l2.9,2V213.6z"/>
		<path fill="#216F8E" d="M147.5,223.9l-2.9,2v-0.6l2.4-1.7v0l-2.4-1.7v-0.6l2.9,2V223.9z"/>
		<path fill="#CB66D3" d="M147.5,234.2l-2.9,2v-0.6l2.4-1.7v0l-2.4-1.7v-0.6l2.9,2V234.2z"/>
	</g>
	<g>
		<g>
			<line fill="none" stroke="#9B9B9B" stroke-width="5" stroke-miterlimit="10" x1="150.5" y1="223.7" x2="156.5" y2="223.7"/>
			<line fill="none" stroke="#9B9B9B" stroke-width="5" stroke-miterlimit="10" x1="163.7" y1="223.7" x2="169.7" y2="223.7"/>
		</g>
	</g>
	<g>
		<g>
			<line fill="none" stroke="#AFAFAF" stroke-width="5" stroke-miterlimit="10" x1="150.5" y1="234" x2="156.5" y2="234"/>
			<line fill="none" stroke="#AFAFAF" stroke-width="5" stroke-miterlimit="10" x1="163.7" y1="234" x2="169.7" y2="234"/>
		</g>
	</g>
	<polygon fill="none" stroke="#000000" stroke-miterlimit="10" points="142.4,208.1 142.4,239.7 174,239.7 174,211.4 170.7,208.1 	
		"/>
</g>
<g>
	<text transform="matrix(0.5487 0 0 1 178.9281 233.5508)" fill="#EFEFEF" font-family="'LucidaConsole'" font-size="31.1758">{ }</text>
	<polygon fill="none" stroke="#000000" stroke-miterlimit="10" points="178.9,208.1 178.9,239.7 210.5,239.7 210.5,211.4 
		207.2,208.1 	"/>
</g>
<g>
	<text transform="matrix(0.3319 0 0 1 108.8474 238.5913)" fill="#F4F4F4" font-family="'LucidaConsole'" font-size="57.4938">&lt; &gt;</text>
	<polygon fill="none" stroke="#000000" stroke-miterlimit="10" points="110.2,208.1 110.2,239.7 141.8,239.7 141.8,211.4 
		138.5,208.1 	"/>
</g>
<g>
	<rect x="94.2" y="225.2" fill="#5B8DEF" width="9.1" height="9.1"/>
	<circle fill="#EF6F6F" cx="84.6" cy="230.9" r="6.4"/>
	<polygon fill="#BEF25A" points="98.2,233.3 91.9,223.9 87.1,238.6 	"/>
</g>
<polygon fill="none" stroke="#000000" stroke-miterlimit="10" points="74.9,208.1 74.9,239.7 106.5,239.7 106.5,211.4 103.2,208.1 
	"/>
<g>
	<text transform="matrix(1 0 0 1 180.9998 223.4158)" font-family="'LucidaConsole'" font-size="15.1754">css</text>
</g>
<g>
	<text transform="matrix(1 0 0 1 149.0569 223.416)" font-family="'LucidaConsole'" font-size="15.1754">js</text>
</g>
<g>
	<text transform="matrix(1 0 0 1 110.8059 223.4158)" font-family="'LucidaConsole'" font-size="15.1754" letter-spacing="-1">html</text>
</g>
<g>
	<text transform="matrix(1 0 0 1 78.9824 223.4159)" font-family="'LucidaBright-Italic'" font-size="15.1754">svg</text>
</g>
<rect x="233" y="205.6" fill="none" stroke="#000000" stroke-miterlimit="10" width="26.8" height="26.9"/>
<rect x="223.1" y="209.5" fill="none" stroke="#000000" stroke-miterlimit="10" width="31.7" height="31.7"/>
<line fill="none" stroke="#000000" stroke-miterlimit="10" x1="233" y1="205.6" x2="223.1" y2="209.5"/>
<line fill="none" stroke="#000000" stroke-miterlimit="10" x1="254.7" y1="241.3" x2="259.8" y2="232.4"/>
<line fill="none" stroke="#000000" stroke-miterlimit="10" x1="259.8" y1="205.6" x2="254.7" y2="209.5"/>
<line fill="none" stroke="#000000" stroke-miterlimit="10" x1="233" y1="232.4" x2="223.1" y2="241.3"/>
<rect x="321.6" y="214.9" fill="none" stroke="#000000" stroke-miterlimit="10" width="26.8" height="17.5"/>
<rect x="311.7" y="218.9" fill="none" stroke="#000000" stroke-miterlimit="10" width="31.7" height="22.4"/>
<line fill="none" stroke="#000000" stroke-miterlimit="10" x1="321.6" y1="214.9" x2="311.7" y2="218.9"/>
<line fill="none" stroke="#000000" stroke-miterlimit="10" x1="343.4" y1="241.3" x2="348.4" y2="232.4"/>
<line fill="none" stroke="#000000" stroke-miterlimit="10" x1="348.4" y1="214.9" x2="343.4" y2="218.9"/>
<line fill="none" stroke="#000000" stroke-miterlimit="10" x1="321.6" y1="232.4" x2="311.7" y2="241.3"/>
<path fill="#EA1557" d="M302.1,171.8"/>
<path fill="#EA1557" d="M284.3,208.6"/>
<g>
	<polygon fill="#7E99C1" points="279.1,241.3 286.1,234.3 286.5,223.8 279.7,230.6 	"/>
	<path fill="#7E99C1" d="M286.1,234.3"/>
	<polyline fill="#9B751F" points="286.1,234.3 294.9,225.5 292.7,217.6 286.5,223.8 	"/>
	<polygon fill="#5F838E" points="279.1,241.3 279.7,230.6 268,218.9 264.6,226.8 	"/>
	<polygon fill="#C738E5" points="274.8,212 268,218.9 264.6,226.8 271.6,219.8 	"/>
	<path fill="#EA1557" d="M289.6,220.2"/>
	<path fill="#EA1557" d="M268,218.9"/>
	<polygon fill="#6789CE" points="274.8,212 279.7,216.9 278.8,227 271.6,219.7 	"/>
	<polygon fill="#C48516" points="287.4,218.2 294.9,225.5 292.7,217.6 285.9,210.7 	"/>
	<polygon fill="#91AFE5" points="264.6,226.8 271.6,219.8 274.8,212 268,218.9 	"/>
	<polyline fill="#D3AA46" points="286.5,223.8 279.7,216.9 278.8,227 286.1,234.3 286.5,223.8 	"/>
	<polygon fill="#E09B4F" points="287.4,218.2 285.9,210.7 279.7,216.9 278.8,227 	"/>
</g>
<g>
	<rect x="38.4" y="208" fill="none" stroke="#293A3F" stroke-linecap="round" stroke-miterlimit="10" width="29.4" height="29.4"/>
	<g>
		<polygon fill="#EAC039" points="62.6,226.6 56.9,224.4 61.7,211.7 67.3,213.9 		"/>
		
			<rect x="41.9" y="229" transform="matrix(0.9386 -0.345 0.345 0.9386 -77.2317 29.658)" fill="#EAC039" width="5.5" height="5.5"/>
		
			<rect x="49" y="227.6" transform="matrix(0.9999 -1.712001e-002 1.712001e-002 0.9999 -3.9364 0.9204)" fill="#EAC039" width="5.5" height="5.5"/>
		
			<rect x="56.7" y="228.6" transform="matrix(0.9366 0.3504 -0.3504 0.9366 84.8663 -6.1665)" fill="#EAC039" width="5.5" height="5.5"/>
		
			<text transform="matrix(0.9939 -0.11 0.11 0.9939 41.1388 225.4274)" fill="#D35446" font-family="'LucidaFax-Demi'" font-size="17.5101" letter-spacing="-1">M</text>
	</g>
</g>
<g>
	<rect x="278.3" y="260.6" fill="#F4F4F4" width="18.8" height="18.8"/>
	
		<text transform="matrix(1 0 0 1 275.1169 279.8279)" fill="#BF6F17" font-family="'LucidaFax-Demi'" font-size="27.588" letter-spacing="-2">M</text>
</g>
<g>
	<rect x="276.7" y="283.4" fill="#F4F4F4" width="20.3" height="20.3"/>
	<g>
		
			<text transform="matrix(1.3305 0 0 1 275.8773 305.6305)" fill="#2F467F" font-family="'FreestyleScript-Regular'" font-size="34.9079" letter-spacing="-3">S</text>
	</g>
</g>
<g>
	<rect x="277.7" y="310.6" fill="#F4F4F4" width="20.3" height="20.3"/>
	
		<text transform="matrix(1 0 0 1 276.4307 331.9114)" fill="#D85B05" font-family="'FrenchScriptMT'" font-size="34.9079" letter-spacing="-3">L</text>
</g>
<g>
	<rect x="277" y="336.8" fill="#F4F4F4" width="20.3" height="20.3"/>
	
		<text transform="matrix(1 0 0 1 275.2153 358.4196)" fill="#4A6D35" font-family="'BodoniMT'" font-size="34.7027" letter-spacing="-3">G</text>
</g>
<polygon fill="#FFFFFF" stroke="#231F20" stroke-miterlimit="10" points="-721.3,173.9 -721.3,-76.1 -647.7,-114.4 -647.7,75.1 
	-481.3,88.9 -481.3,298.9 "/>
<polygon fill="#FFFFFF" stroke="#231F20" stroke-miterlimit="10" points="-628.5,-207.1 -628.5,-26.1 -481.3,-59.1 -481.3,-324.1 
	"/>
<polygon fill="#FFFFFF" stroke="#231F20" stroke-miterlimit="10" points="-241.3,173.9 -241.3,-76.1 -315,-114.4 -315,75.1 
	-481.3,88.9 -481.3,298.9 "/>
<polygon fill="#FFFFFF" stroke="#231F20" stroke-miterlimit="10" points="-334.2,-205.1 -334.2,-26.1 -481.3,-59.1 -481.3,-324.1 
	"/>
<line fill="#FFFFFF" stroke="#231F20" stroke-miterlimit="10" x1="-481.9" y1="-7" x2="-628.5" y2="-26.1"/>
<line fill="#FFFFFF" stroke="#231F20" stroke-miterlimit="10" x1="-481.9" y1="-7" x2="-334.2" y2="-26.1"/>
<line fill="#FFFFFF" stroke="#231F20" stroke-miterlimit="10" x1="-315" y1="-114.4" x2="-481.3" y2="-69.3"/>
<line fill="#FFFFFF" stroke="#231F20" stroke-miterlimit="10" x1="-647.7" y1="-114.4" x2="-481.3" y2="-69.3"/>
<line fill="#FFFFFF" stroke="#231F20" stroke-miterlimit="10" x1="-481.9" y1="-7" x2="-481.9" y2="68.6"/>
<line fill="#FFFFFF" stroke="#231F20" stroke-miterlimit="10" x1="-481.9" y1="68.6" x2="-315" y2="75.1"/>
<line fill="#FFFFFF" stroke="#231F20" stroke-miterlimit="10" x1="-481.9" y1="68.6" x2="-647.7" y2="75.1"/>
<path fill="#FFFFFF" stroke="#231F20" stroke-miterlimit="10" d="M-207.3-220.7"/>
<g>
	
		<rect x="359.8" y="207.8" fill="none" stroke="#293A3F" stroke-linecap="round" stroke-miterlimit="10" width="31.3" height="31.3"/>
	<polygon fill="#999595" points="368.3,218.3 368.3,226.6 375.5,226.3 375.5,220.3 	"/>
	<polygon fill="#B4B8C1" points="375.5,220.3 382.8,218.3 382.8,226.6 375.5,226.3 	"/>
	<polygon fill="#E6E8E6" points="382.8,226.6 375.5,226.3 368.3,226.6 375.5,227.2 	"/>
	<polyline fill="#B5A9A1" points="382.8,218.3 386,220 386,230.9 375.5,236.3 375.5,227.2 382.8,226.6 	"/>
	<polygon fill="#DBD5D1" points="375.5,236.3 375.5,227.2 368.3,226.6 368.3,218.3 365.1,220 365.1,230.9 	"/>
	<polygon fill="#C44220" points="375.5,210.4 375.5,219.9 380.8,221.1 380.8,214.7 	"/>
	<polygon fill="#2950A5" points="375.5,210.4 370.2,214.6 370.2,221.1 375.5,219.9 	"/>
	<polygon fill="#2D8723" points="370.2,221.1 375.5,219.9 380.8,221.1 375.5,221.8 	"/>
</g>
<g id="Style">
	<rect x="421.4" y="305.7" fill="#29BC19" width="13.5" height="13.5"/>
	
		<text transform="matrix(1 0 0 1 424.7298 316.5844)" fill="#E2E2E2" font-family="'FranklinGothic-Demi'" font-size="12.7639" letter-spacing="-1">S</text>
</g>
<rect x="436.6" y="321" fill="#29BC19" width="13.5" height="13.5"/>
<text transform="matrix(1 0 0 1 439.9142 331.9173)" fill="#E2E2E2" font-family="'FranklinGothic-Book'" font-size="12.7639" letter-spacing="-1">S</text>
<g id="Layout">
	<rect x="436.6" y="321" fill="#D6AE05" width="13.5" height="13.5"/>
	
		<text transform="matrix(1 0 0 1 439.9142 331.9173)" fill="#E2E2E2" font-family="'FranklinGothic-Demi'" font-size="12.7639" letter-spacing="-1">L</text>
</g>
<g id="Module">
	<g>
		<rect x="451.8" y="336.5" fill="#1A6EBA" width="13.5" height="13.5"/>
		<g>
			
				<text transform="matrix(1 0 0 1 452.9305 347.3935)" fill="#E2E2E2" font-family="'FranklinGothic-Demi'" font-size="12.7639" letter-spacing="-1">M</text>
		</g>
	</g>
</g>
<g>
	<rect x="388.6" y="373.8" fill="none" stroke="#1A6EBA" stroke-miterlimit="10" width="13.5" height="13.5"/>
	<g>
		
			<text transform="matrix(1 0 0 1 389.7253 384.6797)" fill="#1A6EBA" font-family="'FranklinGothic-Demi'" font-size="12.7639" letter-spacing="-1">M</text>
	</g>
</g>
<g id="Type">
	<rect x="466.1" y="351.7" fill="#BC29C1" width="13.5" height="13.5"/>
	
		<text transform="matrix(1 0 0 1 469.8492 362.5829)" fill="#E2E2E2" font-family="'FranklinGothic-Demi'" font-size="12.7639" letter-spacing="-1">T</text>
</g>
<g id="Graphic_1_">
	<rect id="Graphic" x="451.8" y="367" fill="#BA3C1A" width="13.5" height="13.5"/>
	
		<text transform="matrix(1 0 0 1 454.5237 377.9158)" fill="#E2E2E2" font-family="'FranklinGothic-Demi'" font-size="12.7639" letter-spacing="-1">G</text>
</g>
<text transform="matrix(1 0 0 1 441.2345 316.5845)" font-family="'LucidaConsole'" font-size="13.9779">name</text>
<text transform="matrix(1 0 0 1 470.1059 347.3937)" fill="#0E4BE5" font-family="'LucidaConsole'" font-size="13">name</text>
<text transform="matrix(1 0 0 1 471.1417 377.2055)" font-family="'LucidaConsole'" font-size="13.9779">name</text>
<polygon fill="none" points="436.6,336.3 421.4,336.3 421.4,319.2 429,319.2 436.6,319.2 "/>
<polyline fill="none" stroke="#595959" stroke-width="2" stroke-miterlimit="10" points="436.6,327.8 429,327.8 429,319.2 "/>
<rect x="436.6" y="380.5" fill="none" width="92.3" height="17.1"/>
<g id="Attribute_1_">
	<rect id="Attribute" x="451.8" y="382.3" fill="#5A6A6D" width="13.5" height="13.5"/>
	
		<text transform="matrix(1 0 0 1 454.5237 393.2487)" fill="#E2E2E2" font-family="'FranklinGothic-Demi'" font-size="12.7639" letter-spacing="-1">A</text>
</g>
<text transform="matrix(1 0 0 1 471.1417 392.5384)" font-family="'LucidaConsole'" font-size="13.9779">name</text>
<rect x="436.6" y="395.8" fill="none" width="92.3" height="17.1"/>
<g id="Object">
	<rect x="451.8" y="397.7" fill="#564744" width="13.5" height="13.5"/>
	
		<text transform="matrix(1 0 0 1 454.5237 408.5815)" fill="#E2E2E2" font-family="'FranklinGothic-Demi'" font-size="12.7639" letter-spacing="-1">O</text>
</g>
<text transform="matrix(1 0 0 1 471.1417 407.8712)" font-family="'LucidaConsole'" font-size="13.9779">name</text>
<g id="tip_1_">
	<rect x="451" y="349.9" fill="none" width="15.2" height="17.1"/>
	<g>
		<polygon fill="#595959" points="466.1,359.1 458,359.1 458,349.9 459.1,349.9 459.1,358 466.1,358 		"/>
	</g>
</g>
<g id="branch1">
	<rect x="436.6" y="334.5" fill="none" width="15.2" height="17.1"/>
	<polygon fill="#595959" points="451.8,342.6 444.8,342.6 444.8,334.6 443.6,334.6 443.6,349.9 444.8,349.9 444.8,343.7 
		451.8,343.7 	"/>
</g>
<g id="branch1_2_">
	<rect x="436.6" y="380.5" fill="none" width="15.2" height="17.1"/>
	<polygon fill="#595959" points="451.8,388.6 444.8,388.6 444.8,380.6 443.6,380.6 443.6,395.8 444.8,395.8 444.8,389.7 
		451.8,389.7 	"/>
</g>
<g id="branch1_3_">
	<rect x="436.6" y="365.2" fill="none" width="15.2" height="17.1"/>
	<polygon fill="#595959" points="451.8,373.2 444.8,373.2 444.8,365.2 443.6,365.2 443.6,380.5 444.8,380.5 444.8,374.4 
		451.8,374.4 	"/>
</g>
<g id="branch2">
	<rect x="436.6" y="349.9" fill="none" width="15.2" height="17.1"/>
	<rect x="443.6" y="349.9" fill="#595959" width="1.1" height="15.3"/>
</g>
<g id="tip">
	<rect x="436.6" y="395.8" fill="none" width="15.2" height="17.1"/>
	<g>
		<polygon fill="#595959" points="451.8,405.1 443.6,405.1 443.6,395.8 444.8,395.8 444.8,404 451.8,404 		"/>
	</g>
</g>
<rect x="309.8" y="423.4" fill="none" stroke="#C1C1C1" stroke-miterlimit="10" stroke-dasharray="3" width="92.3" height="17.1"/>
</svg>
