<?xml version="1.0" encoding="utf-8"?>
<!-- Generator: Adobe Illustrator 18.0.0, SVG Export Plug-In . SVG Version: 6.00 Build 0)  -->
<!DOCTYPE svg PUBLIC "-//W3C//DTD SVG 1.1//EN" "http://www.w3.org/Graphics/SVG/1.1/DTD/svg11.dtd">
<svg version="1.1" id="Layer_1" xmlns="http://www.w3.org/2000/svg" xmlns:xlink="http://www.w3.org/1999/xlink" x="0px" y="0px"
	 viewBox="0 0 74.7 49.6" enable-background="new 0 0 74.7 49.6" xml:space="preserve">
<g id="FluffyLogo" display="none">
	<path display="inline" fill="#512548" d="M53.3,41.1c-2,0-6.7-0.3-6.8-2.9c0-0.6,0.3-1.3,0.6-2.3c0.3-0.8,0.7-1.7,0.9-2.6
		c0-0.2,0.1-0.4,0.1-0.6c0.1-0.5,0.2-1,0.3-1.5c-0.4-0.1-0.7-0.3-0.9-0.4c-1.5-1-2.4-3-2.1-4.9c0-0.3,0.1-0.5,0.2-0.6
		c0-0.1,0-0.1,0.1-0.2c0-0.1,0.1-0.3,0.2-0.4c0.2-0.4,0.6-0.8,1.1-1c-0.1-0.1-0.2-0.3-0.3-0.4c-0.4-0.5-0.7-1-1-1.6
		c-0.6-1.2-0.9-2.5-0.9-3.6c0-0.3,0-0.5,0.1-0.8c0.3-1.7,1.3-3,2.6-3.6l0.2-0.1c2-0.9,4.4-1.4,6.7-1.4c5,0,9,2.2,10.6,5.9
		c0.7,1.6,0.4,4.1-0.5,5.5c-0.4,0.6-1,1-1.7,1.3c0.1,0.1,0.3,0.2,0.4,0.4c1.2,1.4,0.6,4.4,0.6,4.4c-0.3,1.4-0.8,2.8-2.7,3.7
		c-0.4,0.2-0.9,0.3-1.3,0.4c0.1,0.4,0.1,0.8,0.1,1.1c0,0.4,0,0.7,0.1,0.9l0,0.1l0,0.1c0.3,0.9,0.4,1.8,0.4,2.6
		C60.2,40.9,54.4,41.1,53.3,41.1z"/>
	<path display="inline" fill="#CE3CAF" d="M57.3,19.4c-0.5,0-0.7,1-0.6,1.3c0,0.6,0.3,1.5,0.7,2c0.7,0.8,1.1,0.4,2.4,0.6
		c1.1,0.2,3.3,0.5,3.9-0.4c0.8-1.1,1-3.3,0.4-4.6c-2.6-5.9-10.9-6.4-16-4c-0.1,0-0.1,0.1-0.2,0.1c-1.2,0.6-1.9,1.7-2.1,2.9
		c0,0.2-0.1,0.4-0.1,0.7c0,1.1,0.3,2.2,0.8,3.2c0.2,0.5,0.5,1,0.9,1.4c0.2,0.2,0.3,0.4,0.5,0.6c0.1,0.1,0.2,0.2,0.3,0.3
		c0.2,0.2,0.6,1.3,0.4,1.1c-0.5-0.5-1.6-0.2-1.9,0.4c0,0.1-0.1,0.2-0.1,0.2c-0.1,0.2-0.2,0.4-0.2,0.6c-0.2,1.5,0.5,3.1,1.7,3.9
		c0.2,0.1,0.5,0.3,0.7,0.3c0.2,0,0.5-0.1,0.6-0.2c0.2,1.1-0.2,2.4-0.4,3.5c-0.4,1.9-1.5,3.9-1.5,4.6c0.1,2.8,11.8,2.5,12,0.1
		c0-0.8-0.1-1.5-0.3-2.3c-0.4-0.7-0.1-0.9-0.4-1.7c-0.1-0.3-0.3-0.9-0.7-1c-0.6-0.1-0.7-0.1-1.4-0.2c-0.7-0.1-1.9-0.7-2-1.5
		c-0.1-0.6,0.3-0.9,0.8-0.7c0.5,0.2,0.4,0.6,0.8,0.9c0.4,0.3,0.7,0.5,1.2,0.6c0.9,0.2,2.3,0.2,3.2-0.2c1.4-0.7,1.9-1.6,2.1-3
		c0.1-0.8,0.2-1.6,0-2.3c-0.4-1.1-1.5-2.1-2.6-2.4c-0.9-0.3-2.3-0.5-3.3-0.2c-0.3,0.1-1.2,0.2-1.3,0.5c-0.1,0.1,0.5,0.5,0.4,0.6
		c-0.3,0.7-1.7,0.1-1.7-0.5c0-0.4,0.2-0.8,0.5-1.1c0.2-0.1,0.4-0.2,0.6-0.3c0.2-0.1,0.4,0,0.7-0.1c0.3-0.1,0.2-0.4,0.2-0.7
		c-0.1-0.3-0.2-0.6-0.3-0.9c0-0.2-0.1-0.5-0.1-0.7c-0.2-1.1,0.1-2.2,1.1-2.8c0.3-0.2,0.6-0.3,0.9-0.3c0.4,0,0.7,0.4,0.9,0.6
		c0.3,0.4,0.1,1-0.4,1.1c-0.3,0.1-0.4-0.1-0.6-0.3C57.5,19.4,57.4,19.4,57.3,19.4z"/>
</g>
<g id="SquishyLogo">
	<path fill="#77300C" d="M19.8,41c-0.4,0-0.9,0-1.3,0c-1.5-0.1-2.9-0.2-4.2-0.4c-0.2,0-0.3-0.1-0.5-0.1c-0.8-0.1-1.7-0.3-2.4-0.7
		C11,39.5,10.2,39,10.2,38c0-0.8,0.5-1.3,0.7-1.5c0,0,0.1-0.1,0.1-0.1c0-0.3-0.1-0.6-0.1-0.9c-0.2-1-0.4-2.2,1.2-3.5
		c0.9-0.7,1.8-1.3,2.7-1.6c-1.8-0.8-3.4-2.2-4.4-4c-1.3-2.2-1.6-4.7-1-7c0.7-2.5,2.6-4,4.2-5c1.9-1.2,4.1-1.9,6.5-1.9
		c0.2,0,0.4,0,0.6,0c3.4,0,6.2,1.1,7.6,3.1c1.4,1.9,1.6,4.6,0.5,6.9c-0.5,0.9-1.2,1.8-2,2.3c-0.6,0.4-1.2,0.7-1.8,0.9
		c0.7,0.4,1.4,0.8,2.1,1.3c0.1,0.1,0.2,0.2,0.4,0.3c0.6,0.4,1.2,0.8,1.6,1.4c1,1.5,0.8,2.7,0.5,3.5c-0.1,0.2-0.2,0.4-0.2,0.6
		c-0.1,0.3-0.2,0.5-0.3,0.8c-0.1,0.4,0.1,0.9,0.3,1.4c0,0.1,0.1,0.2,0.1,0.3c0.2,0.5,0.4,1,0.6,1.5c0.2,1.2-0.8,2-1.1,2.2
		c-1.2,0.9-2.8,1.2-4.1,1.5C23.2,40.9,21.5,41,19.8,41z"/>
	<linearGradient id="SVGID_1_" gradientUnits="userSpaceOnUse" x1="19.6165" y1="14.6637" x2="19.5332" y2="38.5804">
		<stop  offset="0.3065" style="stop-color:#F5CF2B"/>
		<stop  offset="0.5771" style="stop-color:#FCF23A"/>
		<stop  offset="0.672" style="stop-color:#FFFF40"/>
		<stop  offset="0.7576" style="stop-color:#FEFC3F"/>
		<stop  offset="0.8112" style="stop-color:#FDF43B"/>
		<stop  offset="0.8559" style="stop-color:#F9E535"/>
		<stop  offset="0.8959" style="stop-color:#F5D12C"/>
		<stop  offset="0.9326" style="stop-color:#EFB620"/>
		<stop  offset="0.9665" style="stop-color:#E89512"/>
		<stop  offset="0.9785" style="stop-color:#E5880C"/>
	</linearGradient>
	<path fill="url(#SVGID_1_)" d="M28.4,35.4c0.2,0.6,0.5,1.1,0.6,1.7c0.1,0.5-0.4,0.9-0.8,1.2c-1,0.8-2.5,1.1-3.7,1.3
		c-2,0.4-4,0.5-6,0.4c-1.4-0.1-2.7-0.2-4-0.4c-0.8-0.2-1.9-0.2-2.6-0.7c-0.4-0.2-0.7-0.5-0.7-0.9c0-0.7,0.8-0.8,0.8-1.5
		c0-1.6-0.8-2.5,0.7-3.7c1-0.8,2.1-1.5,3.3-1.7c1.3-0.3,3.4,0.1,4,1.5c0.2,0.4,0.3,1.3-0.2,1.5c-0.2,0.1-0.5-0.1-0.6,0
		c-0.5,0.4-0.1,1.2,0.5,1.2c1.1,0.1,1.4-1.9,1.2-2.7c-0.3-1.1-1.3-1.8-2.3-2.1c-0.7-0.2-1.4-0.3-2.1-0.5c-4.4-1.1-7.5-5.8-6.2-10.3
		c0.6-2,2-3.3,3.8-4.4c1.8-1.1,3.9-1.7,6-1.8c2.6-0.1,5.8,0.5,7.4,2.7c1.3,1.7,1.3,4.1,0.4,5.9c-0.4,0.8-1,1.5-1.7,2
		c-1.8,1.3-4.5,1.3-6.4,0.1c-1.5-0.9-2.4-2.7-2.1-4.3c0.3-1.7,2.2-3,3.8-2.5c-0.3,0.4,0,1.1,0.5,1.1c0.5,0,1-0.4,1-1
		c0-0.5-0.3-1-0.8-1.2c-0.5-0.2-1-0.3-1.5-0.2c-1.9,0.2-3.5,1.7-4,3.5c-0.5,1.8,0.3,3.9,1.9,4.9c1.2,0.8,2.8,1,4.2,1.5
		c1.3,0.4,2.6,1.1,3.7,1.9c0.6,0.4,1.3,0.8,1.7,1.4c0.5,0.8,0.8,1.7,0.4,2.7c-0.2,0.5-0.5,1-0.6,1.5C27.9,34.1,28.1,34.7,28.4,35.4z
		"/>
	<linearGradient id="SVGID_2_" gradientUnits="userSpaceOnUse" x1="25.3777" y1="19.2646" x2="13.7527" y2="37.8896">
		<stop  offset="0" style="stop-color:#FFFF40"/>
		<stop  offset="7.137145e-002" style="stop-color:#FEF93D"/>
		<stop  offset="0.1672" style="stop-color:#FAE836"/>
		<stop  offset="0.2768" style="stop-color:#F4CC2A"/>
		<stop  offset="0.3959" style="stop-color:#EBA519"/>
		<stop  offset="0.4731" style="stop-color:#E5880C"/>
		<stop  offset="0.5565" style="stop-color:#E79110"/>
		<stop  offset="0.6921" style="stop-color:#ECA91B"/>
		<stop  offset="0.8618" style="stop-color:#F5D02C"/>
		<stop  offset="1" style="stop-color:#FDF53C"/>
	</linearGradient>
	<path opacity="0.5" fill="url(#SVGID_2_)" d="M28.4,35.4c0.2,0.6,0.5,1.1,0.6,1.7c0.1,0.5-0.4,0.9-0.8,1.2c-1,0.8-2.5,1.1-3.7,1.3
		c-2,0.4-4,0.5-6,0.4c-1.4-0.1-2.7-0.2-4-0.4c-0.8-0.2-1.9-0.2-2.6-0.7c-0.4-0.2-0.7-0.5-0.7-0.9c0-0.7,0.8-0.8,0.8-1.5
		c0-1.6-0.8-2.5,0.7-3.7c1-0.8,2.1-1.5,3.3-1.7c1.3-0.3,3.4,0.1,4,1.5c0.2,0.4,0.3,1.3-0.2,1.5c-0.2,0.1-0.5-0.1-0.6,0
		c-0.5,0.4-0.1,1.2,0.5,1.2c1.1,0.1,1.4-1.9,1.2-2.7c-0.3-1.1-1.3-1.8-2.3-2.1c-0.7-0.2-1.4-0.3-2.1-0.5c-4.4-1.1-7.5-5.8-6.2-10.3
		c0.6-2,2-3.3,3.8-4.4c1.8-1.1,3.9-1.7,6-1.8c2.6-0.1,5.8,0.5,7.4,2.7c1.3,1.7,1.3,4.1,0.4,5.9c-0.4,0.8-1,1.5-1.7,2
		c-1.8,1.3-4.5,1.3-6.4,0.1c-1.5-0.9-2.4-2.7-2.1-4.3c0.3-1.7,2.2-3,3.8-2.5c-0.3,0.4,0,1.1,0.5,1.1c0.5,0,1-0.4,1-1
		c0-0.5-0.3-1-0.8-1.2c-0.5-0.2-1-0.3-1.5-0.2c-1.9,0.2-3.5,1.7-4,3.5c-0.5,1.8,0.3,3.9,1.9,4.9c1.2,0.8,2.8,1,4.2,1.5
		c1.3,0.4,2.6,1.1,3.7,1.9c0.6,0.4,1.3,0.8,1.7,1.4c0.5,0.8,0.8,1.7,0.4,2.7c-0.2,0.5-0.5,1-0.6,1.5C27.9,34.1,28.1,34.7,28.4,35.4z
		"/>
</g>
<linearGradient id="SVGID_3_" gradientUnits="userSpaceOnUse" x1="98.4558" y1="13.4431" x2="106.7441" y2="36.3072">
	<stop  offset="0" style="stop-color:#FFFF40"/>
	<stop  offset="1" style="stop-color:#E5880C"/>
</linearGradient>
<rect x="88.4" y="9.9" fill="url(#SVGID_3_)" width="27.5" height="27.5"/>
</svg>
