<?xml version="1.0" encoding="utf-8"?>
<!-- Generator: Adobe Illustrator 18.0.0, SVG Export Plug-In . SVG Version: 6.00 Build 0)  -->
<!DOCTYPE svg PUBLIC "-//W3C//DTD SVG 1.1//EN" "http://www.w3.org/Graphics/SVG/1.1/DTD/svg11.dtd">
<svg version="1.1" id="Layer_1" xmlns="http://www.w3.org/2000/svg" xmlns:xlink="http://www.w3.org/1999/xlink" x="0px" y="0px"
	 viewBox="0 0 612 792" enable-background="new 0 0 612 792" xml:space="preserve">
<g>
	<g>
		<path fill="#691D4B" d="M536.8,209.3c-23.6-54.1-75.2-98.2-131.1-111.2c-8.1-1.9-16.2-5-24.2-8.1c-6.8-2.5-13-5-20.5-6.8
			C336.1,75.7,306.9,72,276.5,72c-47.8,0-93.8,9.3-129.2,26.7c-29.8,14.3-50.9,43.5-57.8,80.2c-10.6,57.8,20.5,118.7,57.2,154.7
			c-3.1,0.6-5.6,1.2-8.1,1.9c-21.1,6.2-32.9,14.3-36,41c-5.6,40.4,13,83.9,46.6,106.9c5.6,3.7,13.7,8.7,23.6,9.9
			c-1.2,13-4.3,26.7-6.8,39.8c-1.2,5-1.9,9.3-3.1,13.7c-3.7,19.9-12.4,41.6-19.9,60.9c-8.7,21.7-14.9,37.9-14.3,50.3
			c2.5,57.8,116.8,62.1,151.6,62.1c26.1,0,154.7-3.1,158.4-59c1.2-19.9-1.9-39.8-8.7-59c-2.5-6.8-3.1-14.9-3.7-24.2
			c-0.6-9.9-1.9-21.1-5.6-32.3h0.6c44.1,0,78.3-20.5,93.8-55.9c2.5-5.6,4.3-11.8,5.6-18c9.3-43.5-11.2-92.6-44.7-120.5
			c8.1-1.9,15.5-4.3,23-6.8c19.3-7.5,33.6-21.7,41.6-41.6C551.1,275.8,549.9,239.1,536.8,209.3z M492.1,328
			c-28.6,11.2-64,14.9-93.2,3.7c-32.9-12.4-52.2-49.7-43.5-83.9c2.5-9.3,6.8-18,14.3-24.2c7.5-5.6,19.3-6.8,26.7-1.2
			c-3.1-13.7-18-23-31.7-19.9c-9.9,2.5-18,9.9-22.4,19.3s-5.6,19.9-5.6,29.8c0,27.3,6.8,53.4,13,80.2c-6.8,1.9-13-3.1-19.9-1.2
			c-5,1.2-12.4,8.1-16.2,11.2s-6.2,7.5-5.6,12.4s6.2,8.1,10.6,6.8c1.9-0.6,3.1-1.9,4.3-3.1c11.8-9.9,27.3-14.9,42.9-15.5
			c16.8-1.2,33.6-2.5,49.7,1.2c9.3,1.9,18,5,27.3,8.1c3.1,1.2,6.2,1.9,9.3,3.1c14.3,6.2,26.1,21.1,34.2,34.2
			c9.3,14.9,16.2,31.7,18,49.1c1.2,9.9,1.2,19.9-1.2,29.8c-1.2,5-2.5,9.9-4.3,14.3c-22.4,49.7-83.9,54.1-129.2,34.8
			c-8.7-3.7-11.8-6.2-17.4-13.7c-3.7-5.6-8.7-10.6-13-1.9c-1.2,3.1-1.2,6.8-1.2,10.6c1.9,32.3,46,6.2,59.6,28
			c12.4,19.9,6.8,45.4,14.3,67.1c5.6,16.8,8.7,34.2,7.5,52.2c-3.1,53.4-271.5,60.3-274.6-3.1c-0.6-18,25.5-64,34.2-106.9
			c5-24.2,13.7-54.7,9.3-79.5c-3.7,3.1-9.3,5-14.3,5c-6.2-0.6-11.2-3.7-16.2-6.8c-28.6-19.9-43.5-56.5-39.1-90.7
			c2.5-17.4,7.5-21.7,23.6-26.1c8.1-2.5,28.6-2.5,28-15.5c-0.6-5-4.3-8.7-8.1-11.8c-37.3-34.2-66.5-92-56.5-142.9
			c5.6-28.6,21.7-54.7,47.8-67.7c57.2-27.3,141-32.3,201.3-14.3c15.5,4.3,30.4,11.2,46,14.9c51.6,12.4,98.2,52.8,119.3,101.3
			C536.8,253.4,535,311.2,492.1,328z"/>
	</g>
	<path fill="#C65FA4" d="M369.7,225.4c-3.7,2.5-6.8,5.6-9.3,8.7c-7.5,11.2-9.3,25.5-6.2,39.1c5,26.1,20.5,49.1,46,59
		c22.4,8.7,47.2,7.5,70.2,2.5c7.5-1.9,14.9-3.7,22.4-6.8c42.9-16.8,44.7-74.6,28.6-111.8c-21.1-47.8-67.7-88.8-119.3-101.3
		c-15.5-3.7-30.4-10.6-46-14.9c-60.3-17.4-144.1-13-201.3,14.3c-26.7,13-42.9,38.5-47.8,67.7c-1.2,5-1.2,9.9-1.9,15.5
		c-1.2,25.5,6.2,50.3,17.4,72.7c5.6,11.2,12.4,22.4,20.5,32.3c3.7,5,8.1,9.3,12.4,14.3c1.9,2.5,4.3,5,6.8,6.8
		c4.3,3.7,7.5,6.2,2.5,11.2c-10.6,10.6-30.4,9.9-37.3,23.6c-0.6,1.9-1.2,3.7-1.9,5.6c-1.2,5-3.7,9.3-5,14.3
		c-4.3,34.2,11.2,70.8,39.1,90.7c5,3.1,10.6,6.2,16.2,6.8c5,0.6,10.6-1.9,14.3-5c4.3,24.9-4.3,54.7-9.3,79.5
		c-8.7,42.9-34.8,88.8-34.2,106.9c3.1,63.4,271.5,56.5,274.6,3.1c1.2-17.4-1.9-35.4-7.5-52.2c-7.5-21.1-1.9-47.2-14.3-67.1
		c-13.7-21.7-57.8,4.3-59.6-28c0-3.7-0.6-7.5,1.2-10.6c3.7-8.7,8.7-3.7,13,1.9c5,7.5,8.1,9.9,17.4,13.7
		c44.7,19.3,106.9,14.9,129.2-34.8c1.9-4.3,3.7-9.3,4.3-14.3c0.6-3.7,1.2-7.5,1.2-11.2c1.2-16.8-2.5-34.2-8.7-49.7
		c-3.1-8.1-7.5-15.5-12.4-22.4c-2.5-3.1-5-6.2-7.5-9.9c-2.5-3.1-4.3-7.5-7.5-9.9c-1.2-1.2-3.1-2.5-5-3.7
		c-10.6-6.8-20.5-13-32.3-15.5c-12.4-3.1-24.2-5.6-36.7-5.6c-24.9-0.6-49.7,5-71.5,16.8c-3.1,1.9-6.8,3.7-9.9,2.5
		c-5.6-1.2-6.8-8.7-3.7-13.7s8.1-6.8,13.7-8.7c21.7-6.8,45.4-6.8,68.3-3.7c-25.5-3.7-42.2-31.1-46.6-55.9
		c-3.7-21.7,0.6-50.9,19.9-65.2c2.5-1.9,5-3.1,7.5-3.7c9.9-3.1,22.4,2.5,23.6,12.4C387.1,218,377.8,220.5,369.7,225.4z"/>
</g>
<g>
	<path fill="#FCB138" d="M-234.9,581.5c-12.4,112.5-202.6,121.8-285.8,118.7c-97.5-3.7-163.4-21.7-182-54.1
		c-34.8-60.9,67.7-139.8,124.9-152.8c30.4-6.8,78.3,1.9,92.6,34.2c3.7,8.7,6.2,29.2-4.3,34.2c-4.3,1.9-10.6-3.1-14.3,0
		c-11.8,8.7-1.9,28,10.6,28.6c26.1,1.9,31.7-44.1,26.7-61.5c-6.8-24.2-29.2-41.6-52.8-48.5c-15.5-4.3-31.7-6.8-47.8-10.6
		c-101.3-24.9-170.9-134.2-142.3-236.7c13-46.6,46.6-76.4,86.4-101.9c41-26.1,88.8-39.1,137.3-41c60.3-2.5,132.3,10.6,170.9,62.1
		c29.2,39.1,29.8,93.2,8.7,135.4c-9.3,18-22.4,34.2-39.1,46c-42.2,30.4-104.4,29.2-147.9,1.9c-33.6-20.5-55.9-60.9-47.8-99.4
		c7.5-38.5,50.3-68.3,87.6-56.5c-7.5,9.3,0.6,24.9,12.4,25.5c11.8,1.2,21.7-9.9,22.4-21.7c0.6-11.8-8.1-22.4-18-28
		c-10.6-5.6-22.4-6.2-34.2-5c-42.9,5-80.8,37.9-91.3,79.5s7.5,88.8,42.9,113.1c28.6,19.3,64,23.6,96.9,33.6
		C-339.2,401.3-225.5,502.6-234.9,581.5z"/>
	<path fill="#913D1F" d="M-388.3,371.5c19.9-3.7,37.9-11.8,53.4-23c18.6-13,33.6-31.1,44.1-52.2c25.5-50.3,21.7-110.6-9.9-154.1
		c-32.9-44.7-93.8-69.6-171.5-69.6c-5,0-9.3,0-13.7,0c-53.4,1.9-104.4,17.4-146,44.1c-35.4,22.4-77.7,55.3-93.8,111.8
		c-14.9,52.2-6.8,108.1,21.7,157.8c25.5,43.5,64.6,76.4,109.4,93.8c-46,15.5-104.4,59-124.9,105c-11.2,24.9-10.6,49.1,1.9,69.6
		c21.7,37.3,87.6,59,196.3,62.8c8.7,0.6,17.4,0.6,26.7,0.6c78.9,0,263.4-13,277.1-134.8C-208.1,501.9-305.7,408.7-388.3,371.5z
		 M-234.9,581.5c-12.4,112.5-202.6,121.8-285.8,118.7c-97.5-3.7-163.4-21.7-182-54.1c-34.8-60.9,67.7-139.8,124.9-152.8
		c30.4-6.8,78.3,1.9,92.6,34.2c3.7,8.7,6.2,29.2-4.3,34.2c-4.3,1.9-10.6-3.1-14.3,0c-11.8,8.7-1.9,28,10.6,28.6
		c26.1,1.9,31.7-44.1,26.7-61.5c-6.8-24.2-29.2-41.6-52.8-48.5c-15.5-4.3-31.7-6.8-47.8-10.6c-101.3-24.9-170.9-134.2-142.3-236.7
		c13-46.6,46.6-76.4,86.4-101.9c41-26.1,88.8-39.1,137.3-41c60.3-2.5,132.3,10.6,170.9,62.1c29.2,39.1,29.8,93.2,8.7,135.4
		c-9.3,18-22.4,34.2-39.1,46c-42.2,30.4-104.4,29.2-147.9,1.9c-33.6-20.5-55.9-60.9-47.8-99.4c7.5-38.5,50.3-68.3,87.6-56.5
		c-7.5,9.3,0.6,24.9,12.4,25.5c11.8,1.2,21.7-9.9,22.4-21.7c0.6-11.8-8.1-22.4-18-28c-10.6-5.6-22.4-6.2-34.2-5
		c-42.9,5-80.8,37.9-91.3,79.5s7.5,88.8,42.9,113.1c28.6,19.3,64,23.6,96.9,33.6C-339.2,401.3-225.5,502.6-234.9,581.5z"/>
</g>
<path fill="none" stroke="#000000" stroke-miterlimit="10" d="M1151.3,680.6c0.4,15.8,0,17.2-9.7,29.8c-12.4,16-50.7,32.9-70.9,33.7
	c-33.8,1.3-99.7-4-141.1-47.2c-14.3-14.9-14.9-38.4-16.2-59.1c-1.3-20.4-1.5-41.3,3.8-61.1c5.4-20.5,16.3-39.1,27.1-57.3"/>
<path fill="none" stroke="#000000" stroke-miterlimit="10" d="M1070.8,404.2c-1.2-39.2,4-63.3,16.2-95.2c12.2-32,45.7-65.2,72.1-87
	c21.2-17.6,49.5-28.4,77.2-25.6c27,2.8,54.7,22.8,75.7,39.1c27.2,21.1,51.1,49.1,56.4,84.7c6.8,45.4,4.9,91.2,5.9,137
	c1.3,58.4-1.7,118-25.2,172.3c-20.9,48.1-45.8,97-108.1,97.2c-106.4,0.4-151-130.4-75-190.1"/>
<path fill="none" stroke="#000000" stroke-miterlimit="10" d="M980.1,723.5c-11.7,14.6-32.7,21.2-51.2,23.9
	c-32.1,4.7-80.4-10.3-96.9-19.1c-5.8-3.1-24-20.3-27-25.7C773.5,646.1,776.3,588,783.8,526c4.9-40.7,11.9-81.1,20.8-121
	c7.6-34,18.5-68.7,35.6-99.7c10.8-19.6,40.6-88.6,107.7-115.7c26.8-10.8,103.9,2.1,123.2,22.9c19.9,21.5,28,43.5,28.5,72.7"/>
</svg>
