<?xml version="1.0" encoding="utf-8"?>
<!-- Generator: Adobe Illustrator 18.0.0, SVG Export Plug-In . SVG Version: 6.00 Build 0)  -->
<!DOCTYPE svg PUBLIC "-//W3C//DTD SVG 1.1//EN" "http://www.w3.org/Graphics/SVG/1.1/DTD/svg11.dtd">
<svg version="1.1" id="Layer_1" xmlns="http://www.w3.org/2000/svg" xmlns:xlink="http://www.w3.org/1999/xlink" x="0px" y="0px"
	 viewBox="0 0 98.5 121.9" enable-background="new 0 0 98.5 121.9" xml:space="preserve">
<g>
	<g>
		<path fill="#691D4B" d="M86.4,30.9C82.6,22.2,74.3,15.1,65.3,13c-1.3-0.3-2.6-0.8-3.9-1.3c-1.1-0.4-2.1-0.8-3.3-1.1
			c-4-1.2-8.7-1.8-13.6-1.8c-7.7,0-15.1,1.5-20.8,4.3c-4.8,2.3-8.2,7-9.3,12.9c-1.7,9.3,3.3,19.1,9.2,24.9c-0.5,0.1-0.9,0.2-1.3,0.3
			c-3.4,1-5.3,2.3-5.8,6.6C15.6,64.3,18.6,71.3,24,75c0.9,0.6,2.2,1.4,3.8,1.6c-0.2,2.1-0.7,4.3-1.1,6.4c-0.2,0.8-0.3,1.5-0.5,2.2
			c-0.6,3.2-2,6.7-3.2,9.8c-1.4,3.5-2.4,6.1-2.3,8.1c0.4,9.3,18.8,10,24.4,10c4.2,0,24.9-0.5,25.5-9.5c0.2-3.2-0.3-6.4-1.4-9.5
			c-0.4-1.1-0.5-2.4-0.6-3.9c-0.1-1.6-0.3-3.4-0.9-5.2c0,0,0.1,0,0.1,0c7.1,0,12.6-3.3,15.1-9c0.4-0.9,0.7-1.9,0.9-2.9
			c1.5-7-1.8-14.9-7.2-19.4c1.3-0.3,2.5-0.7,3.7-1.1c3.1-1.2,5.4-3.5,6.7-6.7C88.7,41.6,88.5,35.7,86.4,30.9z M79.2,50
			c-4.6,1.8-10.3,2.4-15,0.6c-5.3-2-8.4-8-7-13.5c0.4-1.5,1.1-2.9,2.3-3.9c1.2-0.9,3.1-1.1,4.3-0.2c-0.5-2.2-2.9-3.7-5.1-3.2
			c-1.6,0.4-2.9,1.6-3.6,3.1c-0.7,1.5-0.9,3.2-0.9,4.8c0,4.4,1.1,8.6,2.1,12.9c-1.1,0.3-2.1-0.5-3.2-0.2c-0.8,0.2-2,1.3-2.6,1.8
			c-0.6,0.5-1,1.2-0.9,2s1,1.3,1.7,1.1c0.3-0.1,0.5-0.3,0.7-0.5c1.9-1.6,4.4-2.4,6.9-2.5c2.7-0.2,5.4-0.4,8,0.2
			c1.5,0.3,2.9,0.8,4.4,1.3c0.5,0.2,1,0.3,1.5,0.5c2.3,1,4.2,3.4,5.5,5.5c1.5,2.4,2.6,5.1,2.9,7.9c0.2,1.6,0.2,3.2-0.2,4.8
			c-0.2,0.8-0.4,1.6-0.7,2.3c-3.6,8-13.5,8.7-20.8,5.6c-1.4-0.6-1.9-1-2.8-2.2c-0.6-0.9-1.4-1.7-2.1-0.3c-0.2,0.5-0.2,1.1-0.2,1.7
			c0.3,5.2,7.4,1,9.6,4.5c2,3.2,1.1,7.3,2.3,10.8c0.9,2.7,1.4,5.5,1.2,8.4c-0.5,8.6-43.7,9.7-44.2-0.5c-0.1-2.9,4.1-10.3,5.5-17.2
			c0.8-3.9,2.2-8.8,1.5-12.8c-0.6,0.5-1.5,0.8-2.3,0.8c-1-0.1-1.8-0.6-2.6-1.1c-4.6-3.2-7-9.1-6.3-14.6c0.4-2.8,1.2-3.5,3.8-4.2
			c1.3-0.4,4.6-0.4,4.5-2.5c-0.1-0.8-0.7-1.4-1.3-1.9c-6-5.5-10.7-14.8-9.1-23c0.9-4.6,3.5-8.8,7.7-10.9c9.2-4.4,22.7-5.2,32.4-2.3
			c2.5,0.7,4.9,1.8,7.4,2.4c8.3,2,15.8,8.5,19.2,16.3C86.4,38,86.1,47.3,79.2,50z"/>
	</g>
	<path fill="#C65FA4" d="M59.5,33.5c-0.6,0.4-1.1,0.9-1.5,1.4c-1.2,1.8-1.5,4.1-1,6.3c0.8,4.2,3.3,7.9,7.4,9.5
		c3.6,1.4,7.6,1.2,11.3,0.4c1.2-0.3,2.4-0.6,3.6-1.1c6.9-2.7,7.2-12,4.6-18c-3.4-7.7-10.9-14.3-19.2-16.3c-2.5-0.6-4.9-1.7-7.4-2.4
		c-9.7-2.8-23.2-2.1-32.4,2.3c-4.3,2.1-6.9,6.2-7.7,10.9c-0.2,0.8-0.2,1.6-0.3,2.5c-0.2,4.1,1,8.1,2.8,11.7c0.9,1.8,2,3.6,3.3,5.2
		c0.6,0.8,1.3,1.5,2,2.3c0.3,0.4,0.7,0.8,1.1,1.1c0.7,0.6,1.2,1,0.4,1.8c-1.7,1.7-4.9,1.6-6,3.8c-0.1,0.3-0.2,0.6-0.3,0.9
		c-0.2,0.8-0.6,1.5-0.8,2.3c-0.7,5.5,1.8,11.4,6.3,14.6c0.8,0.5,1.7,1,2.6,1.1c0.8,0.1,1.7-0.3,2.3-0.8c0.7,4-0.7,8.8-1.5,12.8
		c-1.4,6.9-5.6,14.3-5.5,17.2c0.5,10.2,43.7,9.1,44.2,0.5c0.2-2.8-0.3-5.7-1.2-8.4c-1.2-3.4-0.3-7.6-2.3-10.8
		c-2.2-3.5-9.3,0.7-9.6-4.5c0-0.6-0.1-1.2,0.2-1.7c0.6-1.4,1.4-0.6,2.1,0.3c0.8,1.2,1.3,1.6,2.8,2.2c7.2,3.1,17.2,2.4,20.8-5.6
		c0.3-0.7,0.6-1.5,0.7-2.3c0.1-0.6,0.2-1.2,0.2-1.8c0.2-2.7-0.4-5.5-1.4-8c-0.5-1.3-1.2-2.5-2-3.6c-0.4-0.5-0.8-1-1.2-1.6
		c-0.4-0.5-0.7-1.2-1.2-1.6c-0.2-0.2-0.5-0.4-0.8-0.6c-1.7-1.1-3.3-2.1-5.2-2.5c-2-0.5-3.9-0.9-5.9-0.9c-4-0.1-8,0.8-11.5,2.7
		c-0.5,0.3-1.1,0.6-1.6,0.4c-0.9-0.2-1.1-1.4-0.6-2.2c0.5-0.8,1.3-1.1,2.2-1.4c3.5-1.1,7.3-1.1,11-0.6c-4.1-0.6-6.8-5-7.5-9
		c-0.6-3.5,0.1-8.2,3.2-10.5c0.4-0.3,0.8-0.5,1.2-0.6c1.6-0.5,3.6,0.4,3.8,2C62.3,32.3,60.8,32.7,59.5,33.5z"/>
</g>
<g>
	<path fill="#FCB138" d="M-37.8,90.8c-2,18.1-32.6,19.6-46,19.1c-15.7-0.6-26.3-3.5-29.3-8.7c-5.6-9.8,10.9-22.5,20.1-24.6
		c4.9-1.1,12.6,0.3,14.9,5.5c0.6,1.4,1,4.7-0.7,5.5c-0.7,0.3-1.7-0.5-2.3,0c-1.9,1.4-0.3,4.5,1.7,4.6c4.2,0.3,5.1-7.1,4.3-9.9
		c-1.1-3.9-4.7-6.7-8.5-7.8c-2.5-0.7-5.1-1.1-7.7-1.7c-16.3-4-27.5-21.6-22.9-38.1c2.1-7.5,7.5-12.3,13.9-16.4
		c6.6-4.2,14.3-6.3,22.1-6.6c9.7-0.4,21.3,1.7,27.5,10c4.7,6.3,4.8,15,1.4,21.8c-1.5,2.9-3.6,5.5-6.3,7.4
		c-6.8,4.9-16.8,4.7-23.8,0.3c-5.4-3.3-9-9.8-7.7-16c1.2-6.2,8.1-11,14.1-9.1c-1.2,1.5,0.1,4,2,4.1c1.9,0.2,3.5-1.6,3.6-3.5
		s-1.3-3.6-2.9-4.5c-1.7-0.9-3.6-1-5.5-0.8c-6.9,0.8-13,6.1-14.7,12.8c-1.7,6.7,1.2,14.3,6.9,18.2c4.6,3.1,10.3,3.8,15.6,5.4
		C-54.6,61.8-36.3,78.1-37.8,90.8z"/>
	<path fill="#913D1F" d="M-62.5,57c3.2-0.6,6.1-1.9,8.6-3.7c3-2.1,5.4-5,7.1-8.4c4.1-8.1,3.5-17.8-1.6-24.8
		C-53.7,12.9-63.5,8.9-76,8.9c-0.8,0-1.5,0-2.2,0c-8.6,0.3-16.8,2.8-23.5,7.1c-5.7,3.6-12.5,8.9-15.1,18c-2.4,8.4-1.1,17.4,3.5,25.4
		c4.1,7,10.4,12.3,17.6,15.1c-7.4,2.5-16.8,9.5-20.1,16.9c-1.8,4-1.7,7.9,0.3,11.2c3.5,6,14.1,9.5,31.6,10.1
		c1.4,0.1,2.8,0.1,4.3,0.1c12.7,0,42.4-2.1,44.6-21.7C-33.5,78-49.2,63-62.5,57z M-37.8,90.8c-2,18.1-32.6,19.6-46,19.1
		c-15.7-0.6-26.3-3.5-29.3-8.7c-5.6-9.8,10.9-22.5,20.1-24.6c4.9-1.1,12.6,0.3,14.9,5.5c0.6,1.4,1,4.7-0.7,5.5
		c-0.7,0.3-1.7-0.5-2.3,0c-1.9,1.4-0.3,4.5,1.7,4.6c4.2,0.3,5.1-7.1,4.3-9.9c-1.1-3.9-4.7-6.7-8.5-7.8c-2.5-0.7-5.1-1.1-7.7-1.7
		c-16.3-4-27.5-21.6-22.9-38.1c2.1-7.5,7.5-12.3,13.9-16.4c6.6-4.2,14.3-6.3,22.1-6.6c9.7-0.4,21.3,1.7,27.5,10
		c4.7,6.3,4.8,15,1.4,21.8c-1.5,2.9-3.6,5.5-6.3,7.4c-6.8,4.9-16.8,4.7-23.8,0.3c-5.4-3.3-9-9.8-7.7-16c1.2-6.2,8.1-11,14.1-9.1
		c-1.2,1.5,0.1,4,2,4.1c1.9,0.2,3.5-1.6,3.6-3.5s-1.3-3.6-2.9-4.5c-1.7-0.9-3.6-1-5.5-0.8c-6.9,0.8-13,6.1-14.7,12.8
		c-1.7,6.7,1.2,14.3,6.9,18.2c4.6,3.1,10.3,3.8,15.6,5.4C-54.6,61.8-36.3,78.1-37.8,90.8z"/>
</g>
</svg>
