<?xml version="1.0" encoding="utf-8"?>
<!-- Generator: Adobe Illustrator 19.0.0, SVG Export Plug-In . SVG Version: 6.00 Build 0)  -->
<svg version="1.1" id="Layer_1" xmlns="http://www.w3.org/2000/svg" xmlns:xlink="http://www.w3.org/1999/xlink" x="0px" y="0px"
	 viewBox="-173 -116 612 792" style="enable-background:new -173 -116 612 792;" xml:space="preserve">
<style type="text/css">
	.st0{fill:none;}
	.st1{fill:#96A9D6;}
	.st2{fill:#7F3C0A;}
	.st3{fill:#512548;}
	.st4{fill:#CE3CAF;}
	.st5{fill:#77300C;}
	.st6{fill:url(#SVGID_1_);}
	.st7{opacity:0.5;fill:url(#SVGID_2_);enable-background:new    ;}
	.st8{fill:url(#SVGID_3_);}
	.st9{fill:#691D4B;}
	.st10{fill:#C65FA4;}
	.st11{fill:#BAE854;}
	.st12{fill:#216F8E;}
	.st13{fill:#CB66D3;}
	.st14{font-family:'LucidaConsole';}
	.st15{font-size:26.3854px;}
	.st16{fill:none;stroke:#000000;stroke-miterlimit:10;}
	.st17{fill:none;stroke:#000000;stroke-width:5;stroke-miterlimit:10;}
	.st18{fill:none;stroke:#000000;stroke-width:5;stroke-miterlimit:10;stroke-dasharray:11.4286,11.4286;}
	.st19{font-size:50px;}
	.st20{font-family:'ArialMT';}
	.st21{font-size:66.3557px;}
	.st22{fill:#5B8DEF;}
	.st23{fill:#EF6F6F;}
	.st24{fill:#BEF25A;}
	.st25{fill:none;stroke:#9B9B9B;stroke-width:5;stroke-miterlimit:10;}
	.st26{fill:none;stroke:#AFAFAF;stroke-width:5;stroke-miterlimit:10;}
	.st27{fill:#EFEFEF;}
	.st28{font-size:31.1758px;}
	.st29{fill:#F4F4F4;}
	.st30{font-size:57.4938px;}
	.st31{font-size:15.1754px;}
	.st32{font-family:'LucidaBright-Italic';}
	.st33{fill:#EA1557;}
	.st34{fill:#7E99C1;}
	.st35{fill:#9B751F;}
	.st36{fill:#5F838E;}
	.st37{fill:#C738E5;}
	.st38{fill:#6789CE;}
	.st39{fill:#C48516;}
	.st40{fill:#91AFE5;}
	.st41{fill:#D3AA46;}
	.st42{fill:#E09B4F;}
	.st43{fill:none;stroke:#293A3F;stroke-linecap:round;stroke-miterlimit:10;}
	.st44{fill:#EAC039;}
	.st45{fill:#D35446;}
	.st46{font-family:'LucidaFax-Demi';}
	.st47{font-size:17.5096px;}
	.st48{fill:#BF6F17;}
	.st49{font-size:27.588px;}
	.st50{letter-spacing:-1;}
	.st51{fill:#2F467F;}
	.st52{font-family:'FreestyleScript-Regular';}
	.st53{font-size:34.9079px;}
	.st54{letter-spacing:-2.3;}
	.st55{fill:#D85B05;}
	.st56{font-family:'FrenchScriptMT';}
	.st57{letter-spacing:-2;}
	.st58{fill:#4A6D35;}
	.st59{font-family:'BodoniMT';}
	.st60{font-size:34.7027px;}
	.st61{fill:#FFFFFF;stroke:#231F20;stroke-miterlimit:10;}
	.st62{fill:none;stroke:#231F20;stroke-miterlimit:10;}
	.st63{fill:#999595;}
	.st64{fill:#B4B8C1;}
	.st65{fill:#E6E8E6;}
	.st66{fill:#B5A9A1;}
	.st67{fill:#DBD5D1;}
	.st68{fill:#C44220;}
	.st69{fill:#2950A5;}
	.st70{fill:#2D8723;}
	.st71{fill:#29BC19;}
	.st72{fill:#E2E2E2;}
	.st73{font-family:'FranklinGothic-Demi';}
	.st74{font-size:12.7639px;}
	.st75{font-family:'FranklinGothic-Book';}
	.st76{fill:#D6AE05;}
	.st77{fill:#1A6EBA;}
	.st78{fill:none;stroke:#1A6EBA;stroke-miterlimit:10;}
	.st79{fill:#BC29C1;}
	.st80{fill:#BA3C1A;}
	.st81{font-size:13.9779px;}
	.st82{fill:#0E4BE5;}
	.st83{font-size:13px;}
	.st84{fill:none;stroke:#595959;stroke-width:2;stroke-miterlimit:10;}
	.st85{fill:#5A6A6D;}
	.st86{fill:#564744;}
	.st87{fill:#595959;}
	.st88{fill:none;stroke:#C1C1C1;stroke-miterlimit:10;stroke-dasharray:3;}
</style>
<rect x="263.6" y="203.2" class="st0" width="92.3" height="17.1"/>
<rect x="263.6" y="233.9" class="st0" width="92.3" height="17.1"/>
<rect x="263.6" y="249.2" class="st0" width="92.3" height="17.1"/>
<rect x="248.4" y="187.9" class="st0" width="107.5" height="17.1"/>
<polygon class="st1" points="106.7,114.6 95,102.9 101.8,96 106.7,100.9 113.5,107.8 "/>
<rect x="108.4" y="96.8" transform="matrix(0.7071 0.7071 -0.7071 0.7071 104.7111 -50.4078)" class="st2" width="9.7" height="8.8"/>
<g id="FluffyLogo">
	<path class="st3" d="M745.7,13.7c-16.4,0-54.9-2.5-55.7-23.8c0-4.9,2.5-10.7,4.9-18.8c2.5-6.6,5.7-13.9,7.4-21.3
		c0-1.6,0.8-3.3,0.8-4.9c0.8-4.1,1.6-8.2,2.5-12.3c-3.3-0.8-5.7-2.5-7.4-3.3c-12.3-8.2-19.7-24.6-17.2-40.1c0-2.5,0.8-4.1,1.6-4.9
		c0-0.8,0-0.8,0.8-1.6c0-0.8,0.8-2.5,1.6-3.3c1.6-3.3,4.9-6.6,9-8.2c-0.8-0.8-1.6-2.5-2.5-3.3c-3.3-4.1-5.7-8.2-8.2-13.1
		c-4.9-9.8-7.4-20.5-7.4-29.5c0-2.5,0-4.1,0.8-6.6c2.5-13.9,10.7-24.6,21.3-29.5l1.6-0.8c16.4-7.4,36-11.5,54.9-11.5
		c41,0,73.7,18,86.8,48.3c5.7,13.1,3.3,33.6-4.1,45.1c-3.3,4.9-8.2,8.2-13.9,10.7c0.8,0.8,2.5,1.6,3.3,3.3c9.8,11.5,4.9,36,4.9,36
		c-2.5,11.5-6.6,22.9-22.1,30.3c-3.3,1.6-7.4,2.5-10.7,3.3c0.8,3.3,0.8,6.6,0.8,9c0,3.3,0,5.7,0.8,7.4v0.8v0.8
		c2.5,7.4,3.3,14.7,3.3,21.3C802.2,12.1,754.7,13.7,745.7,13.7z"/>
	<path class="st4" d="M778.4-164.1c-4.1,0-5.7,8.2-4.9,10.7c0,4.9,2.5,12.3,5.7,16.4c5.7,6.6,9,3.3,19.7,4.9c9,1.6,27,4.1,32-3.3
		c6.6-9,8.2-27,3.3-37.7c-21.3-48.3-89.3-52.4-131.1-32.8c-0.8,0-0.8,0.8-1.6,0.8c-9.7,4.8-15.5,13.7-17.1,23.5
		c0,0.2-0.1,0.4-0.1,0.7c-0.1,1.5-0.8,3.1-0.8,5.4c0,9,2.5,17.9,6.5,26.1c0,0.1,0.1,0.2,0.1,0.3c1.6,4.1,4.1,8.1,7.3,11.4
		c1.6,1.6,2.5,3.3,4.1,4.9c0.8,0.8,1.6,1.6,2.5,2.5c1.6,1.6,4.9,10.7,3.3,9c-3.8-3.8-12-1.9-15.1,2.4c-0.3,0.4-0.5,0.9-0.6,1.4
		c-0.2,0.6-0.7,1.1-0.7,1.1c-0.8,1.6-1.6,3.3-1.6,4.9c-1.6,12.2,4,25.2,13.6,31.8c0.2,0.1,0.4,0.2,0.6,0.3c1.6,0.8,3.9,2.3,5.4,2.3
		c0,0,0,0,0,0c2.9,0,5.4,2.2,5.3,5.1c-0.3,7.3-2.4,15.1-3.7,22c-3.3,15.6-12.3,32-12.3,37.7c0.8,22.9,96.7,20.5,98.3,0.8
		c0-6.4-0.7-11.9-2.3-18.2c-0.1-0.4-0.3-0.8-0.5-1.2c-2.8-5.2-0.6-7-3-13.3c-0.8-2.5-2.5-7.4-5.7-8.2c-4.9-0.8-5.7-0.8-11.5-1.6
		c-5.7-0.8-15.6-5.7-16.4-12.3c-0.8-4.9,2.5-7.4,6.6-5.7c4.1,1.6,3.3,4.9,6.6,7.4c3.3,2.5,5.7,4.1,9.8,4.9
		c7.4,1.6,18.8,1.6,26.2-1.6c11.5-5.7,15.6-13.1,17.2-24.6c0.8-6.5,1.6-12.9,0.1-18.5c-0.1-0.2-0.1-0.4-0.2-0.6
		c-3.4-8.9-12.3-16.9-21.2-19.4c-7.4-2.5-18.8-4.1-27-1.6c-2.5,0.8-9.8,1.6-10.7,4.1c-0.8,0.8,4.1,4.1,3.3,4.9
		c-2.5,5.7-13.9,0.8-13.9-4.1c0-3,1.3-6.1,3.5-8.4c0.4-0.4,0.9-0.7,1.4-1c1.4-0.7,2.8-1.4,4.1-2.1c1.6-0.8,3.3,0,5.7-0.8
		c2.3-0.7,1.7-2.9,1.6-5.1c0-0.5-0.1-0.9-0.3-1.3c-0.6-2-1.3-3.9-2-5.9c-0.1-0.4-0.3-0.8-0.3-1.3c-0.1-1.6-0.8-3.8-0.8-5.2
		c-1.6-9,0.8-18,9-22.9c2.5-1.6,4.9-2.5,7.4-2.5c3.3,0,5.7,3.3,7.4,4.9c2.5,3.3,0.8,8.2-3.3,9c-1.2,0.4-2,0.2-2.7-0.3
		c-1.4-1-3.3-1-4.9-0.3C779.3-164.1,778.9-164.1,778.4-164.1z"/>
</g>
<g id="SquishyLogo">
	<path class="st5" d="M-10.8,412.7c-3.3,0-7.4,0-10.7,0c-12.3-0.8-23.8-1.6-34.4-3.3c-1.6,0-2.5-0.8-4.1-0.8
		c-6.6-0.8-13.9-2.5-19.7-5.7c-3.3-2.5-9.8-6.6-9.8-14.7c0-6.6,4.1-10.7,5.7-12.3l0.8-0.8c0-2.5-0.8-4.9-0.8-7.4
		c-1.6-8.2-3.3-18,9.8-28.7c7.4-5.7,14.7-10.7,22.1-13.1c-14.7-6.6-27.9-18-36-32.8c-10.7-18-13.1-38.5-8.2-57.3
		c5.7-20.5,21.3-32.8,34.4-41c15.6-9.8,33.6-15.6,53.3-15.6c1.6,0,3.3,0,4.9,0c27.9,0,50.8,9,62.3,25.4
		c11.5,15.6,13.1,37.7,4.1,56.5c-4.1,7.4-9.8,14.7-16.4,18.8c-4.9,3.3-9.8,5.7-14.7,7.4c5.7,3.3,11.5,6.6,17.2,10.7
		c0.8,0.8,1.6,1.6,3.3,2.5c4.9,3.3,9.8,6.6,13.1,11.5c8.2,12.3,6.6,22.1,4.1,28.7c-0.8,1.6-1.6,3.3-1.6,4.9
		c-0.8,2.5-1.6,4.1-2.5,6.6c-0.8,3.3,0.8,7.4,2.5,11.5c0,0.8,0.8,1.6,0.8,2.5c1.6,4.1,3.3,8.2,4.9,12.3c1.6,9.8-6.6,16.4-9,18
		c-9.8,7.4-22.9,9.8-33.6,12.3C17.1,411.9,3.1,412.7-10.8,412.7z"/>
	
		<linearGradient id="SVGID_1_" gradientUnits="userSpaceOnUse" x1="-305.3228" y1="-231.4953" x2="-305.4062" y2="-207.5786" gradientTransform="matrix(8.1928 0 0 8.1928 2488.7087 2093.5259)">
		<stop  offset="0.3065" style="stop-color:#F5CF2B"/>
		<stop  offset="0.5771" style="stop-color:#FCF23A"/>
		<stop  offset="0.672" style="stop-color:#FFFF40"/>
		<stop  offset="0.7576" style="stop-color:#FEFC3F"/>
		<stop  offset="0.8112" style="stop-color:#FDF43B"/>
		<stop  offset="0.8559" style="stop-color:#F9E535"/>
		<stop  offset="0.8959" style="stop-color:#F5D12C"/>
		<stop  offset="0.9326" style="stop-color:#EFB620"/>
		<stop  offset="0.9665" style="stop-color:#E89512"/>
		<stop  offset="0.9785" style="stop-color:#E5880C"/>
	</linearGradient>
	<path class="st6" d="M59.7,366.8c1.6,4.9,4.1,9,4.9,13.9c0.8,4.1-3.3,7.4-6.6,9.8c-8.2,6.6-20.5,9-30.3,10.7
		c-16.4,3.3-32.8,4.1-49.2,3.3c-11.5-0.8-22.1-1.6-32.8-3.3c-6.6-1.6-15.6-1.6-21.3-5.7c-3.3-1.6-5.7-4.1-5.7-7.4
		c0-5.7,6.6-6.6,6.6-12.3c0-13.1-6.6-20.5,5.7-30.3c8.2-6.6,17.2-12.3,27-13.9c10.7-2.5,27.9,0.8,32.8,12.3
		c1.6,3.3,2.5,10.7-1.6,12.3c-1.6,0.8-4.1-0.8-4.9,0c-4.1,3.3-0.8,9.8,4.1,9.8c9,0.8,11.5-15.6,9.8-22.1c-2.5-9-10.7-14.7-18.8-17.2
		c-5.7-1.6-11.5-2.5-17.2-4.1c-36-9-61.4-47.5-50.8-84.4c4.9-16.4,16.4-27,31.1-36s32-13.9,49.2-14.7c21.3-0.8,47.5,4.1,60.6,22.1
		c10.7,13.9,10.7,33.6,3.3,48.3c-3.3,6.6-8.2,12.3-13.9,16.4C27,285,4.8,285-10.7,275.1c-12.3-7.4-19.7-22.1-17.2-35.2
		c2.5-13.9,18-24.6,31.1-20.5c-2.5,3.3,0,9,4.1,9s8.2-3.3,8.2-8.2c0-4.1-2.5-8.2-6.6-9.8c-4.1-1.6-8.2-2.5-12.3-1.6
		c-15.6,1.6-28.7,13.9-32.8,28.7c-4.1,14.7,2.5,32,15.6,40.1c9.8,6.6,22.9,8.2,34.4,12.3c10.7,3.3,21.3,9,30.3,15.6
		c4.9,3.3,10.7,6.6,13.9,11.5c4.1,6.6,6.6,13.9,3.3,22.1c-1.6,4.1-4.1,8.2-4.9,12.3C55.6,356.2,57.2,361.1,59.7,366.8z"/>
	
		<linearGradient id="SVGID_2_" gradientUnits="userSpaceOnUse" x1="-299.5429" y1="-226.9172" x2="-311.1679" y2="-208.2922" gradientTransform="matrix(8.1928 0 0 8.1928 2488.7087 2093.5259)">
		<stop  offset="0" style="stop-color:#FFFF40"/>
		<stop  offset="7.137145e-002" style="stop-color:#FEF93D"/>
		<stop  offset="0.1672" style="stop-color:#FAE836"/>
		<stop  offset="0.2768" style="stop-color:#F4CC2A"/>
		<stop  offset="0.3959" style="stop-color:#EBA519"/>
		<stop  offset="0.4731" style="stop-color:#E5880C"/>
		<stop  offset="0.5565" style="stop-color:#E79110"/>
		<stop  offset="0.6921" style="stop-color:#ECA91B"/>
		<stop  offset="0.8618" style="stop-color:#F5D02C"/>
		<stop  offset="1" style="stop-color:#FDF53C"/>
	</linearGradient>
	<path class="st7" d="M59.7,366.8c1.6,4.9,4.1,9,4.9,13.9c0.8,4.1-3.3,7.4-6.6,9.8c-8.2,6.6-20.5,9-30.3,10.7
		c-16.4,3.3-32.8,4.1-49.2,3.3c-11.5-0.8-22.1-1.6-32.8-3.3c-6.6-1.6-15.6-1.6-21.3-5.7c-3.3-1.6-5.7-4.1-5.7-7.4
		c0-5.7,6.6-6.6,6.6-12.3c0-13.1-6.6-20.5,5.7-30.3c8.2-6.6,17.2-12.3,27-13.9c10.7-2.5,27.9,0.8,32.8,12.3
		c1.6,3.3,2.5,10.7-1.6,12.3c-1.6,0.8-4.1-0.8-4.9,0c-4.1,3.3-0.8,9.8,4.1,9.8c9,0.8,11.5-15.6,9.8-22.1c-2.5-9-10.7-14.7-18.8-17.2
		c-5.7-1.6-11.5-2.5-17.2-4.1c-36-9-61.4-47.5-50.8-84.4c4.9-16.4,16.4-27,31.1-36s32-13.9,49.2-14.7c21.3-0.8,47.5,4.1,60.6,22.1
		c10.7,13.9,10.7,33.6,3.3,48.3c-3.3,6.6-8.2,12.3-13.9,16.4C27,285,4.8,285-10.7,275.1c-12.3-7.4-19.7-22.1-17.2-35.2
		c2.5-13.9,18-24.6,31.1-20.5c-2.5,3.3,0,9,4.1,9s8.2-3.3,8.2-8.2c0-4.1-2.5-8.2-6.6-9.8c-4.1-1.6-8.2-2.5-12.3-1.6
		c-15.6,1.6-28.7,13.9-32.8,28.7c-4.1,14.7,2.5,32,15.6,40.1c9.8,6.6,22.9,8.2,34.4,12.3c10.7,3.3,21.3,9,30.3,15.6
		c4.9,3.3,10.7,6.6,13.9,11.5c4.1,6.6,6.6,13.9,3.3,22.1c-1.6,4.1-4.1,8.2-4.9,12.3C55.6,356.2,57.2,361.1,59.7,366.8z"/>
</g>
<linearGradient id="SVGID_3_" gradientUnits="userSpaceOnUse" x1="-226.4379" y1="-232.7122" x2="-218.1495" y2="-209.848" gradientTransform="matrix(8.1928 0 0 8.1928 2488.7087 2093.5259)">
	<stop  offset="0" style="stop-color:#FFFF40"/>
	<stop  offset="1" style="stop-color:#E5880C"/>
</linearGradient>
<rect x="551.2" y="157.9" class="st8" width="225.3" height="225.3"/>
<g>
	<g>
		<path class="st9" d="M331.6,489.3c-8.6-19.8-27.5-35.9-47.9-40.7c-3-0.7-5.9-1.8-8.9-3c-2.5-0.9-4.8-1.8-7.5-2.5
			c-9.1-2.7-19.8-4.1-30.9-4.1c-17.5,0-34.3,3.4-47.3,9.8c-10.9,5.2-18.6,15.9-21.1,29.3c-3.9,21.1,7.5,43.4,20.9,56.6
			c-1.1,0.2-2,0.5-3,0.7c-7.7,2.3-12,5.2-13.2,15c-2,14.8,4.8,30.7,17,39.1c2,1.4,5,3.2,8.6,3.6c-0.5,4.8-1.6,9.8-2.5,14.5
			c-0.5,1.8-0.7,3.4-1.1,5c-1.4,7.3-4.5,15.2-7.3,22.3c-3.2,8-5.5,13.9-5.2,18.4c0.9,21.1,42.7,22.7,55.4,22.7
			c9.5,0,56.6-1.1,57.9-21.6c0.5-7.3-0.7-14.5-3.2-21.6c-0.9-2.5-1.1-5.5-1.4-8.9c-0.2-3.6-0.7-7.7-2-11.8h0.2
			c16.1,0,28.6-7.5,34.3-20.5c0.9-2,1.6-4.3,2-6.6c3.4-15.9-4.1-33.9-16.4-44.1c3-0.7,5.7-1.6,8.4-2.5c7-2.7,12.3-8,15.2-15.2
			C336.8,513.6,336.4,500.2,331.6,489.3z M315.2,532.7c-10.5,4.1-23.4,5.5-34.1,1.4c-12-4.5-19.1-18.2-15.9-30.7
			c0.9-3.4,2.5-6.6,5.2-8.9c2.7-2,7-2.5,9.8-0.5c-1.1-5-6.6-8.4-11.6-7.3c-3.6,0.9-6.6,3.6-8.2,7s-2,7.3-2,10.9
			c0,10,2.5,19.5,4.8,29.3c-2.5,0.7-4.8-1.1-7.3-0.5c-1.8,0.5-4.5,3-5.9,4.1s-2.3,2.7-2,4.5c0.2,1.8,2.3,3,3.9,2.5
			c0.7-0.2,1.1-0.7,1.6-1.1c4.3-3.6,10-5.5,15.7-5.7c6.1-0.5,12.3-0.9,18.2,0.5c3.4,0.7,6.6,1.8,10,3c1.1,0.5,2.3,0.7,3.4,1.1
			c5.2,2.3,9.5,7.7,12.5,12.5c3.4,5.5,5.9,11.6,6.6,18c0.5,3.6,0.5,7.3-0.5,10.9c-0.5,1.8-0.9,3.6-1.6,5.2
			c-8.2,18.2-30.7,19.8-47.3,12.7c-3.2-1.4-4.3-2.3-6.4-5c-1.4-2-3.2-3.9-4.8-0.7c-0.5,1.1-0.5,2.5-0.5,3.9
			c0.7,11.8,16.8,2.3,21.8,10.2c4.5,7.3,2.5,16.6,5.2,24.5c2,6.1,3.2,12.5,2.7,19.1c-1.1,19.5-99.3,22-100.4-1.1
			c-0.2-6.6,9.3-23.4,12.5-39.1c1.8-8.9,5-20,3.4-29.1c-1.4,1.1-3.4,1.8-5.2,1.8c-2.3-0.2-4.1-1.4-5.9-2.5
			c-10.5-7.3-15.9-20.7-14.3-33.2c0.9-6.4,2.7-8,8.6-9.5c3-0.9,10.5-0.9,10.2-5.7c-0.2-1.8-1.6-3.2-3-4.3
			c-13.6-12.5-24.3-33.6-20.7-52.3c2-10.5,8-20,17.5-24.8c20.9-10,51.6-11.8,73.6-5.2c5.7,1.6,11.1,4.1,16.8,5.5
			c18.9,4.5,35.9,19.3,43.6,37C331.6,505.4,330.9,526.5,315.2,532.7z"/>
	</g>
	<path class="st10" d="M270.5,495.2c-1.4,0.9-2.5,2-3.4,3.2c-2.7,4.1-3.4,9.3-2.3,14.3c1.8,9.5,7.5,18,16.8,21.6
		c8.2,3.2,17.3,2.7,25.7,0.9c2.7-0.7,5.5-1.4,8.2-2.5c15.7-6.1,16.4-27.3,10.5-40.9c-7.7-17.5-24.8-32.5-43.6-37
		c-5.7-1.4-11.1-3.9-16.8-5.5c-22-6.4-52.7-4.8-73.6,5.2c-9.8,4.8-15.7,14.1-17.5,24.8c-0.5,1.8-0.5,3.6-0.7,5.7
		c-0.5,9.3,2.3,18.4,6.4,26.6c2,4.1,4.5,8.2,7.5,11.8c1.4,1.8,3,3.4,4.5,5.2c0.7,0.9,1.6,1.8,2.5,2.5c1.6,1.4,2.7,2.3,0.9,4.1
		c-3.9,3.9-11.1,3.6-13.6,8.6c-0.2,0.7-0.5,1.4-0.7,2c-0.5,1.8-1.4,3.4-1.8,5.2c-1.6,12.5,4.1,25.9,14.3,33.2
		c1.8,1.1,3.9,2.3,5.9,2.5c1.8,0.2,3.9-0.7,5.2-1.8c1.6,9.1-1.6,20-3.4,29.1c-3.2,15.7-12.7,32.5-12.5,39.1
		c1.1,23.2,99.3,20.7,100.4,1.1c0.5-6.4-0.7-13-2.7-19.1c-2.7-7.7-0.7-17.3-5.2-24.5c-5-8-21.1,1.6-21.8-10.2c0-1.4-0.2-2.7,0.5-3.9
		c1.4-3.2,3.2-1.4,4.8,0.7c1.8,2.7,3,3.6,6.4,5c16.4,7,39.1,5.5,47.3-12.7c0.7-1.6,1.4-3.4,1.6-5.2c0.2-1.4,0.5-2.7,0.5-4.1
		c0.5-6.1-0.9-12.5-3.2-18.2c-1.1-3-2.7-5.7-4.5-8.2c-0.9-1.1-1.8-2.3-2.7-3.6c-0.9-1.1-1.6-2.7-2.7-3.6c-0.5-0.5-1.1-0.9-1.8-1.4
		c-3.9-2.5-7.5-4.8-11.8-5.7c-4.5-1.1-8.9-2-13.4-2c-9.1-0.2-18.2,1.8-26.1,6.1c-1.1,0.7-2.5,1.4-3.6,0.9c-2-0.5-2.5-3.2-1.4-5
		s3-2.5,5-3.2c8-2.5,16.6-2.5,25-1.4c-9.3-1.4-15.5-11.4-17-20.5c-1.4-8,0.2-18.6,7.3-23.9c0.9-0.7,1.8-1.1,2.7-1.4
		c3.6-1.1,8.2,0.9,8.6,4.5C276.8,492.5,273.4,493.4,270.5,495.2z"/>
</g>
<g>
	<g>
		<path class="st11" d="M187.9-78.1l-13.7,9.8v-2.8l11.6-8v-0.1l-11.6-8V-90l13.7,9.8V-78.1z"/>
		<path class="st12" d="M187.9-28.9l-13.7,9.8v-2.8l11.6-8V-30l-11.6-8v-2.8l13.7,9.8V-28.9z"/>
		<path class="st13" d="M187.9,20.4l-13.7,9.8v-2.8l11.6-8v-0.1l-11.6-8V8.5l13.7,9.8V20.4z"/>
	</g>
	<text transform="matrix(1 0 0 1 196.7706 -69.0621)" class="st14 st15">.js</text>
	<rect x="157.7" y="-104.7" class="st16" width="151" height="151"/>
	<g>
		<g>
			<line class="st17" x1="202.5" y1="-30" x2="208.5" y2="-30"/>
			<line class="st18" x1="219.9" y1="-30" x2="282.8" y2="-30"/>
			<line class="st17" x1="288.5" y1="-30" x2="294.5" y2="-30"/>
		</g>
	</g>
	<g>
		<g>
			<line class="st17" x1="202.5" y1="19.3" x2="208.5" y2="19.3"/>
			<line class="st18" x1="219.9" y1="19.3" x2="282.8" y2="19.3"/>
			<line class="st17" x1="288.5" y1="19.3" x2="294.5" y2="19.3"/>
		</g>
	</g>
</g>
<g>
	<text transform="matrix(1 0 0 1 355.6188 -69.0621)" class="st14 st15">.css</text>
	<rect x="316.5" y="-104.7" class="st16" width="151" height="151"/>
	<text transform="matrix(1 0 0 1 352.6185 4.6591)" class="st14 st19">{ }</text>
</g>
<g>
	<text transform="matrix(1 0 0 1 15.6358 -45.924)" class="st14 st19">html</text>
	<rect x="-1.7" y="-104.7" class="st16" width="151" height="151"/>
	<text transform="matrix(1 0 0 1 34.5 6.0334)" class="st14 st19">&lt;/&gt;</text>
</g>
<g>
	<text transform="matrix(1 0 0 1 -134.078 -45.9241)" class="st20 st21">svg</text>
	<rect x="-161.8" y="-104.7" class="st16" width="151" height="151"/>
	<rect x="-74" y="-22.8" class="st22" width="43.7" height="43.7"/>
	<circle class="st23" cx="-119.9" cy="4.7" r="30.7"/>
	<polygon class="st24" points="-54.7,15.9 -84.7,-29.2 -107.5,41.2 	"/>
</g>
<g>
	<g>
		<path class="st11" d="M-25.5,97.6l-2.9,2V99l2.4-1.7l0,0l-2.4-1.7V95l2.9,2V97.6z"/>
		<path class="st12" d="M-25.5,107.9l-2.9,2v-0.6l2.4-1.7l0,0l-2.4-1.7v-0.6l2.9,2V107.9z"/>
		<path class="st13" d="M-25.5,118.2l-2.9,2v-0.6l2.4-1.7l0,0l-2.4-1.7v-0.6l2.9,2V118.2z"/>
	</g>
	<g>
		<g>
			<line class="st25" x1="-22.5" y1="107.7" x2="-16.5" y2="107.7"/>
			<line class="st25" x1="-9.3" y1="107.7" x2="-3.3" y2="107.7"/>
		</g>
	</g>
	<g>
		<g>
			<line class="st26" x1="-22.5" y1="118" x2="-16.5" y2="118"/>
			<line class="st26" x1="-9.3" y1="118" x2="-3.3" y2="118"/>
		</g>
	</g>
	<polygon class="st16" points="-30.6,92.1 -30.6,123.7 1,123.7 1,95.4 -2.3,92.1 	"/>
</g>
<g>
	<text transform="matrix(0.5487 0 0 1 5.9281 117.5508)" class="st27 st14 st28">{ }</text>
	<polygon class="st16" points="5.9,92.1 5.9,123.7 37.5,123.7 37.5,95.4 34.2,92.1 	"/>
</g>
<g>
	<text transform="matrix(0.3319 0 0 1 -64.1529 122.5913)" class="st29 st14 st30">&lt; &gt;</text>
	<polygon class="st16" points="-62.8,92.1 -62.8,123.7 -31.2,123.7 -31.2,95.4 -34.5,92.1 	"/>
</g>
<g>
	<rect x="-78.8" y="109.2" class="st22" width="9.1" height="9.1"/>
	<circle class="st23" cx="-88.4" cy="114.9" r="6.4"/>
	<polygon class="st24" points="-74.8,117.3 -81.1,107.9 -85.9,122.6 	"/>
</g>
<polygon class="st16" points="-98.1,92.1 -98.1,123.7 -66.5,123.7 -66.5,95.4 -69.8,92.1 "/>
<g>
	<text transform="matrix(1 0 0 1 7.9998 107.4158)" class="st14 st31">css</text>
</g>
<g>
	<text transform="matrix(1 0 0 1 -23.9431 107.416)" class="st14 st31">js</text>
</g>
<g>
	<text transform="matrix(1 0 0 1 -62.1941 107.4158)" class="st14 st31">html</text>
</g>
<g>
	<text transform="matrix(1 0 0 1 -94.0176 107.4159)" class="st32 st31">svg</text>
</g>
<rect x="60" y="89.6" class="st16" width="26.8" height="26.9"/>
<rect x="50.1" y="93.5" class="st16" width="31.7" height="31.7"/>
<line class="st16" x1="60" y1="89.6" x2="50.1" y2="93.5"/>
<line class="st16" x1="81.7" y1="125.3" x2="86.8" y2="116.4"/>
<line class="st16" x1="86.8" y1="89.6" x2="81.7" y2="93.5"/>
<line class="st16" x1="60" y1="116.4" x2="50.1" y2="125.3"/>
<rect x="148.6" y="98.9" class="st16" width="26.8" height="17.5"/>
<rect x="138.7" y="102.9" class="st16" width="31.7" height="22.4"/>
<line class="st16" x1="148.6" y1="98.9" x2="138.7" y2="102.9"/>
<line class="st16" x1="170.4" y1="125.3" x2="175.4" y2="116.4"/>
<line class="st16" x1="175.4" y1="98.9" x2="170.4" y2="102.9"/>
<line class="st16" x1="148.6" y1="116.4" x2="138.7" y2="125.3"/>
<path class="st33" d="M129.1,55.8"/>
<path class="st33" d="M111.3,92.6"/>
<g>
	<polygon class="st34" points="106.1,125.3 113.1,118.3 113.5,107.8 106.7,114.6 	"/>
	<path class="st34" d="M113.1,118.3"/>
	<polyline class="st35" points="113.1,118.3 121.9,109.5 119.7,101.6 113.5,107.8 	"/>
	<polygon class="st36" points="106.1,125.3 106.7,114.6 95,102.9 91.6,110.8 	"/>
	<polygon class="st37" points="101.8,96 95,102.9 91.6,110.8 98.6,103.8 	"/>
	<path class="st33" d="M116.6,104.2"/>
	<path class="st33" d="M95,102.9"/>
	<polygon class="st38" points="101.8,96 106.7,100.9 105.8,111 98.6,103.7 	"/>
	<polygon class="st39" points="114.4,102.2 121.9,109.5 119.7,101.6 112.9,94.7 	"/>
	<polygon class="st40" points="91.6,110.8 98.6,103.8 101.8,96 95,102.9 	"/>
	<polyline class="st41" points="113.5,107.8 106.7,100.9 105.8,111 113.1,118.3 113.5,107.8 	"/>
	<polygon class="st42" points="114.4,102.2 112.9,94.7 106.7,100.9 105.8,111 	"/>
</g>
<g>
	<rect x="-134.6" y="92" class="st43" width="29.4" height="29.4"/>
	<g>
		<polygon class="st44" points="-110.4,110.6 -116.1,108.4 -111.3,95.7 -105.7,97.9 		"/>
		
			<rect x="-131.1" y="113" transform="matrix(-0.9386 0.345 -0.345 -0.9386 -208.9151 268.7279)" class="st44" width="5.5" height="5.5"/>
		
			<rect x="-124" y="111.6" transform="matrix(-0.9999 1.711921e-002 -1.711921e-002 -0.9999 -240.5204 230.7817)" class="st44" width="5.5" height="5.5"/>
		
			<rect x="-116.3" y="112.6" transform="matrix(-0.9366 -0.3504 0.3504 -0.9366 -260.2564 183.6047)" class="st44" width="5.5" height="5.5"/>
		<text transform="matrix(0.9939 -0.11 0.11 0.9939 -131.8612 109.4267)" class="st45 st46 st47">M</text>
	</g>
</g>
<g>
	<rect x="105.3" y="144.6" class="st29" width="18.8" height="18.8"/>
	<text transform="matrix(1 0 0 1 102.1169 163.8279)" class="st48 st46 st49 st50">M</text>
</g>
<g>
	<rect x="103.7" y="167.4" class="st29" width="20.3" height="20.3"/>
	<g>
		<text transform="matrix(1.3305 0 0 1 102.8779 189.6309)" class="st51 st52 st53 st54">S</text>
	</g>
</g>
<g>
	<rect x="104.7" y="194.6" class="st29" width="20.3" height="20.3"/>
	<text transform="matrix(1 0 0 1 103.4307 215.9114)" class="st55 st56 st53 st57">L</text>
</g>
<g>
	<rect x="104" y="220.8" class="st29" width="20.3" height="20.3"/>
	<text transform="matrix(1 0 0 1 102.2153 242.4196)" class="st58 st59 st60 st57">G</text>
</g>
<polygon class="st61" points="-894.3,57.9 -894.3,-192.1 -820.7,-230.4 -820.7,-40.9 -654.3,-27.1 -654.3,182.9 "/>
<polygon class="st61" points="-801.5,-323.1 -801.5,-142.1 -654.3,-175.1 -654.3,-440.1 "/>
<polygon class="st61" points="-414.3,57.9 -414.3,-192.1 -488,-230.4 -488,-40.9 -654.3,-27.1 -654.3,182.9 "/>
<polygon class="st61" points="-507.2,-321.1 -507.2,-142.1 -654.3,-175.1 -654.3,-440.1 "/>
<line class="st62" x1="-654.9" y1="-123" x2="-801.5" y2="-142.1"/>
<line class="st62" x1="-654.9" y1="-123" x2="-507.2" y2="-142.1"/>
<line class="st62" x1="-488" y1="-230.4" x2="-654.3" y2="-185.3"/>
<line class="st62" x1="-820.7" y1="-230.4" x2="-654.3" y2="-185.3"/>
<line class="st62" x1="-654.9" y1="-123" x2="-654.9" y2="-47.4"/>
<line class="st62" x1="-654.9" y1="-47.4" x2="-488" y2="-40.9"/>
<line class="st62" x1="-654.9" y1="-47.4" x2="-820.7" y2="-40.9"/>
<path class="st61" d="M-380.3-336.7"/>
<g>
	<rect x="186.8" y="91.8" class="st43" width="31.3" height="31.3"/>
	<polygon class="st63" points="195.3,102.3 195.3,110.6 202.5,110.3 202.5,104.3 	"/>
	<polygon class="st64" points="202.5,104.3 209.8,102.3 209.8,110.6 202.5,110.3 	"/>
	<polygon class="st65" points="209.8,110.6 202.5,110.3 195.3,110.6 202.5,111.2 	"/>
	<polyline class="st66" points="209.8,102.3 213,104 213,114.9 202.5,120.3 202.5,111.2 209.8,110.6 	"/>
	<polygon class="st67" points="202.5,120.3 202.5,111.2 195.3,110.6 195.3,102.3 192.1,104 192.1,114.9 	"/>
	<polygon class="st68" points="202.5,94.4 202.5,103.9 207.8,105.1 207.8,98.7 	"/>
	<polygon class="st69" points="202.5,94.4 197.2,98.6 197.2,105.1 202.5,103.9 	"/>
	<polygon class="st70" points="197.2,105.1 202.5,103.9 207.8,105.1 202.5,105.8 	"/>
</g>
<g id="Style">
	<rect x="248.4" y="189.7" class="st71" width="13.5" height="13.5"/>
	<text transform="matrix(1 0 0 1 251.7298 200.5844)" class="st72 st73 st74">S</text>
</g>
<rect x="263.6" y="205" class="st71" width="13.5" height="13.5"/>
<text transform="matrix(1 0 0 1 266.9142 215.9173)" class="st72 st75 st74">S</text>
<g id="Layout">
	<rect x="263.6" y="205" class="st76" width="13.5" height="13.5"/>
	<text transform="matrix(1 0 0 1 266.9142 215.9173)" class="st72 st73 st74">L</text>
</g>
<g id="Module">
	<g>
		<rect x="278.8" y="220.5" class="st77" width="13.5" height="13.5"/>
		<g>
			<text transform="matrix(1 0 0 1 279.9305 231.3935)" class="st72 st73 st74">M</text>
		</g>
	</g>
</g>
<g>
	<rect x="215.6" y="257.8" class="st78" width="13.5" height="13.5"/>
	<g>
		<text transform="matrix(1 0 0 1 216.7253 268.6797)" class="st77 st73 st74">M</text>
	</g>
</g>
<g id="Type">
	<rect x="293.1" y="235.7" class="st79" width="13.5" height="13.5"/>
	<text transform="matrix(1 0 0 1 296.8492 246.5829)" class="st72 st73 st74">T</text>
</g>
<g id="Graphic_1_">
	<rect id="Graphic" x="278.8" y="251" class="st80" width="13.5" height="13.5"/>
	<text transform="matrix(1 0 0 1 281.5237 261.9158)" class="st72 st73 st74">G</text>
</g>
<text transform="matrix(1 0 0 1 268.2345 200.5845)" class="st14 st81">name</text>
<text transform="matrix(1 0 0 1 297.1059 231.3937)" class="st82 st14 st83">name</text>
<text transform="matrix(1 0 0 1 298.1417 261.2055)" class="st14 st81">name</text>
<polygon class="st0" points="263.6,220.3 248.4,220.3 248.4,203.2 256,203.2 263.6,203.2 "/>
<polyline class="st84" points="263.6,211.8 256,211.8 256,203.2 "/>
<rect x="263.6" y="264.5" class="st0" width="92.3" height="17.1"/>
<g id="Attribute_1_">
	<rect id="Attribute" x="278.8" y="266.3" class="st85" width="13.5" height="13.5"/>
	<text transform="matrix(1 0 0 1 281.5237 277.2487)" class="st72 st73 st74">A</text>
</g>
<text transform="matrix(1 0 0 1 298.1417 276.5384)" class="st14 st81">name</text>
<rect x="263.6" y="279.8" class="st0" width="92.3" height="17.1"/>
<g id="Object">
	<rect x="278.8" y="281.7" class="st86" width="13.5" height="13.5"/>
	<text transform="matrix(1 0 0 1 281.5237 292.5815)" class="st72 st73 st74">O</text>
</g>
<text transform="matrix(1 0 0 1 298.1417 291.8712)" class="st14 st81">name</text>
<g id="tip_1_">
	<rect x="278" y="233.9" class="st0" width="15.2" height="17.1"/>
	<g>
		<polygon class="st87" points="293.1,243.1 285,243.1 285,233.9 286.1,233.9 286.1,242 293.1,242 		"/>
	</g>
</g>
<g id="branch1">
	<rect x="263.6" y="218.5" class="st0" width="15.2" height="17.1"/>
	<polygon class="st87" points="278.8,226.6 271.8,226.6 271.8,218.6 270.6,218.6 270.6,233.9 271.8,233.9 271.8,227.7 278.8,227.7 	
		"/>
</g>
<g id="branch1_2_">
	<rect x="263.6" y="264.5" class="st0" width="15.2" height="17.1"/>
	<polygon class="st87" points="278.8,272.6 271.8,272.6 271.8,264.6 270.6,264.6 270.6,279.8 271.8,279.8 271.8,273.7 278.8,273.7 	
		"/>
</g>
<g id="branch1_3_">
	<rect x="263.6" y="249.2" class="st0" width="15.2" height="17.1"/>
	<polygon class="st87" points="278.8,257.2 271.8,257.2 271.8,249.2 270.6,249.2 270.6,264.5 271.8,264.5 271.8,258.4 278.8,258.4 	
		"/>
</g>
<g id="branch2">
	<rect x="263.6" y="233.9" class="st0" width="15.2" height="17.1"/>
	<rect x="270.6" y="233.9" class="st87" width="1.1" height="15.3"/>
</g>
<g id="tip">
	<rect x="263.6" y="279.8" class="st0" width="15.2" height="17.1"/>
	<g>
		<polygon class="st87" points="278.8,289.1 270.6,289.1 270.6,279.8 271.8,279.8 271.8,288 278.8,288 		"/>
	</g>
</g>
<rect x="136.8" y="307.4" class="st88" width="92.3" height="17.1"/>
<text transform="matrix(1 0 0 1 -482.6597 -670.9106)" style="font-family:'MyriadPro-Regular'; font-size:29.4676px;">Verbs:</text>
<text transform="matrix(1 0 0 1 -195.521 -670.9121)" style="font-family:'MyriadPro-Regular'; font-size:29.4676px;">new (1)</text>
<text transform="matrix(1 0 0 1 -84.8472 -669.9913)" style="font-family:'MyriadPro-Regular'; font-size:29.4676px;">call (2)</text>
<text transform="matrix(1 0 0 1 50.2134 -669.9913)" style="font-family:'MyriadPro-Regular'; font-size:29.4676px;">define (3)</text>
<text transform="matrix(1 0 0 1 -309.9453 -670.9111)" style="font-family:'MyriadPro-Regular'; font-size:29.4676px;">none (0)</text>
<text transform="matrix(1 0 0 1 -482.6597 -524.8018)" style="font-family:'MyriadPro-Regular'; font-size:29.4676px;">Assignment:</text>
<text transform="matrix(1 0 0 1 -309.9468 -524.8018)" style="font-family:'MyriadPro-Regular'; font-size:29.4676px;">none (0)</text>
<text transform="matrix(1 0 0 1 -197.398 -524.8008)" style="font-family:'MyriadPro-Regular'; font-size:29.4676px;">local (1)</text>
<text transform="matrix(1 0 0 1 -84.8472 -524.8018)" style="font-family:'MyriadPro-Regular'; font-size:29.4676px;">export (2)  </text>
<text transform="matrix(1 0 0 1 50.2115 -524.8018)" style="font-family:'MyriadPro-Regular'; font-size:29.4676px;">global (3)</text>
<text transform="matrix(1 0 0 1 -482.6596 -805.9717)" style="font-family:'MyriadPro-Regular'; font-size:29.4676px;">Object: </text>
<text transform="matrix(1 0 0 1 -197.398 -805.9717)" style="font-family:'MyriadPro-Regular'; font-size:29.4676px;">[  ] (1)</text>
<text transform="matrix(1 0 0 1 -309.9459 -805.9717)" style="font-family:'MyriadPro-Regular'; font-size:29.4676px;">{   } (0)</text>
<text transform="matrix(1 0 0 1 -84.8472 -805.9717)" style="font-family:'MyriadPro-Regular'; font-size:29.4676px;">123 (2)</text>
<text transform="matrix(1 0 0 1 50.2134 -805.9717)" style="font-family:'MyriadPro-Regular'; font-size:29.4676px;">4.5 (3)</text>
<text transform="matrix(1 0 0 1 172.9947 -805.9717)" style="font-family:'MyriadPro-Regular'; font-size:29.4676px;">abc (4)</text>
<text transform="matrix(1 0 0 1 291.6822 -805.9717)" style="font-family:'MyriadPro-Regular'; font-size:29.4676px;">function (5)</text>
<text transform="matrix(1 0 0 1 449.6596 -805.9717)" style="font-family:'MyriadPro-Regular'; font-size:29.4676px;">...</text>
<text transform="matrix(1 0 0 1 211.0561 -669.9893)" style="font-family:'MyriadPro-Regular'; font-size:29.4676px;">...</text>
</svg>
