<?xml version="1.0" encoding="utf-8"?>
<!-- Generator: Adobe Illustrator 18.0.0, SVG Export Plug-In . SVG Version: 6.00 Build 0)  -->
<!DOCTYPE svg PUBLIC "-//W3C//DTD SVG 1.1//EN" "http://www.w3.org/Graphics/SVG/1.1/DTD/svg11.dtd">
<svg version="1.1" id="Layer_1" xmlns="http://www.w3.org/2000/svg" xmlns:xlink="http://www.w3.org/1999/xlink" x="0px" y="0px"
	 viewBox="0 0 106.5 109.5" enable-background="new 0 0 106.5 109.5" xml:space="preserve">
<g id="FluffyLogo">
	<path fill="#512548" d="M176.5,107.6c-7.4,0-24.6-1-25.1-10.7c-0.1-2.2,0.9-4.8,2.4-8.4c1.2-3,2.6-6.5,3.2-9.6
		c0.1-0.7,0.3-1.5,0.5-2.2c0.4-1.8,0.8-3.8,1-5.7c-1.5-0.3-2.7-1-3.5-1.6c-5.6-3.9-8.7-11.1-7.8-17.9c0.1-1,0.4-1.7,0.7-2.3
		c0.1-0.2,0.2-0.4,0.2-0.6c0.1-0.4,0.3-0.9,0.6-1.5c0.8-1.6,2.4-2.9,4.1-3.7c-0.4-0.5-0.8-0.9-1.2-1.4c-1.4-1.8-2.6-3.8-3.7-5.8
		c-2.2-4.5-3.3-9.1-3.2-13.5c0-1,0.2-2,0.3-3c1.1-6.1,4.7-11,9.7-13.4l0.7-0.3c7.3-3.4,16.2-5.3,24.9-5.3c18.5,0,33.1,8.1,39.1,21.8
		c2.5,5.8,1.6,15.3-1.9,20.3c-1.5,2.1-3.9,3.6-6.5,4.7c0.5,0.4,0.9,0.9,1.4,1.4c4.4,5,2.3,16.1,2.3,16.2c-1,5.1-2.8,10.3-9.8,13.5
		c-1.5,0.7-3.2,1.1-4.8,1.3c0.3,1.4,0.4,2.8,0.4,4.1c0.1,1.3,0.1,2.7,0.5,3.4l0.1,0.2l0.1,0.2c1.1,3.2,1.6,6.5,1.4,9.8
		C202.1,107.2,180.8,107.6,176.5,107.6z"/>
	<path fill="#CE3CAF" d="M191.4,27.6c-1.7,0-2.5,3.7-2.4,4.9c0.1,2.3,0.9,5.6,2.6,7.4c2.7,2.9,4.2,1.3,8.7,2.3
		c3.9,0.8,12.2,1.8,14.4-1.4c3-4.2,3.5-12.3,1.6-16.8c-9.5-21.6-40.2-23.5-59.2-14.7c-0.2,0.1-0.5,0.2-0.7,0.3
		c-4.3,2.1-6.9,6.2-7.7,10.9c-0.2,0.8-0.2,1.6-0.3,2.5c-0.2,4.1,1,8.1,2.8,11.7c0.9,1.8,2,3.6,3.3,5.2c0.6,0.8,1.3,1.5,2,2.3
		c0.3,0.4,0.7,0.8,1.1,1.1c0.7,0.6,2.1,4.8,1.3,4c-1.8-1.9-5.8-0.7-7,1.6c-0.1,0.3-0.2,0.6-0.3,0.9c-0.2,0.8-0.6,1.5-0.8,2.3
		c-0.7,5.5,1.8,11.4,6.3,14.6c0.8,0.5,1.7,1,2.6,1.1c0.8,0.1,1.7-0.3,2.3-0.8c0.7,4-0.7,8.8-1.5,12.8c-1.4,6.9-5.6,14.3-5.5,17.2
		c0.5,10.2,43.7,9.1,44.2,0.5c0.2-2.8-0.3-5.7-1.2-8.4c-1.3-2.6-0.4-3.3-1.5-6.2c-0.5-1.3-1.1-3.4-2.5-3.7c-2.2-0.4-2.7-0.3-5-0.6
		c-2.5-0.3-7-2.6-7.4-5.4c-0.3-2.3,1.3-3.4,3.1-2.5c1.7,0.8,1.3,2.2,2.8,3.3c1.5,1.2,2.6,1.8,4.5,2.2c3.2,0.7,8.5,0.7,11.6-0.8
		c5.2-2.4,6.9-5.9,7.8-10.9c0.5-2.8,0.8-5.9-0.1-8.7c-1.4-4.2-5.6-7.6-9.8-8.9c-3.4-1.1-8.6-1.9-12.1-0.8c-1.2,0.4-4.4,0.6-4.8,1.8
		c-0.2,0.5,1.7,1.7,1.5,2.2c-1.2,2.4-6.3,0.5-6.4-1.9c0-1.6,0.7-2.9,1.9-3.9c0.6-0.5,1.3-0.8,2-1.1c0.9-0.4,1.6-0.1,2.4-0.3
		c1.1-0.3,0.8-1.6,0.6-2.4c-0.3-1.2-0.7-2.2-0.9-3.4c-0.1-0.9-0.2-1.7-0.4-2.6c-0.6-3.9,0.5-8.3,4-10.5c0.9-0.6,2.3-1.3,3.4-1.2
		c1.3,0.1,2.6,1.3,3.4,2.3c1.2,1.4,0.4,3.7-1.4,4c-1.2,0.2-1.5-0.5-2.2-1.1C192.1,27.7,191.7,27.6,191.4,27.6z"/>
</g>
<g id="SquishyLogo">
	<path fill="#77300C" d="M52.8,107.5c-1.6,0-3.1,0-4.7-0.1c-5.7-0.2-10.7-0.8-15.4-1.7c-0.6-0.1-1.3-0.2-1.9-0.3
		c-2.9-0.5-6.1-1-8.9-2.7c-1.4-0.9-4.2-2.7-4.3-6.3c-0.1-2.9,1.7-4.6,2.7-5.6c0.1-0.1,0.3-0.3,0.4-0.4c-0.1-1.2-0.2-2.3-0.4-3.4
		c-0.6-3.7-1.4-8.2,4.4-12.8c3.3-2.6,6.6-4.6,9.8-5.9c-6.7-3-12.4-8.1-16.3-14.7c-4.7-8.1-6-17.3-3.6-25.9
		c2.6-9.3,9.6-14.7,15.4-18.4C36.8,5,45,2.5,53.8,2.2c0.7,0,1.5,0,2.3,0c12.7,0,22.7,4.1,28.2,11.5c5.3,7.1,5.9,17.1,1.7,25.5
		c-1.8,3.5-4.3,6.5-7.4,8.7c-2.1,1.5-4.4,2.6-6.8,3.3c2.6,1.3,5.2,2.9,7.9,4.9c0.4,0.3,0.9,0.6,1.4,1c2,1.4,4.4,3,5.9,5.3
		c3.6,5.5,3,10.1,1.9,13c-0.3,0.7-0.6,1.4-0.9,2.1c-0.5,1-0.9,2-1.1,2.9c-0.3,1.4,0.4,3.3,1.2,5.2c0.2,0.4,0.4,0.8,0.6,1.3
		c0.8,1.8,1.6,3.7,2,5.6c0.9,4.4-3,7.2-4.2,8.2c-4.4,3.3-10.2,4.5-15.3,5.5C65.4,107,59.3,107.5,52.8,107.5z"/>
	<path fill="#FF9700" d="M84.8,86.8c0.9,2.1,2,4.2,2.4,6.2c0.4,1.9-1.3,3.5-2.9,4.6c-3.9,2.8-9.2,4-13.8,4.8
		c-7.3,1.4-14.9,1.7-22.3,1.5c-5-0.2-10-0.7-14.9-1.6c-3.1-0.6-6.8-0.8-9.6-2.6c-1.3-0.8-2.6-1.7-2.7-3.4c-0.1-2.6,3.1-3,3.1-5.6
		c-0.1-5.8-3-9.2,2.6-13.7c3.6-2.8,7.8-5.4,12.3-6.5c4.9-1.1,12.6,0.3,14.9,5.5c0.6,1.4,1,4.7-0.7,5.5c-0.7,0.3-1.7-0.5-2.3,0
		c-1.9,1.4-0.3,4.5,1.7,4.6c4.2,0.3,5.1-7.1,4.3-9.9c-1.1-3.9-4.7-6.7-8.5-7.8c-2.5-0.7-5.1-1.1-7.7-1.7
		c-16.3-4-27.5-21.6-22.9-38.1c2.1-7.5,7.5-12.3,13.9-16.4C38.4,8.1,46.1,6,53.9,5.7c9.7-0.4,21.3,1.7,27.5,10
		c4.7,6.3,4.8,15,1.4,21.8c-1.5,2.9-3.6,5.5-6.3,7.4c-6.8,4.9-16.8,4.7-23.8,0.3c-5.4-3.3-9-9.8-7.7-16c1.2-6.2,8.1-11,14.1-9.1
		c-1.2,1.5,0.1,4,2,4.1c1.9,0.2,3.5-1.6,3.6-3.5s-1.3-3.6-2.9-4.5c-1.7-0.9-3.6-1-5.5-0.8c-6.9,0.8-13,6.1-14.7,12.8
		c-1.7,6.7,1.2,14.3,6.9,18.2c4.6,3.1,10.3,3.8,15.6,5.4c4.9,1.4,9.5,4,13.6,7c2.1,1.5,4.9,3.1,6.4,5.3c2,3,2.9,6.3,1.6,9.8
		c-0.7,1.8-1.7,3.5-2.1,5.5C82.9,81.8,83.8,84.3,84.8,86.8z"/>
</g>
</svg>
