<?xml version="1.0" encoding="utf-8"?>
<!-- Generator: Adobe Illustrator 19.0.0, SVG Export Plug-In . SVG Version: 6.00 Build 0)  -->
<svg version="1.1" id="Layer_1" xmlns="http://www.w3.org/2000/svg" xmlns:xlink="http://www.w3.org/1999/xlink" x="0px" y="0px"
	 viewBox="-173 -116 612 792" style="enable-background:new -173 -116 612 792;" xml:space="preserve">
<style type="text/css">
	.st0{fill:#691D4B;}
	.st1{fill:#C65FA4;}
	.st2{fill:#FCB138;}
	.st3{fill:#913D1F;}
	.st4{fill:none;stroke:#000000;stroke-miterlimit:10;}
	.st5{fill:#A0A0A0;}
	.st6{fill:#FFFFFF;}
	.st7{fill:#383838;}
	.st8{fill:#2D2D2D;}
	.st9{fill:#D3D3D3;}
</style>
<g>
	<g>
		<path class="st0" d="M363.8,93.3C340.2,39.2,288.6-4.9,232.7-17.9c-8.1-1.9-16.2-5-24.2-8.1c-6.8-2.5-13-5-20.5-6.8
			C163.1-40.3,133.9-44,103.5-44C55.7-44,9.7-34.7-25.7-17.3C-55.5-3-76.6,26.2-83.5,62.9C-94.1,120.7-63,181.6-26.3,217.6
			c-3.1,0.6-5.6,1.2-8.1,1.9c-21.1,6.2-32.9,14.3-36,41c-5.6,40.4,13,83.9,46.6,106.9c5.6,3.7,13.7,8.7,23.6,9.9
			c-1.2,13-4.3,26.7-6.8,39.8c-1.2,5-1.9,9.3-3.1,13.7c-3.7,19.9-12.4,41.6-19.9,60.9c-8.7,21.7-14.9,37.9-14.3,50.3
			c2.5,57.8,116.8,62.1,151.6,62.1c26.1,0,154.7-3.1,158.4-59c1.2-19.9-1.9-39.8-8.7-59c-2.5-6.8-3.1-14.9-3.7-24.2
			c-0.6-9.9-1.9-21.1-5.6-32.3h0.6c44.1,0,78.3-20.5,93.8-55.9c2.5-5.6,4.3-11.8,5.6-18c9.3-43.5-11.2-92.6-44.7-120.5
			c8.1-1.9,15.5-4.3,23-6.8c19.3-7.5,33.6-21.7,41.6-41.6C378.1,159.8,376.9,123.1,363.8,93.3z M319.1,212
			c-28.6,11.2-64,14.9-93.2,3.7c-32.9-12.4-52.2-49.7-43.5-83.9c2.5-9.3,6.8-18,14.3-24.2c7.5-5.6,19.3-6.8,26.7-1.2
			c-3.1-13.7-18-23-31.7-19.9c-9.9,2.5-18,9.9-22.4,19.3s-5.6,19.9-5.6,29.8c0,27.3,6.8,53.4,13,80.2c-6.8,1.9-13-3.1-19.9-1.2
			c-5,1.2-12.4,8.1-16.2,11.2s-6.2,7.5-5.6,12.4s6.2,8.1,10.6,6.8c1.9-0.6,3.1-1.9,4.3-3.1c11.8-9.9,27.3-14.9,42.9-15.5
			c16.8-1.2,33.6-2.5,49.7,1.2c9.3,1.9,18,5,27.3,8.1c3.1,1.2,6.2,1.9,9.3,3.1c14.3,6.2,26.1,21.1,34.2,34.2
			c9.3,14.9,16.2,31.7,18,49.1c1.2,9.9,1.2,19.9-1.2,29.8c-1.2,5-2.5,9.9-4.3,14.3c-22.4,49.7-83.9,54.1-129.2,34.8
			c-8.7-3.7-11.8-6.2-17.4-13.7c-3.7-5.6-8.7-10.6-13-1.9c-1.2,3.1-1.2,6.8-1.2,10.6c1.9,32.3,46,6.2,59.6,28
			c12.4,19.9,6.8,45.4,14.3,67.1c5.6,16.8,8.7,34.2,7.5,52.2c-3.1,53.4-271.5,60.3-274.6-3.1c-0.6-18,25.5-64,34.2-106.9
			c5-24.2,13.7-54.7,9.3-79.5c-3.7,3.1-9.3,5-14.3,5c-6.2-0.6-11.2-3.7-16.2-6.8c-28.6-19.9-43.5-56.5-39.1-90.7
			c2.5-17.4,7.5-21.7,23.6-26.1c8.1-2.5,28.6-2.5,28-15.5c-0.6-5-4.3-8.7-8.1-11.8c-37.3-34.2-66.5-92-56.5-142.9
			c5.6-28.6,21.7-54.7,47.8-67.7C37.7-30,121.5-35,181.8-17c15.5,4.3,30.4,11.2,46,14.9C279.4,10.3,326,50.7,347.1,99.2
			C363.8,137.4,362,195.2,319.1,212z"/>
	</g>
	<path class="st1" d="M196.7,109.4c-3.7,2.5-6.8,5.6-9.3,8.7c-7.5,11.2-9.3,25.5-6.2,39.1c5,26.1,20.5,49.1,46,59
		c22.4,8.7,47.2,7.5,70.2,2.5c7.5-1.9,14.9-3.7,22.4-6.8c42.9-16.8,44.7-74.6,28.6-111.8C327.3,52.3,280.7,11.3,229.1-1.2
		c-15.5-3.7-30.4-10.6-46-14.9C122.8-33.5,39-29.1-18.2-1.8c-26.7,13-42.9,38.5-47.8,67.7c-1.2,5-1.2,9.9-1.9,15.5
		c-1.2,25.5,6.2,50.3,17.4,72.7c5.6,11.2,12.4,22.4,20.5,32.3c3.7,5,8.1,9.3,12.4,14.3c1.9,2.5,4.3,5,6.8,6.8
		c4.3,3.7,7.5,6.2,2.5,11.2c-10.6,10.6-30.4,9.9-37.3,23.6c-0.6,1.9-1.2,3.7-1.9,5.6c-1.2,5-3.7,9.3-5,14.3
		c-4.3,34.2,11.2,70.8,39.1,90.7c5,3.1,10.6,6.2,16.2,6.8c5,0.6,10.6-1.9,14.3-5c4.3,24.9-4.3,54.7-9.3,79.5
		C-0.9,477.1-27,523-26.4,541.1c3.1,63.4,271.5,56.5,274.6,3.1c1.2-17.4-1.9-35.4-7.5-52.2c-7.5-21.1-1.9-47.2-14.3-67.1
		c-13.7-21.7-57.8,4.3-59.6-28c0-3.7-0.6-7.5,1.2-10.6c3.7-8.7,8.7-3.7,13,1.9c5,7.5,8.1,9.9,17.4,13.7
		c44.7,19.3,106.9,14.9,129.2-34.8c1.9-4.3,3.7-9.3,4.3-14.3c0.6-3.7,1.2-7.5,1.2-11.2c1.2-16.8-2.5-34.2-8.7-49.7
		c-3.1-8.1-7.5-15.5-12.4-22.4c-2.5-3.1-5-6.2-7.5-9.9c-2.5-3.1-4.3-7.5-7.5-9.9c-1.2-1.2-3.1-2.5-5-3.7
		c-10.6-6.8-20.5-13-32.3-15.5c-12.4-3.1-24.2-5.6-36.7-5.6c-24.9-0.6-49.7,5-71.5,16.8c-3.1,1.9-6.8,3.7-9.9,2.5
		c-5.6-1.2-6.8-8.7-3.7-13.7s8.1-6.8,13.7-8.7c21.7-6.8,45.4-6.8,68.3-3.7c-25.5-3.7-42.2-31.1-46.6-55.9
		c-3.7-21.7,0.6-50.9,19.9-65.2c2.5-1.9,5-3.1,7.5-3.7c9.9-3.1,22.4,2.5,23.6,12.4C214.1,102,204.8,104.5,196.7,109.4z"/>
</g>
<g>
	<path class="st2" d="M-407.9,465.5C-420.3,578-610.5,587.3-693.7,584.2c-97.5-3.7-163.4-21.7-182-54.1
		c-34.8-60.9,67.7-139.8,124.9-152.8c30.4-6.8,78.3,1.9,92.6,34.2c3.7,8.7,6.2,29.2-4.3,34.2c-4.3,1.9-10.6-3.1-14.3,0
		c-11.8,8.7-1.9,28,10.6,28.6c26.1,1.9,31.7-44.1,26.7-61.5c-6.8-24.2-29.2-41.6-52.8-48.5c-15.5-4.3-31.7-6.8-47.8-10.6
		C-841.4,328.8-911,219.5-882.4,117c13-46.6,46.6-76.4,86.4-101.9c41-26.1,88.8-39.1,137.3-41c60.3-2.5,132.3,10.6,170.9,62.1
		c29.2,39.1,29.8,93.2,8.7,135.4c-9.3,18-22.4,34.2-39.1,46c-42.2,30.4-104.4,29.2-147.9,1.9c-33.6-20.5-55.9-60.9-47.8-99.4
		c7.5-38.5,50.3-68.3,87.6-56.5c-7.5,9.3,0.6,24.9,12.4,25.5c11.8,1.2,21.7-9.9,22.4-21.7c0.6-11.8-8.1-22.4-18-28
		c-10.6-5.6-22.4-6.2-34.2-5c-42.9,5-80.8,37.9-91.3,79.5s7.5,88.8,42.9,113.1c28.6,19.3,64,23.6,96.9,33.6
		C-512.2,285.3-398.5,386.6-407.9,465.5z"/>
	<path class="st3" d="M-561.3,255.5c19.9-3.7,37.9-11.8,53.4-23c18.6-13,33.6-31.1,44.1-52.2c25.5-50.3,21.7-110.6-9.9-154.1
		c-32.9-44.7-93.8-69.6-171.5-69.6c-5,0-9.3,0-13.7,0c-53.4,1.9-104.4,17.4-146,44.1c-35.4,22.4-77.7,55.3-93.8,111.8
		c-14.9,52.2-6.8,108.1,21.7,157.8c25.5,43.5,64.6,76.4,109.4,93.8c-46,15.5-104.4,59-124.9,105c-11.2,24.9-10.6,49.1,1.9,69.6
		c21.7,37.3,87.6,59,196.3,62.8c8.7,0.6,17.4,0.6,26.7,0.6c78.9,0,263.4-13,277.1-134.8C-381.1,385.9-478.7,292.7-561.3,255.5z
		 M-407.9,465.5C-420.3,578-610.5,587.3-693.7,584.2c-97.5-3.7-163.4-21.7-182-54.1c-34.8-60.9,67.7-139.8,124.9-152.8
		c30.4-6.8,78.3,1.9,92.6,34.2c3.7,8.7,6.2,29.2-4.3,34.2c-4.3,1.9-10.6-3.1-14.3,0c-11.8,8.7-1.9,28,10.6,28.6
		c26.1,1.9,31.7-44.1,26.7-61.5c-6.8-24.2-29.2-41.6-52.8-48.5c-15.5-4.3-31.7-6.8-47.8-10.6C-841.4,328.8-911,219.5-882.4,117
		c13-46.6,46.6-76.4,86.4-101.9c41-26.1,88.8-39.1,137.3-41c60.3-2.5,132.3,10.6,170.9,62.1c29.2,39.1,29.8,93.2,8.7,135.4
		c-9.3,18-22.4,34.2-39.1,46c-42.2,30.4-104.4,29.2-147.9,1.9c-33.6-20.5-55.9-60.9-47.8-99.4c7.5-38.5,50.3-68.3,87.6-56.5
		c-7.5,9.3,0.6,24.9,12.4,25.5c11.8,1.2,21.7-9.9,22.4-21.7c0.6-11.8-8.1-22.4-18-28c-10.6-5.6-22.4-6.2-34.2-5
		c-42.9,5-80.8,37.9-91.3,79.5s7.5,88.8,42.9,113.1c28.6,19.3,64,23.6,96.9,33.6C-512.2,285.3-398.5,386.6-407.9,465.5z"/>
</g>
<path class="st4" d="M978.3,564.6c0.4,15.8,0,17.2-9.7,29.8c-12.4,16-50.7,32.9-70.9,33.7c-33.8,1.3-99.7-4-141.1-47.2
	c-14.3-14.9-14.9-38.4-16.2-59.1c-1.3-20.4-1.5-41.3,3.8-61.1c5.4-20.5,16.3-39.1,27.1-57.3"/>
<path class="st4" d="M897.8,288.2c-1.2-39.2,4-63.3,16.2-95.2c12.2-32,45.7-65.2,72.1-87c21.2-17.6,49.5-28.4,77.2-25.6
	c27,2.8,54.7,22.8,75.7,39.1c27.2,21.1,51.1,49.1,56.4,84.7c6.8,45.4,4.9,91.2,5.9,137c1.3,58.4-1.7,118-25.2,172.3
	c-20.9,48.1-45.8,97-108.1,97.2c-106.4,0.4-151-130.4-75-190.1"/>
<path class="st4" d="M807.1,607.5c-11.7,14.6-32.7,21.2-51.2,23.9c-32.1,4.7-80.4-10.3-96.9-19.1c-5.8-3.1-24-20.3-27-25.7
	C600.5,530.1,603.3,472,610.8,410c4.9-40.7,11.9-81.1,20.8-121c7.6-34,18.5-68.7,35.6-99.7c10.8-19.6,40.6-88.6,107.7-115.7
	c26.8-10.8,103.9,2.1,123.2,22.9c19.9,21.5,28,43.5,28.5,72.7"/>
<g id="CLICKER">
	<g>
		<path class="st5" d="M819-443.6c19.6-13.7,35-64.1-31.4-78.4c-42.5-9.1-57.2,29.3-52.5,42c-17.2-41-65.4-38.8-94.4-13.5
			c-42.8,37.4-28.3,101,19.9,108.1c-66.7-2-71.3,69.3-49.3,96.7c29.5,36.6,80,22,89.6,0.8c-7.5,29.2,17.7,62.7,53.1,60.5
			c53-3.3,55.7-47,43.3-71.3c19.3,25.3,48.7,32,68.6-1.2c12-20,7.5-58.7-36.4-61.2c44,2.6,58.1-25,51.2-52.8
			C873.5-443.3,851.2-457.8,819-443.6z"/>
	</g>
	<g>
		<path class="st6" d="M775.2-523.4c3.8,0,8,0.4,12.4,1.4c66.4,14.3,51,64.7,31.4,78.4c8.5-3.8,16.3-5.5,23.3-5.5
			c19.5,0,33.1,13.6,38.4,35.3c6.5,26.5-6.1,52.9-45.7,52.9c-1.8,0-3.6-0.1-5.6-0.2c44,2.6,48.4,41.2,36.4,61.2
			c-9.5,15.8-21.1,22.6-32.8,22.6c-12.8,0-25.7-8.1-35.8-21.4c12.4,24.3,9.7,68-43.3,71.3c-1.1,0.1-2.2,0.1-3.3,0.1
			c-33.6,0-57-32.4-49.7-60.6c-5.4,11.8-23.4,21.6-43.4,21.6c-15.9,0-33.1-6.2-46.2-22.4c-21.7-27-17.5-96.7,46.6-96.7
			c0.9,0,1.8,0,2.7,0c-48.2-7.2-62.7-70.8-19.9-108.1c13.3-11.6,30.5-18.3,47-18.3c19.6,0,38.1,9.5,47.4,31.8
			C731-491.4,742.3-523.4,775.2-523.4 M775.2-563.4C775.2-563.4,775.2-563.4,775.2-563.4c-19.6,0-37.8,6.5-52,18.4
			c-10.8-4.4-22.8-6.7-35.4-6.7c0,0,0,0,0,0c-26.1,0-52.8,10.3-73.3,28.2c-16.6,14.5-28.6,32.9-34.6,53.1
			c-5.8,19.5-5.9,39.8-0.4,58.8c1.6,5.4,3.6,10.6,6.1,15.6c-6.3,6.7-11.7,14.6-15.9,23.4c-16.7,34.9-12.3,80.8,10.5,109.2
			c10.1,12.6,22.5,22.2,36.7,28.7c12.7,5.7,26.4,8.6,40.6,8.6c5.9,0,11.8-0.5,17.5-1.5c1.2,1.8,2.4,3.5,3.7,5.1
			c17.5,22.5,43.7,35.4,72,35.4c1.9,0,3.9-0.1,5.8-0.2c46.6-2.9,67.6-28.1,76-42.9c1.3-2.3,2.5-4.6,3.6-7
			c12.8-0.5,25.3-4.6,36.3-11.9c10.8-7.1,20.2-17.2,27.9-30c13-21.6,15-49.3,5.7-72.5c0.1-0.1,0.1-0.1,0.2-0.2
			c15.1-19.2,20-45.3,13.5-71.5c-4.5-18.3-13.3-34-25.3-45.3c-5.6-5.3-11.8-9.6-18.5-12.8c-0.2-3.9-0.7-7.8-1.4-11.7
			c-3.4-17.1-12.6-32.3-26.5-44.1c-13.2-11.2-30.7-19.2-51.8-23.8C789-562.7,782-563.4,775.2-563.4L775.2-563.4L775.2-563.4z"/>
	</g>
	<g>
		<path class="st5" d="M775.2-523.4c3.8,0,8,0.4,12.4,1.4c66.4,14.3,51,64.7,31.4,78.4c8.5-3.8,16.3-5.5,23.3-5.5
			c19.5,0,33.1,13.6,38.4,35.3c6.5,26.5-6.1,52.9-45.7,52.9c-1.8,0-3.6-0.1-5.6-0.2c44,2.6,48.4,41.2,36.4,61.2
			c-9.5,15.8-21.1,22.6-32.8,22.6c-12.8,0-25.7-8.1-35.8-21.4c12.4,24.3,9.7,68-43.3,71.3c-1.1,0.1-2.2,0.1-3.3,0.1
			c-33.6,0-57-32.4-49.7-60.6c-5.4,11.8-23.4,21.6-43.4,21.6c-15.9,0-33.1-6.2-46.2-22.4c-21.7-27-17.5-96.7,46.6-96.7
			c0.9,0,1.8,0,2.7,0c-48.2-7.2-62.7-70.8-19.9-108.1c13.3-11.6,30.5-18.3,47-18.3c19.6,0,38.1,9.5,47.4,31.8
			C731-491.4,742.3-523.4,775.2-523.4 M775.2-563.4C775.2-563.4,775.2-563.4,775.2-563.4c-19.6,0-37.8,6.5-52,18.4
			c-10.8-4.4-22.8-6.7-35.4-6.7c0,0,0,0,0,0c-26.1,0-52.8,10.3-73.3,28.2c-16.6,14.5-28.6,32.9-34.6,53.1
			c-5.8,19.5-5.9,39.8-0.4,58.8c1.6,5.4,3.6,10.6,6.1,15.6c-6.3,6.7-11.7,14.6-15.9,23.4c-16.7,34.9-12.3,80.8,10.5,109.2
			c10.1,12.6,22.5,22.2,36.7,28.7c12.7,5.7,26.4,8.6,40.6,8.6c5.9,0,11.8-0.5,17.5-1.5c1.2,1.8,2.4,3.5,3.7,5.1
			c17.5,22.5,43.7,35.4,72,35.4c1.9,0,3.9-0.1,5.8-0.2c46.6-2.9,67.6-28.1,76-42.9c1.3-2.3,2.5-4.6,3.6-7
			c12.8-0.5,25.3-4.6,36.3-11.9c10.8-7.1,20.2-17.2,27.9-30c13-21.6,15-49.3,5.7-72.5c0.1-0.1,0.1-0.1,0.2-0.2
			c15.1-19.2,20-45.3,13.5-71.5c-4.5-18.3-13.3-34-25.3-45.3c-5.6-5.3-11.8-9.6-18.5-12.8c-0.2-3.9-0.7-7.8-1.4-11.7
			c-3.4-17.1-12.6-32.3-26.5-44.1c-13.2-11.2-30.7-19.2-51.8-23.8C789-562.7,782-563.4,775.2-563.4L775.2-563.4L775.2-563.4z"/>
	</g>
	<g>
		<g>
			<path class="st7" d="M768.5-196.7c-1.9,0.1-3.9,0.2-5.8,0.2c-14.3,0-28.6-3.4-41.4-9.9c-6.5-3.4-12.4-7.6-18.1-12.2
				c-5.3-4.4-11.9-7.5-11.8-15.6c0-4,1.9-7.9,1.2-11.9c-0.1-0.6-0.3-1.3-0.7-1.8c-0.4-0.4-0.9-0.7-1.4-1c-3.7-1.9-8.2-2-12-0.3
				c-8.3,3.7-7.1,20-17.5,17c-4.3-1.2-7.8-4.3-12.4-5.5c-6.8-1.7-13.3-3.6-19.7-6.5c-14.2-6.4-26.6-16.1-36.7-28.7
				c-22.8-28.4-27.2-74.3-10.5-109.2c4.2-8.7,9.4-19.5,20.2-20.6c1.5-0.2,3-0.1,4.2-0.9c1.6-0.9,2.3-3.1,1.7-4.8
				c-0.7-1.8-2.6-2.9-4.3-3.8c-3.2-1.7-6.6-3.4-10.2-3.6c-0.4,0-0.8,0-1.1-0.2c-1.7-1.1-2.2-10.6-2.6-12.5
				c-1.2-5.8-1.9-11.6-2.1-17.5c-0.4-11.4,1.1-22.9,4.4-33.8c5.9-19.9,17.6-38,33.9-52.4c-3.9,2.6-7.7,5.5-11.3,8.7
				c-16.6,14.5-28.6,32.9-34.6,53.1c-5.8,19.5-5.9,39.8-0.4,58.8c1.6,5.4,3.6,10.6,6.1,15.6c-6.3,6.7-11.7,14.6-15.9,23.4
				c-16.7,34.9-12.3,80.8,10.5,109.2c10.1,12.6,22.5,22.2,36.7,28.7c12.7,5.7,26.4,8.6,40.6,8.6c5.9,0,11.8-0.5,17.5-1.5
				c1.2,1.8,2.4,3.5,3.7,5.1c17.5,22.5,43.7,35.4,72,35.4c1.9,0,3.9-0.1,5.8-0.2c29.7-1.9,49.1-12.8,61.3-24.3
				C806-204.2,789.9-198.1,768.5-196.7z"/>
		</g>
		<g>
			<path class="st7" d="M848-247.2c-2.6,0.4-5.1,0.9-7.4,1.6c-2.7,0.8-5.8,2.6-5.6,5.3c0.7,10.5,33.4-6.4,37.4-9
				c3.8-2.5,7.4-5.3,10.8-8.5C873.6-248.8,860.1-249.1,848-247.2z"/>
		</g>
	</g>
	<g>
		<g>
			<path class="st8" d="M735.2-480c-0.4-1-0.6-2.3-0.8-3.6c-1-1.4-2-2.8-3.1-4.1C732.7-485.3,734-482.8,735.2-480z"/>
		</g>
	</g>
	<g>
		<g>
			<path class="st9" d="M787.5-529c53.3,11.5,60.6,43.3,52.4,66.7c15.8-22.6,18.4-65.9-45.8-79.7c-13.6-2.9-28.2-2-40.1,5.6
				c-4.5,2.9-8.5,6.7-11.7,11c-2.5,3.3-8.6,10.3-8.9,14.2c-0.2,2.5,1.6,4.6,3.4,6.4c0.5,0.5,1.1,1.1,1.8,1.3c2,0.6,3.8-1.7,4-3.7
				c0.5-3.6-1.3-7.5,0.1-10.9c0.8-1.9,2.4-3.3,4-4.6C757.5-531.7,774.4-531.8,787.5-529z"/>
		</g>
		<g>
			<path class="st9" d="M823.5-439.3c1.7,0.4,3.7-0.8,5.2-2.1c4.7-4.1,15.5-4.2,21.9-4.1c7,0.1,13.9,1.7,20,5.2
				c12.9,7.3,20.2,21.3,23.6,35.3c2.5,10.2,2.5,20.3-0.2,29.3c8.7-11.4,10.6-26.8,6.8-42.3c-3.6-14.7-11.5-29.4-25.6-36.3
				c-16.1-7.9-35.2-3.4-50.5,4.1c-0.7,0.3-1.4,0.7-2,1.3c-1,1-1.2,2.5-1.4,3.8c-0.3,1.9-0.4,4.1,1,5.3
				C822.7-439.6,823.1-439.4,823.5-439.3z"/>
		</g>
		<g>
			<path class="st9" d="M641.3-376.3c1.7-0.3,3.5-0.7,5.2-1.1c1.2-0.3,2.5-0.6,3.3-1.6c1.3-1.7,0.2-4.3-1.4-5.8
				c-3.1-3.1-7.7-4.7-12.1-4.2c-2.1,0.3-4.2,1-6.2,1.8c-20.3,7.6-38.7,19.9-46.7,41.3c3.9-10.3,17.6-16.7,26.4-21.7
				C619.3-372.9,630.5-374.2,641.3-376.3z"/>
		</g>
		<g>
			<path class="st9" d="M871.7-348.7c-0.5-0.3-1-0.6-1.5-1c-9,3.9-20.5,5.8-34.7,5c44.3,2.6,53.6,37.2,45.8,61.1
				c0.9-1.3,1.7-2.6,2.5-4c7-11.6,8.5-26.8,4.3-39.6c-5.6-17-21.6-27.6-38.8-30.3c-3.5-0.6-7.2-0.6-10.6,0.5s-6.4,3.7-7.6,7.1
				c-0.3,0.9-0.4,1.8-0.2,2.7c0.4,1.9,2.4,3.1,4.3,3.4c1.9,0.3,3.9-0.2,5.8-0.4c2.5-0.3,5-0.2,7.4,0.3"/>
		</g>
		<g>
			<path class="st9" d="M619.3-496.3c14.8-12.9,34.3-21.1,54-21c9.6,0,18.8,2.2,27.5,6.4c9.8,4.8,12,13.5,19.6,21
				c2.7,2.6,5.9,5.3,6.2,9.1c0.2,3.5-2.1,7.6,0.4,10c1.6,1.5,4.3,1.1,5.9-0.3c1.7-1.4,2.5-3.5,3.3-5.5c2-5,3.9-11,0.9-15.6
				c-1-1.6-2.5-2.8-3.9-4.2c-8.3-7.9-10.6-17.7-20.7-24.4c-8.6-5.7-18.7-8.7-28.9-9.3c-20.9-1.2-42,7.2-57.7,20.9
				c-11.1,9.7-18.8,20.9-23.5,32.6C606.7-483.6,612.3-490.3,619.3-496.3z"/>
		</g>
		<g>
			<path class="st9" d="M798.1-273c0.2,1.6,0.5,3.1,1,4.6c4.8,14.9,9.1,26.3,3.9,42.2c6.6-9.1,9-19.3,8.5-30.3
				c-0.5-11,0.9-21.1-5.9-30.7c-0.5-0.8-1.2-1.6-2.1-1.7c-1.6-0.3-2.9,1.4-3.5,2.9C798.2-282,797.5-277.5,798.1-273z"/>
		</g>
	</g>
</g>
</svg>
