<?xml version="1.0" encoding="utf-8"?>
<!-- Generator: Adobe Illustrator 19.0.0, SVG Export Plug-In . SVG Version: 6.00 Build 0)  -->
<svg version="1.1" id="Layer_1" xmlns="http://www.w3.org/2000/svg" xmlns:xlink="http://www.w3.org/1999/xlink" x="0px" y="0px"
	 viewBox="445 -116 1849.1 792" style="enable-background:new 445 -116 1849.1 792;" xml:space="preserve">
<g>
	<g>
		<path style="fill:#691D4B;" d="M-1218.8-22.7c-23.6-54.1-75.2-98.2-131.1-111.2c-8.1-1.9-16.2-5-24.2-8.1c-6.8-2.5-13-5-20.5-6.8
			c-24.9-7.5-54.1-11.2-84.5-11.2c-47.8,0-93.8,9.3-129.2,26.7c-29.8,14.3-50.9,43.5-57.8,80.2c-10.6,57.8,20.5,118.7,57.2,154.7
			c-3.1,0.6-5.6,1.2-8.1,1.9c-21.1,6.2-32.9,14.3-36,41c-5.6,40.4,13,83.9,46.6,106.9c5.6,3.7,13.7,8.7,23.6,9.9
			c-1.2,13-4.3,26.7-6.8,39.8c-1.2,5-1.9,9.3-3.1,13.7c-3.7,19.9-12.4,41.6-19.9,60.9c-8.7,21.7-14.9,37.9-14.3,50.3
			c2.5,57.8,116.8,62.1,151.6,62.1c26.1,0,154.7-3.1,158.4-59c1.2-19.9-1.9-39.8-8.7-59c-2.5-6.8-3.1-14.9-3.7-24.2
			c-0.6-9.9-1.9-21.1-5.6-32.3h0.6c44.1,0,78.3-20.5,93.8-55.9c2.5-5.6,4.3-11.8,5.6-18c9.3-43.5-11.2-92.6-44.7-120.5
			c8.1-1.9,15.5-4.3,23-6.8c19.3-7.5,33.6-21.7,41.6-41.6C-1204.5,43.8-1205.7,7.1-1218.8-22.7z M-1263.5,96
			c-28.6,11.2-64,14.9-93.2,3.7c-32.9-12.4-52.2-49.7-43.5-83.9c2.5-9.3,6.8-18,14.3-24.2c7.5-5.6,19.3-6.8,26.7-1.2
			c-3.1-13.7-18-23-31.7-19.9c-9.9,2.5-18,9.9-22.4,19.3s-5.6,19.9-5.6,29.8c0,27.3,6.8,53.4,13,80.2c-6.8,1.9-13-3.1-19.9-1.2
			c-5,1.2-12.4,8.1-16.2,11.2s-6.2,7.5-5.6,12.4s6.2,8.1,10.6,6.8c1.9-0.6,3.1-1.9,4.3-3.1c11.8-9.9,27.3-14.9,42.9-15.5
			c16.8-1.2,33.6-2.5,49.7,1.2c9.3,1.9,18,5,27.3,8.1c3.1,1.2,6.2,1.9,9.3,3.1c14.3,6.2,26.1,21.1,34.2,34.2
			c9.3,14.9,16.2,31.7,18,49.1c1.2,9.9,1.2,19.9-1.2,29.8c-1.2,5-2.5,9.9-4.3,14.3c-22.4,49.7-83.9,54.1-129.2,34.8
			c-8.7-3.7-11.8-6.2-17.4-13.7c-3.7-5.6-8.7-10.6-13-1.9c-1.2,3.1-1.2,6.8-1.2,10.6c1.9,32.3,46,6.2,59.6,28
			c12.4,19.9,6.8,45.4,14.3,67.1c5.6,16.8,8.7,34.2,7.5,52.2c-3.1,53.4-271.5,60.3-274.6-3.1c-0.6-18,25.5-64,34.2-106.9
			c5-24.2,13.7-54.7,9.3-79.5c-3.7,3.1-9.3,5-14.3,5c-6.2-0.6-11.2-3.7-16.2-6.8c-28.6-19.9-43.5-56.5-39.1-90.7
			c2.5-17.4,7.5-21.7,23.6-26.1c8.1-2.5,28.6-2.5,28-15.5c-0.6-5-4.3-8.7-8.1-11.8c-37.3-34.2-66.5-92-56.5-142.9
			c5.6-28.6,21.7-54.7,47.8-67.7c57.2-27.3,141-32.3,201.3-14.3c15.5,4.3,30.4,11.2,46,14.9c51.6,12.4,98.2,52.8,119.3,101.3
			C-1218.8,21.4-1220.6,79.2-1263.5,96z"/>
	</g>
	<path style="fill:#C65FA4;" d="M-1385.9-6.6c-3.7,2.5-6.8,5.6-9.3,8.7c-7.5,11.2-9.3,25.5-6.2,39.1c5,26.1,20.5,49.1,46,59
		c22.4,8.7,47.2,7.5,70.2,2.5c7.5-1.9,14.9-3.7,22.4-6.8c42.9-16.8,44.7-74.6,28.6-111.8c-21.1-47.8-67.7-88.8-119.3-101.3
		c-15.5-3.7-30.4-10.6-46-14.9c-60.3-17.4-144.1-13-201.3,14.3c-26.7,13-42.9,38.5-47.8,67.7c-1.2,5-1.2,9.9-1.9,15.5
		c-1.2,25.5,6.2,50.3,17.4,72.7c5.6,11.2,12.4,22.4,20.5,32.3c3.7,5,8.1,9.3,12.4,14.3c1.9,2.5,4.3,5,6.8,6.8
		c4.3,3.7,7.5,6.2,2.5,11.2c-10.6,10.6-30.4,9.9-37.3,23.6c-0.6,1.9-1.2,3.7-1.9,5.6c-1.2,5-3.7,9.3-5,14.3
		c-4.3,34.2,11.2,70.8,39.1,90.7c5,3.1,10.6,6.2,16.2,6.8c5,0.6,10.6-1.9,14.3-5c4.3,24.9-4.3,54.7-9.3,79.5
		c-8.7,42.9-34.8,88.8-34.2,106.9c3.1,63.4,271.5,56.5,274.6,3.1c1.2-17.4-1.9-35.4-7.5-52.2c-7.5-21.1-1.9-47.2-14.3-67.1
		c-13.7-21.7-57.8,4.3-59.6-28c0-3.7-0.6-7.5,1.2-10.6c3.7-8.7,8.7-3.7,13,1.9c5,7.5,8.1,9.9,17.4,13.7
		c44.7,19.3,106.9,14.9,129.2-34.8c1.9-4.3,3.7-9.3,4.3-14.3c0.6-3.7,1.2-7.5,1.2-11.2c1.2-16.8-2.5-34.2-8.7-49.7
		c-3.1-8.1-7.5-15.5-12.4-22.4c-2.5-3.1-5-6.2-7.5-9.9c-2.5-3.1-4.3-7.5-7.5-9.9c-1.2-1.2-3.1-2.5-5-3.7
		c-10.6-6.8-20.5-13-32.3-15.5c-12.4-3.1-24.2-5.6-36.7-5.6c-24.9-0.6-49.7,5-71.5,16.8c-3.1,1.9-6.8,3.7-9.9,2.5
		c-5.6-1.2-6.8-8.7-3.7-13.7s8.1-6.8,13.7-8.7c21.7-6.8,45.4-6.8,68.3-3.7c-25.5-3.7-42.2-31.1-46.6-55.9
		c-3.7-21.7,0.6-50.9,19.9-65.2c2.5-1.9,5-3.1,7.5-3.7c9.9-3.1,22.4,2.5,23.6,12.4C-1368.5-14-1377.8-11.5-1385.9-6.6z"/>
</g>
<g>
	<path style="fill:#FCB138;" d="M-1990.5,349.5c-12.4,112.5-202.6,121.8-285.8,118.7c-97.5-3.7-163.4-21.7-182-54.1
		c-34.8-60.9,67.7-139.8,124.9-152.8c30.4-6.8,78.3,1.9,92.6,34.2c3.7,8.7,6.2,29.2-4.3,34.2c-4.3,1.9-10.6-3.1-14.3,0
		c-11.8,8.7-1.9,28,10.6,28.6c26.1,1.9,31.7-44.1,26.7-61.5c-6.8-24.2-29.2-41.6-52.8-48.5c-15.5-4.3-31.7-6.8-47.8-10.6
		C-2424,212.8-2493.6,103.5-2465,1c13-46.6,46.6-76.4,86.4-101.9c41-26.1,88.8-39.1,137.3-41c60.3-2.5,132.3,10.6,170.9,62.1
		c29.2,39.1,29.8,93.2,8.7,135.4c-9.3,18-22.4,34.2-39.1,46c-42.2,30.4-104.4,29.2-147.9,1.9c-33.6-20.5-55.9-60.9-47.8-99.4
		c7.5-38.5,50.3-68.3,87.6-56.5c-7.5,9.3,0.6,24.9,12.4,25.5c11.8,1.2,21.7-9.9,22.4-21.7c0.6-11.8-8.1-22.4-18-28
		c-10.6-5.6-22.4-6.2-34.2-5c-42.9,5-80.8,37.9-91.3,79.5s7.5,88.8,42.9,113.1c28.6,19.3,64,23.6,96.9,33.6
		C-2094.8,169.3-1981.1,270.6-1990.5,349.5z"/>
	<path style="fill:#913D1F;" d="M-2143.9,139.5c19.9-3.7,37.9-11.8,53.4-23c18.6-13,33.6-31.1,44.1-52.2
		c25.5-50.3,21.7-110.6-9.9-154.1c-32.9-44.7-93.8-69.6-171.5-69.6c-5,0-9.3,0-13.7,0c-53.4,1.9-104.4,17.4-146,44.1
		c-35.4,22.4-77.7,55.3-93.8,111.8c-14.9,52.2-6.8,108.1,21.7,157.8c25.5,43.5,64.6,76.4,109.4,93.8c-46,15.5-104.4,59-124.9,105
		c-11.2,24.9-10.6,49.1,1.9,69.6c21.7,37.3,87.6,59,196.3,62.8c8.7,0.6,17.4,0.6,26.7,0.6c78.9,0,263.4-13,277.1-134.8
		C-1963.7,269.9-2061.3,176.7-2143.9,139.5z M-1990.5,349.5c-12.4,112.5-202.6,121.8-285.8,118.7c-97.5-3.7-163.4-21.7-182-54.1
		c-34.8-60.9,67.7-139.8,124.9-152.8c30.4-6.8,78.3,1.9,92.6,34.2c3.7,8.7,6.2,29.2-4.3,34.2c-4.3,1.9-10.6-3.1-14.3,0
		c-11.8,8.7-1.9,28,10.6,28.6c26.1,1.9,31.7-44.1,26.7-61.5c-6.8-24.2-29.2-41.6-52.8-48.5c-15.5-4.3-31.7-6.8-47.8-10.6
		C-2424,212.8-2493.6,103.5-2465,1c13-46.6,46.6-76.4,86.4-101.9c41-26.1,88.8-39.1,137.3-41c60.3-2.5,132.3,10.6,170.9,62.1
		c29.2,39.1,29.8,93.2,8.7,135.4c-9.3,18-22.4,34.2-39.1,46c-42.2,30.4-104.4,29.2-147.9,1.9c-33.6-20.5-55.9-60.9-47.8-99.4
		c7.5-38.5,50.3-68.3,87.6-56.5c-7.5,9.3,0.6,24.9,12.4,25.5c11.8,1.2,21.7-9.9,22.4-21.7c0.6-11.8-8.1-22.4-18-28
		c-10.6-5.6-22.4-6.2-34.2-5c-42.9,5-80.8,37.9-91.3,79.5s7.5,88.8,42.9,113.1c28.6,19.3,64,23.6,96.9,33.6
		C-2094.8,169.3-1981.1,270.6-1990.5,349.5z"/>
</g>
<g id="CLOUD">
	<g id="XMLID_81_">
		<path id="XMLID_40_" style="fill:#A0A0A0;" d="M-1366.2-936.4c36.2-25.3,64.9-118.8-58.1-145.3c-78.8-16.9-105.9,54.2-97.2,77.9
			c-31.9-75.9-121.2-71.9-174.9-24.9c-79.2,69.2-52.4,187,36.8,200.3c-123.5-3.7-132.1,128.4-91.4,179c54.6,67.8,148.2,40.7,166,1.5
			c-13.8,54.1,32.8,116.2,98.3,112.1c98.2-6.2,103.3-87.1,80.3-132.1c35.8,46.9,90.1,59.3,127.1-2.2c22.3-37.1,14-108.7-67.4-113.4
			c81.4,4.7,107.6-46.4,94.9-97.7C-1265.3-935.9-1306.7-962.8-1366.2-936.4z"/>
	</g>
	<g id="XMLID_76_">
		<path id="XMLID_35_" style="fill:#FFFFFF;" d="M-1447.3-1084.2c7.1,0,14.8,0.8,23,2.6c123.1,26.5,94.4,119.9,58.1,145.3
			c15.7-7,30.2-10.2,43.2-10.2c36.2,0,61.2,25.2,71.1,65.4c12.1,49.1-11.3,98.1-84.6,98.1c-3.3,0-6.8-0.1-10.3-0.3
			c81.4,4.7,89.7,76.3,67.4,113.4c-17.6,29.3-39.2,41.8-60.8,41.8c-23.7,0-47.5-15.1-66.3-39.6c23,45,17.9,126-80.3,132.1
			c-2.1,0.1-4.1,0.2-6.2,0.2c-62.2,0-105.5-59.9-92.1-112.3c-9.9,21.9-43.4,39.9-80.5,39.9c-29.5,0-61.3-11.4-85.5-41.5
			c-40.2-49.9-32.4-179.1,86.3-179.1c1.7,0,3.3,0,5,0.1c-89.2-13.3-116.1-131.1-36.8-200.3c24.5-21.4,56.5-33.9,87.1-33.9
			c36.3,0,70.5,17.6,87.8,58.9C-1529.3-1024.9-1508.4-1084.2-1447.3-1084.2 M-1447.3-1124.2v40V-1124.2c-21,0-40.3,4.9-57.5,14.4
			c-12.4,6.9-23.3,16-32.3,27.1c-20.9-13.1-45.9-20-72.1-20l0,0c-40.2,0-81.5,16-113.4,43.8c-25.9,22.6-44.5,51.1-53.8,82.4
			c-8.9,29.8-9.1,60.7-0.7,89.5c4.8,16.5,12.5,31.8,22.4,45.2c-18,13-32.7,30.6-42.6,51.3c-12.4,26-17.6,57.2-14.5,88
			c3,30.2,13.6,58,29.8,78.2c29.3,36.4,70.7,56.4,116.7,56.4c17.2,0,34-2.9,49.4-8.1c4.4,9.9,10.1,19.3,16.8,28
			c25.9,33.3,64.6,52.4,106.4,52.4c2.9,0,5.8-0.1,8.7-0.3c26.5-1.7,49.7-8,69-18.8c19-10.6,33.9-25.3,44.3-43.5
			c5.6-9.8,9.7-20.5,12.4-31.8c6.1,1.1,12.2,1.7,18.3,1.7c18.9,0,37.5-5.7,53.9-16.5c15.7-10.4,29.6-25.4,41.1-44.7
			c9.6-15.9,15.2-34.8,16.2-54.4c1.1-21.2-3.3-41.8-12.7-59.7c-1.4-2.7-3.1-5.6-5.1-8.6c5.5-4.6,10.4-9.8,14.9-15.4
			c11.3-14.5,18.6-31.5,21.5-50.5c2.6-16.9,1.7-34.7-2.8-52.7c-6.9-28-19.4-50.6-37.1-67.3c-13.2-12.4-28.8-21-46-25.3
			c1.9-12.8,1.6-25.7-1-38.2c-5.8-28.7-28.9-79.8-118.8-99.1C-1426.6-1123-1437.2-1124.2-1447.3-1124.2L-1447.3-1124.2z"/>
	</g>
	<g id="XMLID_71_">
		<path id="XMLID_31_" style="fill:#A0A0A0;" d="M-1447.3-1084.2c7.1,0,14.8,0.8,23,2.6c123.1,26.5,94.4,119.9,58.1,145.3
			c15.7-7,30.2-10.2,43.2-10.2c36.2,0,61.2,25.2,71.1,65.4c12.1,49.1-11.3,98.1-84.6,98.1c-3.3,0-6.8-0.1-10.3-0.3
			c81.4,4.7,89.7,76.3,67.4,113.4c-17.6,29.3-39.2,41.8-60.8,41.8c-23.7,0-47.5-15.1-66.3-39.6c23,45,17.9,126-80.3,132.1
			c-2.1,0.1-4.1,0.2-6.2,0.2c-62.2,0-105.5-59.9-92.1-112.3c-9.9,21.9-43.4,39.9-80.5,39.9c-29.5,0-61.3-11.4-85.5-41.5
			c-40.2-49.9-32.4-179.1,86.3-179.1c1.7,0,3.3,0,5,0.1c-89.2-13.3-116.1-131.1-36.8-200.3c24.5-21.4,56.5-33.9,87.1-33.9
			c36.3,0,70.5,17.6,87.8,58.9C-1529.3-1024.9-1508.4-1084.2-1447.3-1084.2 M-1447.3-1124.2v40V-1124.2c-21,0-40.3,4.9-57.5,14.4
			c-12.4,6.9-23.3,16-32.3,27.1c-20.9-13.1-45.9-20-72.1-20l0,0c-40.2,0-81.5,16-113.4,43.8c-25.9,22.6-44.5,51.1-53.8,82.4
			c-8.9,29.8-9.1,60.7-0.7,89.5c4.8,16.5,12.5,31.8,22.4,45.2c-18,13-32.7,30.6-42.6,51.3c-12.4,26-17.6,57.2-14.5,88
			c3,30.2,13.6,58,29.8,78.2c29.3,36.4,70.7,56.4,116.7,56.4c17.2,0,34-2.9,49.4-8.1c4.4,9.9,10.1,19.3,16.8,28
			c25.9,33.3,64.6,52.4,106.4,52.4c2.9,0,5.8-0.1,8.7-0.3c26.5-1.7,49.7-8,69-18.8c19-10.6,33.9-25.3,44.3-43.5
			c5.6-9.8,9.7-20.5,12.4-31.8c6.1,1.1,12.2,1.7,18.3,1.7c18.9,0,37.5-5.7,53.9-16.5c15.7-10.4,29.6-25.4,41.1-44.7
			c9.6-15.9,15.2-34.8,16.2-54.4c1.1-21.2-3.3-41.8-12.7-59.7c-1.4-2.7-3.1-5.6-5.1-8.6c5.5-4.6,10.4-9.8,14.9-15.4
			c11.3-14.5,18.6-31.5,21.5-50.5c2.6-16.9,1.7-34.7-2.8-52.7c-6.9-28-19.4-50.6-37.1-67.3c-13.2-12.4-28.8-21-46-25.3
			c1.9-12.8,1.6-25.7-1-38.2c-5.8-28.7-28.9-79.8-118.8-99.1C-1426.6-1123-1437.2-1124.2-1447.3-1124.2L-1447.3-1124.2z"/>
	</g>
	<g id="XMLID_64_">
		<g id="XMLID_27_">
			<path id="XMLID_47_" style="fill:#383838;" d="M-1430.5-503.9c3.2-1,6.4-2.2,8.9-4.4c3.3-2.9,5.2-7.3,5-11.7
				c-0.2-3.8-2.9-8.1-6.7-7.5c-1.5,0.3-2.7,1.2-3.9,2.2c-25.9,20.3-58,29-87.6,13.8c-12.1-6.2-23-14-33.5-22.7
				c-9.8-8.2-22.1-14-21.9-28.8c0.1-7.4,3.4-14.7,2.2-22c-0.2-1.2-0.5-2.4-1.3-3.4c-0.7-0.8-1.6-1.4-2.5-1.9
				c-6.8-3.5-15.2-3.7-22.2-0.6c-15.3,6.9-13.1,37.1-32.5,31.5c-7.9-2.3-14.4-8-22.9-10.2c-12.5-3.2-24.7-6.6-36.5-12
				c-26.3-11.9-49.2-29.7-68-53.1c-24.1-30-36.1-68.7-38-106.8c-0.9-19.5,0.8-39.1,5.3-58.1c1.8-7.5,3.1-17.1,8.6-22.8
				c6.5-6.7,17.3-7.9,23.4-15.5c4.4-5.5,5.7-12.8,5.8-19.8c0.3-14.3,6.2-14.7,16.8-19.9c8.6-4.2,10.1-9.2-1-15
				c-6-3.1-12.2-6.3-18.9-6.6c-0.7,0-1.4,0-2-0.4c-3.2-2-4.1-19.6-4.9-23.2c-2.3-10.7-3.6-21.5-4-32.4c-0.7-21.2,0-44,11.5-62.4
				c4.4-7.1,10.2-15.2,7.3-23c-16.1,7.1-28,23.5-32.9,40c-10.8,36.1-11,73.7-0.7,108.9c2.9,10,6.7,19.7,11.2,28.9
				c-11.7,12.5-21.6,27-29.4,43.3c-31,64.7-22.8,149.7,19.5,202.3c18.8,23.3,41.7,41.2,68,53.1c23.6,10.6,48.9,16,75.2,16
				c10.9,0,21.8-0.9,32.4-2.8c2.2,3.2,4.5,6.4,6.9,9.5c15.8,20.4,41.8,45.8,67.8,52.4c28.1,7.1,65.4-6.6,92.3-14
				C-1432.5-503.3-1431.5-503.6-1430.5-503.9z"/>
		</g>
		<g id="XMLID_4_">
			<path id="XMLID_28_" style="fill:#383838;" d="M-1319.7-606.6c-4.7,0.8-9.4,1.7-13.8,3c-4.9,1.5-10.7,4.7-10.3,9.9
				c1.3,19.5,61.8-11.8,69.2-16.7c7-4.6,13.6-9.9,20-15.8C-1272.4-609.5-1297.3-610.2-1319.7-606.6z"/>
		</g>
	</g>
	<g id="XMLID_60_">
		<g id="XMLID_61_">
			<path id="XMLID_26_" style="fill:#2D2D2D;" d="M-1521.5-1003.8c-0.7-1.9-1.2-4.2-1.4-6.7c-1.8-2.7-3.8-5.2-5.8-7.5
				C-1526-1013.6-1523.6-1008.9-1521.5-1003.8z"/>
		</g>
	</g>
	<g id="XMLID_38_">
		<g id="XMLID_6_">
			<path id="XMLID_24_" style="fill:#D3D3D3;" d="M-1414.8-1117.6c98.8,21.3,112.2,80.2,97.1,123.5c29.3-41.9,34-122-84.9-147.6
				c-25.1-5.4-52.2-3.8-74.3,10.4c-8.4,5.4-15.8,12.3-21.7,20.3c-4.6,6.1-15.9,19-16.6,26.3c-0.4,4.6,3,8.6,6.3,11.9
				c1,1,2,2,3.4,2.5c3.7,1.1,7-3.1,7.5-6.9c0.9-6.8-2.4-14,0.2-20.3c1.4-3.5,4.4-6.1,7.3-8.5
				C-1470.5-1122.6-1439.1-1122.8-1414.8-1117.6z"/>
		</g>
		<g id="XMLID_5_">
			<path id="XMLID_22_" style="fill:#D3D3D3;" d="M-1357.8-949.5c3.2,0.7,6.9-1.5,9.6-3.8c8.7-7.7,28.8-7.7,40.6-7.6
				c12.9,0.1,25.7,3.2,37,9.6c23.9,13.6,37.4,39.4,43.8,65.3c4.6,18.8,4.7,37.6-0.4,54.3c16.2-21.2,19.7-49.7,12.6-78.4
				c-6.7-27.2-21.4-54.4-47.4-67.2c-29.8-14.7-65.2-6.2-93.5,7.6c-1.3,0.6-2.7,1.3-3.7,2.4c-1.8,1.8-2.2,4.5-2.6,7.1
				c-0.5,3.5-0.8,7.6,1.9,9.8C-1359.4-950-1358.6-949.7-1357.8-949.5z"/>
		</g>
		<g id="XMLID_51_">
			<path id="XMLID_20_" style="fill:#D3D3D3;" d="M-1695.4-811.6c3.2-0.6,6.5-1.3,9.6-2c2.3-0.5,4.7-1.2,6.1-3
				c2.5-3.2,0.3-7.9-2.5-10.8c-5.7-5.8-14.2-8.8-22.3-7.7c-4,0.5-7.8,1.9-11.5,3.4c-37.6,14.1-71.6,36.9-86.5,76.5
				c7.2-19.2,32.6-31,48.9-40.2C-1736.1-805.4-1715.3-807.8-1695.4-811.6z"/>
		</g>
		<g id="XMLID_2_">
			<path id="XMLID_12_" style="fill:#D3D3D3;" d="M-1260-783c-0.9-0.6-1.8-1.2-2.8-1.8c-16.7,7.3-38,10.8-64.3,9.3
				c82.1,4.8,99.3,68.9,84.8,113.2c1.6-2.3,3.2-4.8,4.7-7.3c13-21.6,15.8-49.6,7.9-73.4c-10.3-31.4-40-51-71.9-56.2
				c-6.6-1.1-13.4-1.2-19.7,0.9c-6.3,2.1-11.9,6.8-14,13.1c-0.5,1.6-0.8,3.3-0.5,5c0.8,3.5,4.4,5.7,8,6.2s7.1-0.3,10.7-0.7
				c4.6-0.5,9.2-0.3,13.7,0.5"/>
		</g>
		<g id="XMLID_21_">
			<path id="XMLID_16_" style="fill:#D3D3D3;" d="M-1724.2-1052.7c27.3-23.9,63.5-39,100-38.9c17.9,0.1,34.9,4.1,50.9,11.9
				c18.2,8.8,22.2,25,36.2,38.9c4.9,4.9,11,9.9,11.4,16.8c0.4,6.4-3.9,14.1,0.8,18.5c2.9,2.8,7.9,2,11-0.6s4.7-6.5,6.1-10.2
				c3.7-9.4,7.1-20.5,1.7-29c-1.9-3-4.7-5.3-7.3-7.7c-15.3-14.6-19.7-32.8-38.3-45.2c-15.9-10.5-34.5-16.1-53.5-17.2
				c-38.7-2.2-77.9,13.4-106.8,38.7c-20.6,18-34.9,38.8-43.5,60.4C-1747.4-1029.2-1737-1041.5-1724.2-1052.7z"/>
		</g>
		<g id="XMLID_3_">
			<path id="XMLID_14_" style="fill:#D3D3D3;" d="M-1387.2-640.2c0.4,2.9,1,5.8,1.9,8.6c8.9,27.6,16.9,48.6,7.2,78.2
				c12.3-16.8,16.7-35.7,15.8-56.1c-1-20.4,1.6-39.1-11-57c-1-1.4-2.2-2.9-3.9-3.2c-3-0.6-5.3,2.5-6.5,5.3
				C-1387.1-656.8-1388.2-648.3-1387.2-640.2z"/>
		</g>
	</g>
	<path id="XMLID_1_" style="fill:#D3D3D3;" d="M-1380.4-809.9c9.4-12.1,19.3-25.7,18.4-41c-0.3-4.7-1.6-9.2-2.9-13.7
		c-3.9-13.3-8.2-26.7-15.3-38.7c-7.1-11.9-17.5-22.4-30.7-27c-6.4-2.3-13.3-3.1-20.1-3.9c-18.2-2.1-36.3-4.2-54.5-6.4
		c-4.3-0.5-8.7-1-12.7,0.5c-9.7,3.7-11.9,16.2-12.5,26.6c24,10.5,52.4,2.3,77.6,9.7c29.4,8.6,50,40.2,46.1,70.5
		c-0.6,4.9-1.8,9.9-0.7,14.7c1.1,4.8,5.6,9.3,10.4,8.4"/>
	<path id="XMLID_18_" style="fill:#6B6B6B;" d="M-1611.3-823.5c-9.4,12.1-19.3,25.7-18.4,41c0.3,4.7,1.6,9.2,2.9,13.7
		c3.9,13.3,8.2,26.7,15.3,38.7c7.1,11.9,17.5,22.4,30.7,27c6.4,2.3,13.3,3.1,20.1,3.9c18.2,2.1,36.3,4.2,54.5,6.4
		c4.3,0.5,8.7,1,12.7-0.5c9.7-3.7,11.9-16.2,12.5-26.6c-24-10.5-52.4-2.3-77.6-9.7c-29.4-8.6-50-40.2-46.1-70.5
		c0.6-4.9,1.8-9.9,0.7-14.7s-5.6-9.3-10.4-8.4"/>
</g>
<g id="spoon">
	
		<radialGradient id="SVGID_1_" cx="-4063.9858" cy="-272.0132" r="368.2923" gradientTransform="matrix(1 0 0 -1 0 560)" gradientUnits="userSpaceOnUse">
		<stop  offset="1.020408e-002" style="stop-color:#99ABC4"/>
		<stop  offset="1" style="stop-color:#FFFFFF"/>
	</radialGradient>
	<rect x="-4449.7" y="441.3" style="fill:url(#SVGID_1_);" width="647.9" height="647.9"/>
	
		<radialGradient id="SVGID_2_" cx="-3732.4937" cy="70.4017" r="1067.7444" gradientTransform="matrix(1 0 0 -1 0 560)" gradientUnits="userSpaceOnUse">
		<stop  offset="0.1147" style="stop-color:#FFFFFF"/>
		<stop  offset="0.1518" style="stop-color:#FBFBFB"/>
		<stop  offset="0.1922" style="stop-color:#EEEEEE"/>
		<stop  offset="0.234" style="stop-color:#D8D8D8"/>
		<stop  offset="0.2769" style="stop-color:#B9B9B9"/>
		<stop  offset="0.3206" style="stop-color:#929292"/>
		<stop  offset="0.365" style="stop-color:#626262"/>
		<stop  offset="0.4091" style="stop-color:#2B2B2B"/>
		<stop  offset="0.4287" style="stop-color:#0F0F0F"/>
		<stop  offset="0.4394" style="stop-color:#1A1A1A"/>
		<stop  offset="0.5148" style="stop-color:#606060"/>
		<stop  offset="0.5826" style="stop-color:#979797"/>
		<stop  offset="0.6407" style="stop-color:#BFBFBF"/>
		<stop  offset="0.6865" style="stop-color:#D8D8D8"/>
		<stop  offset="0.7145" style="stop-color:#E1E1E1"/>
		<stop  offset="0.7253" style="stop-color:#CFCFCF"/>
		<stop  offset="0.7402" style="stop-color:#BEBEBE"/>
		<stop  offset="0.7588" style="stop-color:#B3B3B3"/>
		<stop  offset="0.7849" style="stop-color:#ACACAC"/>
		<stop  offset="0.8574" style="stop-color:#AAAAAA"/>
		<stop  offset="0.859" style="stop-color:#ACACAC"/>
		<stop  offset="0.8824" style="stop-color:#CACACA"/>
		<stop  offset="0.9071" style="stop-color:#E2E2E2"/>
		<stop  offset="0.9335" style="stop-color:#F2F2F2"/>
		<stop  offset="0.9626" style="stop-color:#FCFCFC"/>
		<stop  offset="1" style="stop-color:#FFFFFF"/>
	</radialGradient>
	<path style="fill:url(#SVGID_2_);" d="M-3890.5,557.7c-0.9-29-14.4-53.9-35.4-69c-39-34.5-74.9-19.7-106.7,14.6
		c-33.1,35.6-64.3,73.5-88.9,115.5c-11.8,20.1-22.2,41.2-30.2,63.1c-6.8,18.6-7.9,41.5-16.9,58.8c-24.7,47.2-61.7,86.3-102,120.6
		c-22.4,19-48.4,33.4-70.9,52.4c-21.4,18.1-38.3,44.1-43.2,72c-2.8,15.8-3.4,59.9,18.1,64.9c24.7,5.7,60.7-45.9,69.6-63.9
		c19.8-40.1,49.6-84.4,80.8-116.4c30.9-31.7,72-87.7,119.5-92.7C-3984.9,765.9-3886.8,674.4-3890.5,557.7z"/>
	
		<radialGradient id="SVGID_3_" cx="-4129.8306" cy="-134.8199" r="266.4699" gradientTransform="matrix(1 0 0 -1 0 560)" gradientUnits="userSpaceOnUse">
		<stop  offset="0" style="stop-color:#FFFFFF"/>
		<stop  offset="1" style="stop-color:#000000"/>
	</radialGradient>
	<path style="fill:url(#SVGID_3_);stroke:#FFFFFF;stroke-miterlimit:10;" d="M-3961.1,543.5c3-10.2,4.9-20.8,5.3-31.6
		c2.4-59.8-51.4-26.9-74.9-1.5c-33.1,35.6-64.3,73.5-88.9,115.5c-14.7,25.1-22.8,49-30.9,76.6c-1.8,6-3.6,12.1-3.7,18.4
		c-0.2,12.3,4.3,29.9,18.8,31.5c8.3,0.9,16.3-2.8,23.5-7c48.3-27.7,80.3-76.2,110.3-123C-3985.6,597.5-3969.3,571.5-3961.1,543.5z"
		/>
	
		<radialGradient id="SVGID_4_" cx="-3816.1997" cy="47.2004" r="823.8932" gradientTransform="matrix(1 0 0 -1 0 560)" gradientUnits="userSpaceOnUse">
		<stop  offset="0" style="stop-color:#3D3D3D"/>
		<stop  offset="0.5" style="stop-color:#7A7A7A"/>
		<stop  offset="1" style="stop-color:#1C1C1C"/>
	</radialGradient>
	<path style="fill:url(#SVGID_4_);" d="M-3882.5,566.8c-0.8-24.4-10.4-45.8-25.9-61c10.8,14.2,17.3,32.1,17.9,51.9
		c3.6,116.6-94.4,208.2-206.3,219.9c-47.5,4.9-88.6,60.9-119.5,92.7c-31.2,32.1-61,76.3-80.8,116.4c-8.9,18-44.9,69.6-69.6,63.9
		c-1.8-0.4-3.4-1.1-4.8-2c3,5.6,7.1,9.7,12.8,11c24.7,5.7,60.7-45.9,69.6-63.9c19.8-40.1,49.6-84.4,80.8-116.4
		c30.9-31.7,72-87.7,119.5-92.7C-3976.9,775-3878.8,683.4-3882.5,566.8z"/>
</g>
<g id="fork">
	
		<radialGradient id="SVGID_5_" cx="-3497" cy="128" r="681.6685" gradientTransform="matrix(1 0 0 -1 0 560)" gradientUnits="userSpaceOnUse">
		<stop  offset="1.020408e-002" style="stop-color:#BF5500"/>
		<stop  offset="1" style="stop-color:#FFFFFF"/>
	</radialGradient>
	<rect x="-3505.9" y="423.6" style="fill:url(#SVGID_5_);" width="647.9" height="647.9"/>
	
		<radialGradient id="SVGID_6_" cx="-2754.314" cy="134.5557" r="1132.5891" gradientTransform="matrix(1 0 0 -1 0 560)" gradientUnits="userSpaceOnUse">
		<stop  offset="0" style="stop-color:#FFFFFF"/>
		<stop  offset="0.5969" style="stop-color:#5F5F5F"/>
		<stop  offset="1" style="stop-color:#FFFFFF"/>
	</radialGradient>
	<path style="fill:url(#SVGID_6_);" d="M-2949.5,448.8c-24.7-5.7-60.7,45.9-69.6,63.9c-19.8,40.1-49.6,84.4-80.8,116.4
		c-17.7,18.2-34.8,42.5-55.3,60.1c-6.8,5.9-14,11-21.7,14.9c-70.6,6.8-121.5,49.2-159.6,103.6c-6.4,9.1-12.4,18.5-18,28.1
		c-4.4,8.3-8.7,16.7-13,25.1c-4.3,8.4-8.5,16.8-12.6,25.3c-24.4,52.3-36.8,81.6-53.8,136.6c4.5,6.8,12.9,16.8,17.3,0.3
		c9.3-34.7,39.2-109.7,59-150.7c3-6.5,6-13,9.1-19.4s6.3-12.6,9.7-18.6c7.8-12.8,15.4-33.5,32.4-18.4c0.5,0.4,1,0.9,1.1,1.5
		c0.2,0.9-0.4,1.8-0.9,2.5c-4,5.1-8.3,8.4-11.6,14s-6.1,11.6-9.1,17.4c-4.2,8-8.5,16-12.8,24.1c-31,57.9-48.3,96.2-61.3,161.2
		c5.3,2.7,13.2,9.2,16.3-3c12.7-50,30.3-101.6,52.1-141.5c3.8-8.5,7.9-16.7,12.4-24.8c4.4-8.1,9.2-16,14.5-23.7
		c3.2-4.7,6.5-9.6,11.1-13.1c1.4-1.1,4.9-3.8,6.8-3.4c2.1,0.5,4.4,5.1,4.7,6.9c0.3,1.9-0.3,3.8-1.2,5.5c-2.3,4.6-6.1,7.3-8.7,11.6
		c-4.8,8.3-9.6,16.6-14.3,24.9c-4.7,8.4-9.3,16.8-13.7,25.5c-27.7,52.7-37,86-48,145c4.8,3.9,12.4,14.5,15.7-1.7
		c10.7-53.3,29.1-103.9,49.1-140.2c3.5-8.2,7.3-16.2,11.3-24c4-7.9,8.2-15.6,12.8-23.2c4.4-7.4,10-12.4,19.4-10.5
		c1.9,0.4,4.2,1.8,3.7,3.8c-0.6,2.1-3.9,5.4-5,7.8c-3.3,6.7-6.7,13.3-10.2,19.9c-4.3,7.6-8.4,15.3-12.4,23.1
		c-28.9,55.8-36.2,93.2-51.2,154.2c5.7,19.6,19.5,13.5,21.3-8c2.7-31.3,22-95.3,37-130.3c4-8,8.2-15.8,12.7-23.4
		c4.4-7.6,9-15,13.6-22.3c4.9-7.2,10-14.2,15.4-21.1c26.7-34.5,58.6-65.7,88.8-97.2c6.3-6.8,10.9-15.7,16.5-23.2
		c25-33.7,53.1-65.2,85.2-92.4c22.4-19,48.4-33.4,70.9-52.4c21.4-18.1,38.3-44.1,43.2-72C-2928.7,497.9-2928,453.8-2949.5,448.8z"/>
	
		<radialGradient id="SVGID_7_" cx="-3339.7534" cy="-593.4443" r="1131.1057" gradientTransform="matrix(1 0 0 -1 0 560)" gradientUnits="userSpaceOnUse">
		<stop  offset="0" style="stop-color:#FFFFFF"/>
		<stop  offset="0.5969" style="stop-color:#5F5F5F"/>
		<stop  offset="1" style="stop-color:#FFFFFF"/>
	</radialGradient>
	<path style="fill:url(#SVGID_7_);" d="M-2949.5,448.8c-24.7-5.7-60.7,45.9-69.6,63.9c-19.8,40.1-49.6,84.4-80.8,116.4
		c-17.7,18.2-34.8,42.5-55.3,60.1c-6.8,5.9-14,11-21.7,14.9c-70.6,6.8-121.5,49.2-159.6,103.6c-6.4,9.1-12.4,18.5-18,28.1
		c-4.4,8.3-8.7,16.7-13,25.1c-4.3,8.4-8.5,16.8-12.6,25.3c-10.4,21.5-20.1,43.5-29,65.6c-4.2,10.5-8.2,21.1-11.9,31.7
		c-3.8,10.9-9.8,22.3-11.8,33.6c-0.7,3.8-0.9,8.2,1.7,11.2c11.4,13,18-17.1,19.8-22.6c4.8-14.6,10.1-29,15.6-43.4
		c11.6-30.3,24-60.5,38.1-89.7c3-6.5,6-13,9.1-19.4s6.3-12.6,9.7-18.6c7.8-12.8,15.4-33.5,32.4-18.4c0.5,0.4,1,0.9,1.1,1.5
		c0.2,0.9-0.4,1.8-0.9,2.5c-4,5.1-8.3,8.4-11.6,14s-6.1,11.6-9.1,17.4c-4.2,8-8.5,16-12.8,24.1c-14.5,27.4-28.8,55-39.8,84.1
		c-5.4,14.3-10,28.8-13.8,43.6c-2.1,7.8-4.2,15.8-5.9,23.7c-0.8,3.9-2,9.7,1.3,12.6c5.5,4.9,11.9-0.4,13.2-5.8
		c12.7-50,30.3-101.6,52.1-141.5c3.8-8.5,7.9-16.7,12.4-24.8c4.4-8.1,9.2-16,14.5-23.7c3.2-4.7,6.5-9.6,11.1-13.1
		c1.4-1.1,4.9-3.8,6.8-3.4c2.1,0.5,4.4,5.1,4.7,6.9c0.3,1.9-0.3,3.8-1.2,5.5c-2.3,4.6-6.1,7.3-8.7,11.6c-4.8,8.3-9.6,16.6-14.3,24.9
		c-4.7,8.4-9.3,16.8-13.7,25.5c-15.5,29.5-28.3,60.1-36.7,92.4c-3.6,14-10.4,31.8-9.6,46.3c0.5,9.9,11.1,19,14,4.7
		c10.7-53.3,29.1-103.9,49.1-140.2c3.5-8.2,7.3-16.2,11.3-24c4-7.9,8.2-15.6,12.8-23.2c4.4-7.4,10-12.4,19.4-10.5
		c1.9,0.4,4.2,1.8,3.7,3.8c-0.6,2.1-3.9,5.4-5,7.8c-3.3,6.7-6.7,13.3-10.2,19.9c-4.3,7.6-8.4,15.3-12.4,23.1
		c-28.9,55.8-36.2,93.2-51.2,154.2c5.7,19.6,19.5,13.5,21.3-8c2.7-31.3,22-95.3,37-130.3c4-8,8.2-15.8,12.7-23.4
		c4.4-7.6,9-15,13.6-22.3c4.9-7.2,10-14.2,15.4-21.1c26.7-34.5,58.6-65.7,88.8-97.2c6.3-6.8,10.9-15.7,16.5-23.2
		c25-33.7,53.1-65.2,85.2-92.4c22.4-19,48.4-33.4,70.9-52.4c21.4-18.1,38.3-44.1,43.2-72C-2928.7,497.9-2928,453.8-2949.5,448.8z"/>
	<g>
		
			<radialGradient id="SVGID_8_" cx="-3270.4023" cy="-242.7645" r="403.2658" gradientTransform="matrix(1 0 0 -1 0 560)" gradientUnits="userSpaceOnUse">
			<stop  offset="0" style="stop-color:#FFFFFF"/>
			<stop  offset="0.5969" style="stop-color:#5F5F5F"/>
			<stop  offset="1" style="stop-color:#FFFFFF"/>
		</radialGradient>
		<path style="fill:url(#SVGID_8_);" d="M-3339.6,875.7c4.3-8.1,8.5-16.1,12.8-24.1c3-5.8,5.8-11.8,9.1-17.4
			c3.3-5.5,7.6-8.9,11.6-14c0.6-0.7,1.1-1.6,0.9-2.5c-0.1-0.6-0.6-1.1-1.1-1.5c-3.3-3-6.3-4.5-9-5.1c-3.6,4.4-7.5,7.6-10.4,12.6
			c-3.3,5.6-6.1,11.6-9.1,17.4c-4.2,8-8.5,16-12.8,24.1c-25.9,48.9-54.6,102.3-57.3,158.7c-0.2,4.9,0.2,10.6,4.3,13.4
			c7.7-27.7,12.6-55.3,23.2-82.4C-3366.8,927.6-3353.3,901.6-3339.6,875.7z"/>
		
			<radialGradient id="SVGID_9_" cx="-2760.8491" cy="144.02" r="1085.3606" gradientTransform="matrix(1 0 0 -1 0 560)" gradientUnits="userSpaceOnUse">
			<stop  offset="0" style="stop-color:#FFFFFF"/>
			<stop  offset="0.5969" style="stop-color:#5F5F5F"/>
			<stop  offset="1" style="stop-color:#FFFFFF"/>
		</radialGradient>
		<path style="fill:url(#SVGID_9_);" d="M-3380.2,886.3c4.1-8.5,8.3-16.9,12.6-25.3c4.3-8.4,8.6-16.7,13-25.1
			c4-6.8,8.2-13.5,12.6-20.1c2.3-4,4.7-7.9,7.4-10.7c37.9-53.1,88.3-94.2,157.7-100.9c7.7-3.9,14.9-9,21.7-14.9
			c20.5-17.6,37.6-41.9,55.3-60.1c31.2-32.1,61-76.3,80.8-116.4c8.9-18,44.9-69.6,69.6-63.9c2.2,0.5,11.5,4.8,13,11.3
			c0-11.6-14.6-20.3-21-21.8c-24.7-5.7-60.7,45.9-69.6,63.9c-19.8,40.1-49.6,84.4-80.8,116.4c-17.7,18.2-34.8,42.5-55.3,60.1
			c-6.8,5.9-14,11-21.7,14.9c-70.6,6.8-121.5,49.2-159.6,103.6c-6.4,9.1-12.4,18.5-18,28.1c-4.4,8.3-8.7,16.7-13,25.1
			c-4.3,8.4-8.5,16.8-12.6,25.3c-21.9,45.2-41.4,88.9-51.5,138.4c-0.5,2.5-1,5.1-0.3,7.5c1.5,5.3,8.1,4.9,11.8,7.8
			c-10.3-8.1-0.4-23.7,2.8-33.5c4.2-12.5,8.6-24.9,13.4-37.1C-3402.3,934.3-3391.7,910-3380.2,886.3z"/>
		
			<radialGradient id="SVGID_10_" cx="-3251.3164" cy="-259.1441" r="393.7996" gradientTransform="matrix(1 0 0 -1 0 560)" gradientUnits="userSpaceOnUse">
			<stop  offset="0" style="stop-color:#FFFFFF"/>
			<stop  offset="0.5969" style="stop-color:#5F5F5F"/>
			<stop  offset="1" style="stop-color:#FFFFFF"/>
		</radialGradient>
		<path style="fill:url(#SVGID_10_);" d="M-3320.9,901.9c4.4-8.7,9-17.1,13.7-25.5s9.5-16.7,14.3-24.9c2.5-4.3,6.4-7,8.7-11.6
			c0.9-1.7,1.5-3.6,1.2-5.5s-2.7-6.4-4.7-6.9c-1.1-0.3-2.8,0.6-4.2,1.5c-0.1,0.1-0.1,0.3-0.2,0.4c-2.3,4.6-6.1,7.3-8.7,11.6
			c-4.8,8.3-9.6,16.6-14.3,24.9c-4.7,8.4-9.3,16.8-13.7,25.5c-22.9,44.9-39.1,89.9-44.6,140.3c-0.6,5.8-0.8,12.7,3.7,16.4
			c0.3,0.2,0.6,0.4,0.9,0.5c1.2,0.2,1.6-1.5,1.6-2.7c-0.7-23.7,8.7-50.6,15.9-73.1C-3343.5,948.1-3332.6,924.9-3320.9,901.9z"/>
		
			<radialGradient id="SVGID_11_" cx="-3228.1719" cy="-278.7585" r="389.1155" gradientTransform="matrix(1 0 0 -1 0 560)" gradientUnits="userSpaceOnUse">
			<stop  offset="0" style="stop-color:#FFFFFF"/>
			<stop  offset="0.5969" style="stop-color:#5F5F5F"/>
			<stop  offset="1" style="stop-color:#FFFFFF"/>
		</radialGradient>
		<path style="fill:url(#SVGID_11_);" d="M-3338.3,1056.6c1.1,4,3.2,7.7,7.3,9.1c-3.4-10.6,1.1-28.3,3-39.4
			c2.5-14.1,6.1-28,10.1-41.7c8.3-28.7,19.4-56.3,33.1-82.9c4-7.8,8.1-15.5,12.4-23.1c3.5-6.6,6.9-13.2,10.2-19.9
			c1.2-2.3,4.4-5.6,5-7.8c0.5-1.9-1.8-3.4-3.7-3.8c-3.5-0.7-6.5-0.5-9.1,0.5c-0.1,0.2-0.2,0.3-0.3,0.5c-3.3,6.7-6.7,13.3-10.2,19.9
			c-4.3,7.6-8.4,15.3-12.4,23.1c-12.8,25-23.5,50.8-31.6,77.8c-7.8,26-17.5,55.1-14.8,82.6
			C-3339,1053.2-3338.7,1054.9-3338.3,1056.6z"/>
	</g>
</g>
<linearGradient id="separator_1_" gradientUnits="userSpaceOnUse" x1="-3298.5388" y1="1407.6228" x2="-3151.5461" y2="1371.6246" gradientTransform="matrix(1 0 0 -1 0 560)">
	<stop  offset="1.020408e-002" style="stop-color:#555555"/>
	<stop  offset="0.1733" style="stop-color:#595959"/>
	<stop  offset="0.3253" style="stop-color:#646464"/>
	<stop  offset="0.4729" style="stop-color:#777777"/>
	<stop  offset="0.6177" style="stop-color:#919191"/>
	<stop  offset="0.7607" style="stop-color:#B4B4B4"/>
	<stop  offset="0.9002" style="stop-color:#DDDDDD"/>
	<stop  offset="0.9994" style="stop-color:#FFFFFF"/>
</linearGradient>
<polygon id="separator" style="fill:url(#separator_1_);" points="-3147.1,-954.4 -3231.1,-677.3 -3190.5,-677.3 -3106.5,-954.4 "/>
<g id="CLICKER2">
	<path style="opacity:0.4;fill:#383838;" d="M196.2-1389.2c167.8-37,191.7-155.7,136.6-252.5c-58.7-103.2-158-134.1-263.6-46.5
		c59-72,63.7-278.1-201-261.5c-169.5,10.8-183.8,170.5-152.6,213.6c-50-62.8-115.2-83.9-178.9-75.9v804.6h659.9
		c-7-43.5-28.7-84.4-55.4-113.2c99.4,74.7,216.7,68.8,256.6-77.2C421.8-1285.7,364-1426.2,196.2-1389.2z"/>
</g>
<path id="CLICKER" style="fill:none;" d="M1321.9-1836c-196.6,0-355.9,159.3-355.9,355.9s159.3,355.9,355.9,355.9
	s355.9-159.3,355.9-355.9S1518.5-1836,1321.9-1836z M1302-1204.1c-152.4,0-276-123.6-276-276c0-152.4,123.6-276,276-276
	s276,123.6,276,276C1578-1327.7,1454.4-1204.1,1302-1204.1z"/>
</svg>
