<?xml version="1.0" encoding="utf-8"?>
<!-- Generator: Adobe Illustrator 19.0.0, SVG Export Plug-In . SVG Version: 6.00 Build 0)  -->
<svg version="1.1" id="Layer_1" xmlns="http://www.w3.org/2000/svg" xmlns:xlink="http://www.w3.org/1999/xlink" x="0px" y="0px"
	 viewBox="-2905 -116 3344 792" style="enable-background:new -2905 -116 3344 792;" xml:space="preserve">
<style type="text/css">
	.st0{fill:#691D4B;}
	.st1{fill:#C65FA4;}
	.st2{fill:#FCB138;}
	.st3{fill:#913D1F;}
	.st4{fill:#A0A0A0;}
	.st5{fill:#FFFFFF;}
	.st6{fill:#383838;}
	.st7{fill:#2D2D2D;}
	.st8{fill:#D3D3D3;}
	.st9{fill:url(#SVGID_1_);}
	.st10{fill:url(#SVGID_2_);}
	.st11{fill:url(#SVGID_3_);stroke:#FFFFFF;stroke-miterlimit:10;}
	.st12{fill:url(#SVGID_4_);}
	.st13{fill:url(#SVGID_5_);}
	.st14{fill:url(#SVGID_6_);}
	.st15{fill:url(#SVGID_7_);}
	.st16{fill:url(#SVGID_8_);}
	.st17{fill:url(#SVGID_9_);}
	.st18{fill:url(#SVGID_10_);}
	.st19{fill:url(#SVGID_11_);}
</style>
<g>
	<g>
		<path class="st0" d="M363.8,93.3C340.2,39.2,288.6-4.9,232.7-17.9c-8.1-1.9-16.2-5-24.2-8.1c-6.8-2.5-13-5-20.5-6.8
			C163.1-40.3,133.9-44,103.5-44C55.7-44,9.7-34.7-25.7-17.3C-55.5-3-76.6,26.2-83.5,62.9C-94.1,120.7-63,181.6-26.3,217.6
			c-3.1,0.6-5.6,1.2-8.1,1.9c-21.1,6.2-32.9,14.3-36,41c-5.6,40.4,13,83.9,46.6,106.9c5.6,3.7,13.7,8.7,23.6,9.9
			c-1.2,13-4.3,26.7-6.8,39.8c-1.2,5-1.9,9.3-3.1,13.7c-3.7,19.9-12.4,41.6-19.9,60.9c-8.7,21.7-14.9,37.9-14.3,50.3
			c2.5,57.8,116.8,62.1,151.6,62.1c26.1,0,154.7-3.1,158.4-59c1.2-19.9-1.9-39.8-8.7-59c-2.5-6.8-3.1-14.9-3.7-24.2
			c-0.6-9.9-1.9-21.1-5.6-32.3h0.6c44.1,0,78.3-20.5,93.8-55.9c2.5-5.6,4.3-11.8,5.6-18c9.3-43.5-11.2-92.6-44.7-120.5
			c8.1-1.9,15.5-4.3,23-6.8c19.3-7.5,33.6-21.7,41.6-41.6C378.1,159.8,376.9,123.1,363.8,93.3z M319.1,212
			c-28.6,11.2-64,14.9-93.2,3.7c-32.9-12.4-52.2-49.7-43.5-83.9c2.5-9.3,6.8-18,14.3-24.2c7.5-5.6,19.3-6.8,26.7-1.2
			c-3.1-13.7-18-23-31.7-19.9c-9.9,2.5-18,9.9-22.4,19.3s-5.6,19.9-5.6,29.8c0,27.3,6.8,53.4,13,80.2c-6.8,1.9-13-3.1-19.9-1.2
			c-5,1.2-12.4,8.1-16.2,11.2s-6.2,7.5-5.6,12.4s6.2,8.1,10.6,6.8c1.9-0.6,3.1-1.9,4.3-3.1c11.8-9.9,27.3-14.9,42.9-15.5
			c16.8-1.2,33.6-2.5,49.7,1.2c9.3,1.9,18,5,27.3,8.1c3.1,1.2,6.2,1.9,9.3,3.1c14.3,6.2,26.1,21.1,34.2,34.2
			c9.3,14.9,16.2,31.7,18,49.1c1.2,9.9,1.2,19.9-1.2,29.8c-1.2,5-2.5,9.9-4.3,14.3c-22.4,49.7-83.9,54.1-129.2,34.8
			c-8.7-3.7-11.8-6.2-17.4-13.7c-3.7-5.6-8.7-10.6-13-1.9c-1.2,3.1-1.2,6.8-1.2,10.6c1.9,32.3,46,6.2,59.6,28
			c12.4,19.9,6.8,45.4,14.3,67.1c5.6,16.8,8.7,34.2,7.5,52.2c-3.1,53.4-271.5,60.3-274.6-3.1c-0.6-18,25.5-64,34.2-106.9
			c5-24.2,13.7-54.7,9.3-79.5c-3.7,3.1-9.3,5-14.3,5c-6.2-0.6-11.2-3.7-16.2-6.8c-28.6-19.9-43.5-56.5-39.1-90.7
			c2.5-17.4,7.5-21.7,23.6-26.1c8.1-2.5,28.6-2.5,28-15.5c-0.6-5-4.3-8.7-8.1-11.8c-37.3-34.2-66.5-92-56.5-142.9
			c5.6-28.6,21.7-54.7,47.8-67.7C37.7-30,121.5-35,181.8-17c15.5,4.3,30.4,11.2,46,14.9C279.4,10.3,326,50.7,347.1,99.2
			C363.8,137.4,362,195.2,319.1,212z"/>
	</g>
	<path class="st1" d="M196.7,109.4c-3.7,2.5-6.8,5.6-9.3,8.7c-7.5,11.2-9.3,25.5-6.2,39.1c5,26.1,20.5,49.1,46,59
		c22.4,8.7,47.2,7.5,70.2,2.5c7.5-1.9,14.9-3.7,22.4-6.8c42.9-16.8,44.7-74.6,28.6-111.8C327.3,52.3,280.7,11.3,229.1-1.2
		c-15.5-3.7-30.4-10.6-46-14.9C122.8-33.5,39-29.1-18.2-1.8c-26.7,13-42.9,38.5-47.8,67.7c-1.2,5-1.2,9.9-1.9,15.5
		c-1.2,25.5,6.2,50.3,17.4,72.7c5.6,11.2,12.4,22.4,20.5,32.3c3.7,5,8.1,9.3,12.4,14.3c1.9,2.5,4.3,5,6.8,6.8
		c4.3,3.7,7.5,6.2,2.5,11.2c-10.6,10.6-30.4,9.9-37.3,23.6c-0.6,1.9-1.2,3.7-1.9,5.6c-1.2,5-3.7,9.3-5,14.3
		c-4.3,34.2,11.2,70.8,39.1,90.7c5,3.1,10.6,6.2,16.2,6.8c5,0.6,10.6-1.9,14.3-5c4.3,24.9-4.3,54.7-9.3,79.5
		C-0.9,477.1-27,523-26.4,541.1c3.1,63.4,271.5,56.5,274.6,3.1c1.2-17.4-1.9-35.4-7.5-52.2c-7.5-21.1-1.9-47.2-14.3-67.1
		c-13.7-21.7-57.8,4.3-59.6-28c0-3.7-0.6-7.5,1.2-10.6c3.7-8.7,8.7-3.7,13,1.9c5,7.5,8.1,9.9,17.4,13.7
		c44.7,19.3,106.9,14.9,129.2-34.8c1.9-4.3,3.7-9.3,4.3-14.3c0.6-3.7,1.2-7.5,1.2-11.2c1.2-16.8-2.5-34.2-8.7-49.7
		c-3.1-8.1-7.5-15.5-12.4-22.4c-2.5-3.1-5-6.2-7.5-9.9c-2.5-3.1-4.3-7.5-7.5-9.9c-1.2-1.2-3.1-2.5-5-3.7
		c-10.6-6.8-20.5-13-32.3-15.5c-12.4-3.1-24.2-5.6-36.7-5.6c-24.9-0.6-49.7,5-71.5,16.8c-3.1,1.9-6.8,3.7-9.9,2.5
		c-5.6-1.2-6.8-8.7-3.7-13.7s8.1-6.8,13.7-8.7c21.7-6.8,45.4-6.8,68.3-3.7c-25.5-3.7-42.2-31.1-46.6-55.9
		c-3.7-21.7,0.6-50.9,19.9-65.2c2.5-1.9,5-3.1,7.5-3.7c9.9-3.1,22.4,2.5,23.6,12.4C214.1,102,204.8,104.5,196.7,109.4z"/>
</g>
<g>
	<path class="st2" d="M-407.9,465.5C-420.3,578-610.5,587.3-693.7,584.2c-97.5-3.7-163.4-21.7-182-54.1
		c-34.8-60.9,67.7-139.8,124.9-152.8c30.4-6.8,78.3,1.9,92.6,34.2c3.7,8.7,6.2,29.2-4.3,34.2c-4.3,1.9-10.6-3.1-14.3,0
		c-11.8,8.7-1.9,28,10.6,28.6c26.1,1.9,31.7-44.1,26.7-61.5c-6.8-24.2-29.2-41.6-52.8-48.5c-15.5-4.3-31.7-6.8-47.8-10.6
		C-841.4,328.8-911,219.5-882.4,117c13-46.6,46.6-76.4,86.4-101.9c41-26.1,88.8-39.1,137.3-41c60.3-2.5,132.3,10.6,170.9,62.1
		c29.2,39.1,29.8,93.2,8.7,135.4c-9.3,18-22.4,34.2-39.1,46c-42.2,30.4-104.4,29.2-147.9,1.9c-33.6-20.5-55.9-60.9-47.8-99.4
		c7.5-38.5,50.3-68.3,87.6-56.5c-7.5,9.3,0.6,24.9,12.4,25.5c11.8,1.2,21.7-9.9,22.4-21.7c0.6-11.8-8.1-22.4-18-28
		c-10.6-5.6-22.4-6.2-34.2-5c-42.9,5-80.8,37.9-91.3,79.5s7.5,88.8,42.9,113.1c28.6,19.3,64,23.6,96.9,33.6
		C-512.2,285.3-398.5,386.6-407.9,465.5z"/>
	<path class="st3" d="M-561.3,255.5c19.9-3.7,37.9-11.8,53.4-23c18.6-13,33.6-31.1,44.1-52.2c25.5-50.3,21.7-110.6-9.9-154.1
		c-32.9-44.7-93.8-69.6-171.5-69.6c-5,0-9.3,0-13.7,0c-53.4,1.9-104.4,17.4-146,44.1c-35.4,22.4-77.7,55.3-93.8,111.8
		c-14.9,52.2-6.8,108.1,21.7,157.8c25.5,43.5,64.6,76.4,109.4,93.8c-46,15.5-104.4,59-124.9,105c-11.2,24.9-10.6,49.1,1.9,69.6
		c21.7,37.3,87.6,59,196.3,62.8c8.7,0.6,17.4,0.6,26.7,0.6c78.9,0,263.4-13,277.1-134.8C-381.1,385.9-478.7,292.7-561.3,255.5z
		 M-407.9,465.5C-420.3,578-610.5,587.3-693.7,584.2c-97.5-3.7-163.4-21.7-182-54.1c-34.8-60.9,67.7-139.8,124.9-152.8
		c30.4-6.8,78.3,1.9,92.6,34.2c3.7,8.7,6.2,29.2-4.3,34.2c-4.3,1.9-10.6-3.1-14.3,0c-11.8,8.7-1.9,28,10.6,28.6
		c26.1,1.9,31.7-44.1,26.7-61.5c-6.8-24.2-29.2-41.6-52.8-48.5c-15.5-4.3-31.7-6.8-47.8-10.6C-841.4,328.8-911,219.5-882.4,117
		c13-46.6,46.6-76.4,86.4-101.9c41-26.1,88.8-39.1,137.3-41c60.3-2.5,132.3,10.6,170.9,62.1c29.2,39.1,29.8,93.2,8.7,135.4
		c-9.3,18-22.4,34.2-39.1,46c-42.2,30.4-104.4,29.2-147.9,1.9c-33.6-20.5-55.9-60.9-47.8-99.4c7.5-38.5,50.3-68.3,87.6-56.5
		c-7.5,9.3,0.6,24.9,12.4,25.5c11.8,1.2,21.7-9.9,22.4-21.7c0.6-11.8-8.1-22.4-18-28c-10.6-5.6-22.4-6.2-34.2-5
		c-42.9,5-80.8,37.9-91.3,79.5s7.5,88.8,42.9,113.1c28.6,19.3,64,23.6,96.9,33.6C-512.2,285.3-398.5,386.6-407.9,465.5z"/>
</g>
<g id="CLICKER">
	<g>
		<path class="st4" d="M-3375.1,37.7c36.2-25.3,64.9-118.8-58.1-145.3c-78.8-16.9-105.9,54.2-97.2,77.9
			c-31.9-75.9-121.2-71.9-174.9-24.9c-79.2,69.2-52.4,187,36.8,200.3c-123.5-3.7-132.1,128.4-91.4,179c54.6,67.8,148.2,40.7,166,1.5
			c-13.8,54.1,32.8,116.2,98.3,112.1c98.2-6.2,103.3-87.1,80.3-132.1c35.8,46.9,90.1,59.3,127.1-2.2c22.3-37.1,14-108.7-67.4-113.4
			c81.4,4.7,107.6-46.4,94.9-97.7C-3274.2,38.2-3315.6,11.4-3375.1,37.7z"/>
	</g>
	<g>
		<path class="st5" d="M-3456.2-110.1c7.1,0,14.8,0.8,23,2.6c123.1,26.5,94.4,119.9,58.1,145.3c15.7-7,30.2-10.2,43.2-10.2
			c36.2,0,61.2,25.2,71.1,65.4c12.1,49.1-11.3,98.1-84.6,98.1c-3.3,0-6.8-0.1-10.3-0.3c81.4,4.7,89.7,76.3,67.4,113.4
			c-17.6,29.3-39.2,41.8-60.8,41.8c-23.7,0-47.5-15.1-66.3-39.6c23,45,17.9,126-80.3,132.1c-2.1,0.1-4.1,0.2-6.2,0.2
			c-62.2,0-105.5-59.9-92.1-112.3c-9.9,21.9-43.4,39.9-80.5,39.9c-29.5,0-61.3-11.4-85.5-41.5c-40.2-49.9-32.4-179.1,86.3-179.1
			c1.7,0,3.3,0,5,0.1c-89.2-13.3-116.1-131.1-36.8-200.3c24.5-21.4,56.5-33.9,87.1-33.9c36.3,0,70.5,17.6,87.8,58.9
			C-3538.2-50.8-3517.3-110.1-3456.2-110.1 M-3456.2-150.1L-3456.2-150.1c-21,0-40.3,4.9-57.5,14.4c-12.4,6.9-23.3,16-32.3,27.1
			c-20.9-13.1-45.9-20-72.1-20c0,0,0,0,0,0c-40.2,0-81.5,16-113.4,43.8c-25.9,22.6-44.5,51.1-53.8,82.4c-8.9,29.8-9.1,60.7-0.7,89.5
			c4.8,16.5,12.5,31.8,22.4,45.2c-18,13-32.7,30.6-42.6,51.3c-12.4,26-17.6,57.2-14.5,88c3,30.2,13.6,58,29.8,78.2
			c29.3,36.4,70.7,56.4,116.7,56.4c17.2,0,34-2.9,49.4-8.1c4.4,9.9,10.1,19.3,16.8,28c25.9,33.3,64.6,52.4,106.4,52.4
			c2.9,0,5.8-0.1,8.7-0.3c26.5-1.7,49.7-8,69-18.8c19-10.6,33.9-25.3,44.3-43.5c5.6-9.8,9.7-20.5,12.4-31.8
			c6.1,1.1,12.2,1.7,18.3,1.7c18.9,0,37.5-5.7,53.9-16.5c15.7-10.4,29.6-25.4,41.1-44.7c9.6-15.9,15.2-34.8,16.2-54.4
			c1.1-21.2-3.3-41.8-12.7-59.7c-1.4-2.7-3.1-5.6-5.1-8.6c5.5-4.6,10.4-9.8,14.9-15.4c11.3-14.5,18.6-31.5,21.5-50.5
			c2.6-16.9,1.7-34.7-2.8-52.7c-6.9-28-19.4-50.6-37.1-67.3c-13.2-12.4-28.8-21-46-25.3c1.9-12.8,1.6-25.7-1-38.2
			c-5.8-28.7-28.9-79.8-118.8-99.1C-3435.5-148.9-3446.1-150.1-3456.2-150.1L-3456.2-150.1z"/>
	</g>
	<g>
		<path class="st4" d="M-3456.2-110.1c7.1,0,14.8,0.8,23,2.6c123.1,26.5,94.4,119.9,58.1,145.3c15.7-7,30.2-10.2,43.2-10.2
			c36.2,0,61.2,25.2,71.1,65.4c12.1,49.1-11.3,98.1-84.6,98.1c-3.3,0-6.8-0.1-10.3-0.3c81.4,4.7,89.7,76.3,67.4,113.4
			c-17.6,29.3-39.2,41.8-60.8,41.8c-23.7,0-47.5-15.1-66.3-39.6c23,45,17.9,126-80.3,132.1c-2.1,0.1-4.1,0.2-6.2,0.2
			c-62.2,0-105.5-59.9-92.1-112.3c-9.9,21.9-43.4,39.9-80.5,39.9c-29.5,0-61.3-11.4-85.5-41.5c-40.2-49.9-32.4-179.1,86.3-179.1
			c1.7,0,3.3,0,5,0.1c-89.2-13.3-116.1-131.1-36.8-200.3c24.5-21.4,56.5-33.9,87.1-33.9c36.3,0,70.5,17.6,87.8,58.9
			C-3538.2-50.8-3517.3-110.1-3456.2-110.1 M-3456.2-150.1L-3456.2-150.1c-21,0-40.3,4.9-57.5,14.4c-12.4,6.9-23.3,16-32.3,27.1
			c-20.9-13.1-45.9-20-72.1-20c0,0,0,0,0,0c-40.2,0-81.5,16-113.4,43.8c-25.9,22.6-44.5,51.1-53.8,82.4c-8.9,29.8-9.1,60.7-0.7,89.5
			c4.8,16.5,12.5,31.8,22.4,45.2c-18,13-32.7,30.6-42.6,51.3c-12.4,26-17.6,57.2-14.5,88c3,30.2,13.6,58,29.8,78.2
			c29.3,36.4,70.7,56.4,116.7,56.4c17.2,0,34-2.9,49.4-8.1c4.4,9.9,10.1,19.3,16.8,28c25.9,33.3,64.6,52.4,106.4,52.4
			c2.9,0,5.8-0.1,8.7-0.3c26.5-1.7,49.7-8,69-18.8c19-10.6,33.9-25.3,44.3-43.5c5.6-9.8,9.7-20.5,12.4-31.8
			c6.1,1.1,12.2,1.7,18.3,1.7c18.9,0,37.5-5.7,53.9-16.5c15.7-10.4,29.6-25.4,41.1-44.7c9.6-15.9,15.2-34.8,16.2-54.4
			c1.1-21.2-3.3-41.8-12.7-59.7c-1.4-2.7-3.1-5.6-5.1-8.6c5.5-4.6,10.4-9.8,14.9-15.4c11.3-14.5,18.6-31.5,21.5-50.5
			c2.6-16.9,1.7-34.7-2.8-52.7c-6.9-28-19.4-50.6-37.1-67.3c-13.2-12.4-28.8-21-46-25.3c1.9-12.8,1.6-25.7-1-38.2
			c-5.8-28.7-28.9-79.8-118.8-99.1C-3435.5-148.9-3446.1-150.1-3456.2-150.1L-3456.2-150.1z"/>
	</g>
	<g>
		<g>
			<path class="st6" d="M-3468.7,495c-3.6,0.2-7.2,0.3-10.8,0.3c-26.6,0-53-6.3-76.6-18.4c-12.1-6.2-23-14-33.5-22.7
				c-9.8-8.2-22.1-14-21.9-28.8c0.1-7.4,3.4-14.7,2.2-22c-0.2-1.2-0.5-2.4-1.3-3.4c-0.7-0.8-1.6-1.4-2.5-1.9
				c-6.8-3.5-15.2-3.7-22.2-0.6c-15.3,6.9-13.1,37.1-32.5,31.5c-7.9-2.3-14.4-8-22.9-10.2c-12.5-3.2-24.7-6.6-36.5-12
				c-26.3-11.9-49.2-29.7-68-53.1c-42.3-52.5-50.5-137.6-19.5-202.3c7.7-16.2,17.4-36.1,37.5-38.2c2.7-0.3,5.5-0.3,7.9-1.6
				c2.9-1.7,4.3-5.7,3.2-8.9c-1.2-3.4-4.7-5.4-8-7.1c-6-3.1-12.2-6.3-18.9-6.6c-0.7,0-1.4,0-2-0.4c-3.2-2-4.1-19.6-4.9-23.2
				c-2.3-10.7-3.6-21.5-4-32.4c-0.7-21.1,2.1-42.4,8.1-62.6c11-36.9,32.7-70.4,62.7-97.1c-7.3,4.9-14.2,10.2-20.9,16
				c-30.8,26.9-52.9,60.9-64.1,98.3c-10.8,36.1-11,73.7-0.7,108.9c2.9,10,6.7,19.7,11.2,28.9c-11.7,12.5-21.6,27-29.4,43.3
				c-31,64.7-22.8,149.7,19.5,202.3c18.8,23.3,41.7,41.2,68,53.1c23.6,10.6,48.9,16,75.2,16c10.9,0,21.8-0.9,32.4-2.8
				c2.2,3.2,4.5,6.4,6.9,9.5c32.4,41.7,81,65.6,133.3,65.6c3.6,0,7.2-0.1,10.8-0.3c55.1-3.5,90.9-23.8,113.6-45.1
				C-3399.3,481.2-3429,492.5-3468.7,495z"/>
		</g>
		<g>
			<path class="st6" d="M-3321.4,401.5c-4.7,0.8-9.4,1.7-13.8,3c-4.9,1.5-10.7,4.7-10.3,9.9c1.3,19.5,61.8-11.8,69.2-16.7
				c7-4.6,13.6-9.9,20-15.8C-3274.1,398.6-3299,397.9-3321.4,401.5z"/>
		</g>
	</g>
	<g>
		<g>
			<path class="st7" d="M-3530.4-29.7c-0.7-1.9-1.2-4.2-1.4-6.7c-1.8-2.7-3.8-5.2-5.8-7.5C-3534.9-39.5-3532.5-34.8-3530.4-29.7z"/>
		</g>
	</g>
	<g>
		<g>
			<path class="st8" d="M-3433.5-120.5c98.8,21.3,112.2,80.2,97.1,123.5c29.3-41.9,34-122-84.9-147.6c-25.1-5.4-52.2-3.8-74.3,10.4
				c-8.4,5.4-15.8,12.3-21.7,20.3c-4.6,6.1-15.9,19-16.6,26.3c-0.4,4.6,3,8.6,6.3,11.9c1,1,2,2,3.4,2.5c3.7,1.1,7-3.1,7.5-6.9
				c0.9-6.8-2.4-14,0.2-20.3c1.4-3.5,4.4-6.1,7.3-8.5C-3489.1-125.4-3457.7-125.6-3433.5-120.5z"/>
		</g>
		<g>
			<path class="st8" d="M-3366.7,45.7c3.2,0.7,6.9-1.5,9.6-3.8c8.7-7.7,28.8-7.7,40.6-7.6c12.9,0.1,25.7,3.2,37,9.6
				c23.9,13.6,37.4,39.4,43.8,65.3c4.6,18.8,4.7,37.6-0.4,54.3c16.2-21.2,19.7-49.7,12.6-78.4c-6.7-27.2-21.4-54.4-47.4-67.2
				c-29.8-14.7-65.2-6.2-93.5,7.6c-1.3,0.6-2.7,1.3-3.7,2.4c-1.8,1.8-2.2,4.5-2.6,7.1c-0.5,3.5-0.8,7.6,1.9,9.8
				C-3368.3,45.2-3367.5,45.5-3366.7,45.7z"/>
		</g>
		<g>
			<path class="st8" d="M-3704.3,162.5c3.2-0.6,6.5-1.3,9.6-2c2.3-0.5,4.7-1.2,6.1-3c2.5-3.2,0.3-7.9-2.5-10.8
				c-5.7-5.8-14.2-8.8-22.3-7.7c-4,0.5-7.8,1.9-11.5,3.4c-37.6,14.1-71.6,36.9-86.5,76.5c7.2-19.2,32.6-31,48.9-40.2
				C-3745,168.7-3724.3,166.3-3704.3,162.5z"/>
		</g>
		<g>
			<path class="st8" d="M-3277.5,213.5c-0.9-0.6-1.8-1.2-2.8-1.8c-16.7,7.3-38,10.8-64.3,9.3c82.1,4.8,99.3,68.9,84.8,113.2
				c1.6-2.3,3.2-4.8,4.7-7.3c13-21.6,15.8-49.6,7.9-73.4c-10.3-31.4-40-51-71.9-56.2c-6.6-1.1-13.4-1.2-19.7,0.9
				c-6.3,2.1-11.9,6.8-14,13.1c-0.5,1.6-0.8,3.3-0.5,5c0.8,3.5,4.4,5.7,8,6.2c3.6,0.5,7.1-0.3,10.7-0.7c4.6-0.5,9.2-0.3,13.7,0.5"/>
		</g>
		<g>
			<path class="st8" d="M-3745.1-59.9c27.3-23.9,63.5-39,100-38.9c17.9,0.1,34.9,4.1,50.9,11.9c18.2,8.8,22.2,25,36.2,38.9
				c4.9,4.9,11,9.9,11.4,16.8c0.4,6.4-3.9,14.1,0.8,18.5c2.9,2.8,7.9,2,11-0.6s4.7-6.5,6.1-10.2c3.7-9.4,7.1-20.5,1.7-29
				c-1.9-3-4.7-5.3-7.3-7.7c-15.3-14.6-19.7-32.8-38.3-45.2c-15.9-10.5-34.5-16.1-53.5-17.2c-38.7-2.2-77.9,13.4-106.8,38.7
				c-20.6,18-34.9,38.8-43.5,60.4C-3768.3-36.4-3757.9-48.7-3745.1-59.9z"/>
		</g>
		<g>
			<path class="st8" d="M-3413.9,353.6c0.4,2.9,1,5.8,1.9,8.6c8.9,27.6,16.9,48.6,7.2,78.2c12.3-16.8,16.7-35.7,15.8-56.1
				c-1-20.4,1.6-39.1-11-57c-1-1.4-2.2-2.9-3.9-3.2c-3-0.6-5.3,2.5-6.5,5.3C-3413.7,337-3414.9,345.5-3413.9,353.6z"/>
		</g>
	</g>
</g>
<g id="spoon">
	
		<radialGradient id="SVGID_1_" cx="-2335.1445" cy="372.3431" r="475.762" fx="-2401.8611" fy="355.4922" gradientUnits="userSpaceOnUse">
		<stop  offset="1.020408e-002" style="stop-color:#489ED3"/>
		<stop  offset="1" style="stop-color:#FFFFFF"/>
	</radialGradient>
	<rect x="-2767.1" y="-44" class="st9" width="647.9" height="647.9"/>
	<radialGradient id="SVGID_2_" cx="-2034.8977" cy="-37.7164" r="1067.7444" gradientUnits="userSpaceOnUse">
		<stop  offset="0" style="stop-color:#FFFFFF"/>
		<stop  offset="0.5969" style="stop-color:#5F5F5F"/>
		<stop  offset="1" style="stop-color:#FFFFFF"/>
	</radialGradient>
	<path class="st10" d="M-2207.9,72.4c-0.9-29-14.4-53.9-35.4-69c-39-34.5-74.9-19.7-106.7,14.6c-33.1,35.6-64.3,73.5-88.9,115.5
		c-11.8,20.1-22.2,41.2-30.2,63.1c-6.8,18.6-7.9,41.5-16.9,58.8c-24.7,47.2-61.7,86.3-102,120.6c-22.4,19-48.4,33.4-70.9,52.4
		c-21.4,18.1-38.3,44.1-43.2,72c-2.8,15.8-3.4,59.9,18.1,64.9c24.7,5.7,60.7-45.9,69.6-63.9c19.8-40.1,49.6-84.4,80.8-116.4
		c30.9-31.7,72-87.7,119.5-92.7C-2302.3,280.6-2204.3,189.1-2207.9,72.4z"/>
	<radialGradient id="SVGID_3_" cx="-2447.2361" cy="209.5095" r="266.4699" gradientUnits="userSpaceOnUse">
		<stop  offset="0" style="stop-color:#FFFFFF"/>
		<stop  offset="1" style="stop-color:#000000"/>
	</radialGradient>
	<path class="st11" d="M-2278.5,58.2c3-10.2,4.9-20.8,5.3-31.6c2.4-59.8-51.4-26.9-74.9-1.5c-33.1,35.6-64.3,73.5-88.9,115.5
		c-14.7,25.1-22.8,49-30.9,76.6c-1.8,6-3.6,12.1-3.7,18.4c-0.2,12.3,4.3,29.9,18.8,31.5c8.3,0.9,16.3-2.8,23.5-7
		c48.3-27.7,80.3-76.2,110.3-123C-2303,112.2-2286.7,86.2-2278.5,58.2z"/>
	<radialGradient id="SVGID_4_" cx="-2133.6052" cy="27.4891" r="823.8932" gradientUnits="userSpaceOnUse">
		<stop  offset="0" style="stop-color:#3D3D3D"/>
		<stop  offset="0.5" style="stop-color:#7A7A7A"/>
		<stop  offset="1" style="stop-color:#1C1C1C"/>
	</radialGradient>
	<path class="st12" d="M-2199.9,81.5c-0.8-24.4-10.4-45.8-25.9-61c10.8,14.2,17.3,32.1,17.9,51.9c3.6,116.6-94.4,208.2-206.3,219.9
		c-47.5,4.9-88.6,60.9-119.5,92.7c-31.2,32.1-61,76.3-80.8,116.4c-8.9,18-44.9,69.6-69.6,63.9c-1.8-0.4-3.4-1.1-4.8-2
		c3,5.6,7.1,9.7,12.8,11c24.7,5.7,60.7-45.9,69.6-63.9c19.8-40.1,49.6-84.4,80.8-116.4c30.9-31.7,72-87.7,119.5-92.7
		C-2294.3,289.7-2196.3,198.1-2199.9,81.5z"/>
</g>
<g id="fork">
	
		<radialGradient id="SVGID_5_" cx="-1391.4185" cy="372.3431" r="475.762" fx="-1458.135" fy="355.4922" gradientTransform="matrix(0 1 -1 0 -1219.4617 1779.3322)" gradientUnits="userSpaceOnUse">
		<stop  offset="1.020408e-002" style="stop-color:#BF5500"/>
		<stop  offset="1" style="stop-color:#FFFFFF"/>
	</radialGradient>
	<rect x="-1823.3" y="-44" class="st13" width="647.9" height="647.9"/>
	<radialGradient id="SVGID_6_" cx="-1071.7196" cy="-42.1335" r="1132.5891" gradientUnits="userSpaceOnUse">
		<stop  offset="0" style="stop-color:#FFFFFF"/>
		<stop  offset="0.5969" style="stop-color:#5F5F5F"/>
		<stop  offset="1" style="stop-color:#FFFFFF"/>
	</radialGradient>
	<path class="st14" d="M-1266.9-18.7c-24.7-5.7-60.7,45.9-69.6,63.9c-19.8,40.1-49.6,84.4-80.8,116.4
		c-17.7,18.2-34.8,42.5-55.3,60.1c-6.8,5.9-14,11-21.7,14.9c-70.6,6.8-121.5,49.2-159.6,103.6c-6.4,9.1-12.4,18.5-18,28.1
		c-4.4,8.3-8.7,16.7-13,25.1c-4.3,8.4-8.5,16.8-12.6,25.3c-24.4,52.3-36.8,81.6-53.8,136.6c4.5,6.8,12.9,16.8,17.3,0.3
		c9.3-34.7,39.2-109.7,59-150.7c3-6.5,6-13,9.1-19.4c3.1-6.4,6.3-12.6,9.7-18.6c7.8-12.8,15.4-33.5,32.4-18.4c0.5,0.4,1,0.9,1.1,1.5
		c0.2,0.9-0.4,1.8-0.9,2.5c-4,5.1-8.3,8.4-11.6,14c-3.3,5.6-6.1,11.6-9.1,17.4c-4.2,8-8.5,16-12.8,24.1
		c-31,57.9-48.3,96.2-61.3,161.2c5.3,2.7,13.2,9.2,16.3-3c12.7-50,30.3-101.6,52.1-141.5c3.8-8.5,7.9-16.7,12.4-24.8
		c4.4-8.1,9.2-16,14.5-23.7c3.2-4.7,6.5-9.6,11.1-13.1c1.4-1.1,4.9-3.8,6.8-3.4c2.1,0.5,4.4,5.1,4.7,6.9c0.3,1.9-0.3,3.8-1.2,5.5
		c-2.3,4.6-6.1,7.3-8.7,11.6c-4.8,8.3-9.6,16.6-14.3,24.9c-4.7,8.4-9.3,16.8-13.7,25.5c-27.7,52.7-37,86-48,145
		c4.8,3.9,12.4,14.5,15.7-1.7c10.7-53.3,29.1-103.9,49.1-140.2c3.5-8.2,7.3-16.2,11.3-24c4-7.9,8.2-15.6,12.8-23.2
		c4.4-7.4,10-12.4,19.4-10.5c1.9,0.4,4.2,1.8,3.7,3.8c-0.6,2.1-3.9,5.4-5,7.8c-3.3,6.7-6.7,13.3-10.2,19.9
		c-4.3,7.6-8.4,15.3-12.4,23.1c-28.9,55.8-36.2,93.2-51.2,154.2c5.7,19.6,19.5,13.5,21.3-8c2.7-31.3,22-95.3,37-130.3
		c4-8,8.2-15.8,12.7-23.4c4.4-7.6,9-15,13.6-22.3c4.9-7.2,10-14.2,15.4-21.1c26.7-34.5,58.6-65.7,88.8-97.2
		c6.3-6.8,10.9-15.7,16.5-23.2c25-33.7,53.1-65.2,85.2-92.4c22.4-19,48.4-33.4,70.9-52.4c21.4-18.1,38.3-44.1,43.2-72
		C-1246.1,30.3-1245.5-13.8-1266.9-18.7z"/>
	<radialGradient id="SVGID_7_" cx="-1657.7196" cy="685.8665" r="1132.5891" gradientUnits="userSpaceOnUse">
		<stop  offset="0" style="stop-color:#FFFFFF"/>
		<stop  offset="0.5969" style="stop-color:#5F5F5F"/>
		<stop  offset="1" style="stop-color:#FFFFFF"/>
	</radialGradient>
	<path class="st15" d="M-1266.9-18.7c-24.7-5.7-60.7,45.9-69.6,63.9c-19.8,40.1-49.6,84.4-80.8,116.4
		c-17.7,18.2-34.8,42.5-55.3,60.1c-6.8,5.9-14,11-21.7,14.9c-70.6,6.8-121.5,49.2-159.6,103.6c-6.4,9.1-12.4,18.5-18,28.1
		c-4.4,8.3-8.7,16.7-13,25.1c-4.3,8.4-8.5,16.8-12.6,25.3c-24.4,52.3-36.8,81.6-53.8,136.6c4.5,6.8,12.9,16.8,17.3,0.3
		c9.3-34.7,39.2-109.7,59-150.7c3-6.5,6-13,9.1-19.4c3.1-6.4,6.3-12.6,9.7-18.6c7.8-12.8,15.4-33.5,32.4-18.4c0.5,0.4,1,0.9,1.1,1.5
		c0.2,0.9-0.4,1.8-0.9,2.5c-4,5.1-8.3,8.4-11.6,14c-3.3,5.6-6.1,11.6-9.1,17.4c-4.2,8-8.5,16-12.8,24.1
		c-31,57.9-48.3,96.2-61.3,161.2c5.3,2.7,13.2,9.2,16.3-3c12.7-50,30.3-101.6,52.1-141.5c3.8-8.5,7.9-16.7,12.4-24.8
		c4.4-8.1,9.2-16,14.5-23.7c3.2-4.7,6.5-9.6,11.1-13.1c1.4-1.1,4.9-3.8,6.8-3.4c2.1,0.5,4.4,5.1,4.7,6.9c0.3,1.9-0.3,3.8-1.2,5.5
		c-2.3,4.6-6.1,7.3-8.7,11.6c-4.8,8.3-9.6,16.6-14.3,24.9c-4.7,8.4-9.3,16.8-13.7,25.5c-27.7,52.7-37,86-48,145
		c4.8,3.9,12.4,14.5,15.7-1.7c10.7-53.3,29.1-103.9,49.1-140.2c3.5-8.2,7.3-16.2,11.3-24c4-7.9,8.2-15.6,12.8-23.2
		c4.4-7.4,10-12.4,19.4-10.5c1.9,0.4,4.2,1.8,3.7,3.8c-0.6,2.1-3.9,5.4-5,7.8c-3.3,6.7-6.7,13.3-10.2,19.9
		c-4.3,7.6-8.4,15.3-12.4,23.1c-28.9,55.8-36.2,93.2-51.2,154.2c5.7,19.6,19.5,13.5,21.3-8c2.7-31.3,22-95.3,37-130.3
		c4-8,8.2-15.8,12.7-23.4c4.4-7.6,9-15,13.6-22.3c4.9-7.2,10-14.2,15.4-21.1c26.7-34.5,58.6-65.7,88.8-97.2
		c6.3-6.8,10.9-15.7,16.5-23.2c25-33.7,53.1-65.2,85.2-92.4c22.4-19,48.4-33.4,70.9-52.4c21.4-18.1,38.3-44.1,43.2-72
		C-1246.1,30.3-1245.5-13.8-1266.9-18.7z"/>
	<g>
		<radialGradient id="SVGID_8_" cx="-1586.4349" cy="335.4368" r="391.8508" gradientUnits="userSpaceOnUse">
			<stop  offset="0" style="stop-color:#FFFFFF"/>
			<stop  offset="0.5969" style="stop-color:#5F5F5F"/>
			<stop  offset="1" style="stop-color:#FFFFFF"/>
		</radialGradient>
		<path class="st16" d="M-1657,408.1c4.3-8.1,8.5-16.1,12.8-24.1c3-5.8,5.8-11.8,9.1-17.4c3.3-5.5,7.6-8.9,11.6-14
			c0.6-0.7,1.1-1.6,0.9-2.5c-0.1-0.6-0.6-1.1-1.1-1.5c-3.3-3-6.3-4.5-9-5.1c-3.6,4.4-7.5,7.6-10.4,12.6c-3.3,5.6-6.1,11.6-9.1,17.4
			c-4.2,8-8.5,16-12.8,24.1c-31,57.9-48.3,96.2-61.3,161.2c2.7,1.4,6.2,3.8,9.3,4.1C-1704.2,501.8-1687,464.1-1657,408.1z"/>
		<radialGradient id="SVGID_9_" cx="-1087.2626" cy="-51.2923" r="1070.4907" gradientUnits="userSpaceOnUse">
			<stop  offset="0" style="stop-color:#FFFFFF"/>
			<stop  offset="0.5969" style="stop-color:#5F5F5F"/>
			<stop  offset="1" style="stop-color:#FFFFFF"/>
		</radialGradient>
		<path class="st17" d="M-1697.6,418.7c4.1-8.5,8.3-16.9,12.6-25.3c4.3-8.4,8.6-16.7,13-25.1c4-6.8,8.2-13.5,12.6-20.1
			c2.3-4,4.7-7.9,7.4-10.7c37.9-53.1,88.3-94.2,157.7-100.9c7.7-3.9,14.9-9,21.7-14.9c20.5-17.6,37.6-41.9,55.3-60.1
			c31.2-32.1,61-76.3,80.8-116.4c8.9-18,44.9-69.6,69.6-63.9c2.2,0.5,4.1,1.4,5.9,2.7c-3-6.7-7.4-11.7-13.9-13.1
			c-24.7-5.7-60.7,45.9-69.6,63.9c-19.8,40.1-49.6,84.4-80.8,116.4c-17.7,18.2-34.8,42.5-55.3,60.1c-6.8,5.9-14,11-21.7,14.9
			c-70.6,6.8-121.5,49.2-159.6,103.6c-6.4,9.1-12.4,18.5-18,28.1c-4.4,8.3-8.7,16.7-13,25.1c-4.3,8.4-8.5,16.8-12.6,25.3
			c-24.4,52.3-36.8,81.6-53.8,136.6c2.2,3.3,5.4,7.4,8.5,8.8C-1734.1,499.7-1721.7,470.5-1697.6,418.7z"/>
		<radialGradient id="SVGID_10_" cx="-1567.6329" cy="351.7624" r="384.8164" gradientUnits="userSpaceOnUse">
			<stop  offset="0" style="stop-color:#FFFFFF"/>
			<stop  offset="0.5969" style="stop-color:#5F5F5F"/>
			<stop  offset="1" style="stop-color:#FFFFFF"/>
		</radialGradient>
		<path class="st18" d="M-1638.3,434.3c4.4-8.7,9-17.1,13.7-25.5c4.7-8.4,9.5-16.7,14.3-24.9c2.5-4.3,6.4-7,8.7-11.6
			c0.9-1.7,1.5-3.6,1.2-5.5c-0.3-1.9-2.7-6.4-4.7-6.9c-1.1-0.3-2.8,0.6-4.2,1.5c-0.1,0.1-0.1,0.3-0.2,0.4c-2.3,4.6-6.1,7.3-8.7,11.6
			c-4.8,8.3-9.6,16.6-14.3,24.9c-4.7,8.4-9.3,16.8-13.7,25.5c-27.7,52.7-37,86-48,145c2.5,2,5.7,5.8,8.7,6.8
			C-1674.9,518.9-1665.4,485.9-1638.3,434.3z"/>
		<radialGradient id="SVGID_11_" cx="-1544.0732" cy="371.5025" r="374.2677" gradientUnits="userSpaceOnUse">
			<stop  offset="0" style="stop-color:#FFFFFF"/>
			<stop  offset="0.5969" style="stop-color:#5F5F5F"/>
			<stop  offset="1" style="stop-color:#FFFFFF"/>
		</radialGradient>
		<path class="st19" d="M-1653.3,588.3c15-61,22.3-98.3,51.2-154.2c4-7.8,8.1-15.5,12.4-23.1c3.5-6.6,6.9-13.2,10.2-19.9
			c1.2-2.3,4.4-5.6,5-7.8c0.5-1.9-1.8-3.4-3.7-3.8c-3.5-0.7-6.5-0.5-9.1,0.5c-0.1,0.2-0.2,0.3-0.3,0.5c-3.3,6.7-6.7,13.3-10.2,19.9
			c-4.3,7.6-8.4,15.3-12.4,23.1c-28.9,55.8-36.2,93.2-51.2,154.2c2,7,5.1,10.7,8.4,11.6C-1653.1,589.1-1653.2,588.7-1653.3,588.3z"
			/>
	</g>
</g>
</svg>
